<?xml version="1.0" standalone="no"?>
<!DOCTYPE svg PUBLIC "-//W3C//DTD SVG 1.1//EN" "http://www.w3.org/Graphics/SVG/1.1/DTD/svg11.dtd" >
<svg xmlns="http://www.w3.org/2000/svg">
<metadata>
This is a custom SVG webfont generated by Font Squirrel.
Copyright   : Generated in 2009 by FontLab Studio Copyright info pending
</metadata>
<defs>
<font id="webfontBZ6jSZ9h" horiz-adv-x="690" >
<font-face units-per-em="2048" ascent="1505" descent="-543" />
<missing-glyph horiz-adv-x="315" />
<glyph unicode=" "  horiz-adv-x="315" />
<glyph unicode="&#x09;" horiz-adv-x="315" />
<glyph unicode="&#xa0;" horiz-adv-x="315" />
<glyph unicode="!" horiz-adv-x="387" d="M86 0v227h215v-227h-215zM129 406l-55 1099h239l-55 -1099h-129z" />
<glyph unicode="&#x22;" horiz-adv-x="329" d="M242 954h-154l-31 551h215z" />
<glyph unicode="#" horiz-adv-x="1232" d="M49 438l27 195h198l37 258h-196l26 194h197l57 420h197l-57 -420h260l57 420h197l-58 -420h193l-27 -194h-192l-37 -258h190l-26 -195h-191l-59 -438h-197l60 438h-261l-59 -438h-197l60 438h-199zM508 891l-37 -258h260l37 258h-260z" />
<glyph unicode="$" horiz-adv-x="692" d="M287 1628h123v-125q201 -23 235 -282l-192 -25q-6 57 -28 92t-65 33q-80 -2 -84 -162q0 -29 8.5 -60.5t18.5 -54t32.5 -59.5t34.5 -53l41 -59q30 -42 38 -52q6 -10 32 -48l37 -52q10 -14 33.5 -51t34.5 -58l26 -55q16 -35 23.5 -61.5t13.5 -60.5t6 -64q-4 -338 -245 -369 v-217h-123v221q-236 41 -250 352l192 13q12 -186 129 -187q88 0 93 185q0 29 -8.5 59.5t-19.5 55t-32.5 60.5t-34.5 53l-40 55q-28 38 -35 50q-68 92 -101 141.5t-70.5 141.5t-37.5 170q4 293 215 342v131z" />
<glyph unicode="%" horiz-adv-x="1001" d="M295 0h-137l553 1505h131zM250 1348q2 55 -35 55q-18 0 -27.5 -13.5t-9.5 -27.5v-14v-437q-4 -55 37 -55q16 0 25.5 14.5t9.5 26.5v14v437zM825 594q2 55 -34 55q-18 0 -27.5 -13t-9.5 -28v-14v-436q-4 -57 37 -58q37 0 34 58v436zM373 911q0 -6 -1 -18t-9.5 -43 t-23.5 -53.5t-47 -42t-77 -19.5q-129 0 -156 135l-4 41v437q0 6 1 18t9.5 42t23.5 53.5t48 42t78 18.5q70 0 110 -44t44 -87l4 -43v-437zM948 158q0 -6 -1 -18.5t-9 -42t-23.5 -53.5t-47 -42t-76.5 -18q-72 0 -112 43t-44 88l-4 43v436q0 6 1 18.5t9 43t23.5 53t48 42 t78.5 19.5q125 0 153 -135l4 -41v-436z" />
<glyph unicode="&#x26;" horiz-adv-x="854" d="M49 315q0 115 44 214.5t126 222.5q-106 225 -106 442v18q0 12 5 46t13 65t28.5 69t48.5 65.5t73 46t102 18.5q203 0 252 -215q14 -61 12 -113q0 -162 -205 -434q76 -174 148 -285q33 96 47 211l176 -33q-16 -213 -92 -358q55 -63 92 -76v-235q-23 0 -86 37.5t-123 101.5 q-123 -139 -252 -139t-216 97t-87 234zM487 262q-88 139 -174 295q-6 -10 -14 -28.5t-22.5 -78t-14.5 -124.5q2 -66 29.5 -108t70.5 -42q59 0 125 86zM461 1200q-2 2 0 15.5t-2 36t-11.5 43t-23.5 36t-41 15.5q-39 0 -58.5 -38t-19.5 -75v-39q0 -111 55 -246 q101 156 101 252z" />
<glyph unicode="'" horiz-adv-x="309" d="M260 1505v-227l-113 -266h-102l72 266h-72v227h215z" />
<glyph unicode="(" horiz-adv-x="561" d="M358 1589l162 -84l-27.5 -40.5t-62.5 -114.5t-79 -182.5t-61.5 -238t-27.5 -284.5t26.5 -282.5t64.5 -240.5t76 -178t65 -118l26 -39l-162 -84q-12 18 -31.5 50t-69.5 133.5t-89 207t-70.5 257t-31.5 294.5t29.5 292.5t73.5 261.5t87 204t72 139z" />
<glyph unicode=")" horiz-adv-x="561" d="M41 1505l162 84q12 -18 31.5 -50t69.5 -134t89 -206.5t71 -257.5t32 -296t-30 -292.5t-74 -261t-87 -203t-72 -138.5l-30 -47l-162 84q10 14 27.5 41t62.5 115t79 181t61.5 236.5t27.5 284.5t-26.5 282.5t-64.5 241t-76 179t-64 118.5z" />
<glyph unicode="*" horiz-adv-x="677" d="M281 1329l-19 176h154l-19 -176l164 70l43 -148l-172 -34l115 -138l-131 -80l-78 152l-76 -152l-131 80l115 138l-172 34l43 148z" />
<glyph unicode="+" horiz-adv-x="1060" d="M74 649v172h370v346h172v-346h371v-172h-371v-346h-172v346h-370z" />
<glyph unicode="," horiz-adv-x="309" d="M260 227v-227l-113 -266h-102l72 266h-72v227h215z" />
<glyph unicode="-" horiz-adv-x="444" d="M74 455v194h297v-194h-297z" />
<glyph unicode="." horiz-adv-x="321" d="M53 0v227h215v-227h-215z" />
<glyph unicode="/" horiz-adv-x="720" d="M8 -147l543 1652h162l-537 -1652h-168z" />
<glyph unicode="0" horiz-adv-x="724" d="M657 309q0 -12 -2 -34.5t-17 -79t-43 -99.5t-88.5 -77.5t-144 -34.5t-144 33.5t-88.5 81.5t-43 95.5t-17 79.5l-2 35v887q0 12 2 34.5t17 79t43 99.5t88.5 78t144 35t144 -34t88.5 -81t43 -95t17 -83l2 -33v-887zM436 1196q0 12 -1 30.5t-19.5 49.5t-53 31t-53 -28 t-18.5 -54l-2 -29v-887q0 -12 1 -30.5t19.5 -49t53 -30.5t53 27.5t18.5 56.5l2 26v887z" />
<glyph unicode="1" horiz-adv-x="475" d="M172 1180h-147v141q51 10 94 32.5t68.5 48t43 49.5t23.5 40l6 14h133v-1505h-221v1180z" />
<glyph unicode="2" horiz-adv-x="731" d="M283 1028h-222v105q0 389 295 389t295 -375q0 -336 -346 -928h350v-219h-600v219l39 62q25 39 88.5 152.5t112.5 220t91 241.5t44 238q0 184 -73.5 184t-73.5 -184v-105z" />
<glyph unicode="3" horiz-adv-x="686" d="M248 680h-19v184q37 2 62.5 7.5t45 14.5t31 21.5t17.5 29.5t9 39.5t3 51.5v62v43q0 45 -1 68.5t-7 58t-21.5 51t-39.5 16.5q-41 0 -52.5 -49t-13.5 -207h-217q0 70 2 115t17.5 115.5t44 112.5t84 75t135.5 33q78 0 135 -31t84.5 -71t44 -92t19.5 -79.5t3 -50.5 q0 -291 -106 -397l-2 -2q127 -100 127 -414q0 -25 -3 -58.5t-19.5 -99t-44 -116t-85 -89t-135.5 -38.5q-80 0 -136 31.5t-86 75.5t-47.5 112.5t-20.5 118t-3 112.5h217q2 -150 17.5 -203t58.5 -53q45 0 57.5 50.5t12.5 140.5q0 18 1 66t0 62.5t-4 49.5t-10 46l-18 33 q-12 22 -29.5 29t-45 15t-62.5 10z" />
<glyph unicode="4" horiz-adv-x="684" d="M367 0v328h-342v194l323 983h221v-983h103v-194h-103v-328h-202zM342 993l-129 -471h154v471v45h-13z" />
<glyph unicode="5" horiz-adv-x="704" d="M295 379q0 -115 14.5 -159t52.5 -44q37 0 52.5 45t15.5 156v336q0 111 -70 110q-33 0 -59.5 -40t-26.5 -70h-186v792h535v-219h-344v-313q8 6 21 15t47 23.5t59 12.5q78 0 133 -40t76.5 -99.5t28.5 -100.5t7 -71v-336q0 -393 -289 -393q-78 0 -133 29.5t-84.5 71.5 t-46 108.5t-20.5 119t-4 125.5h221v-59z" />
<glyph unicode="6" horiz-adv-x="700" d="M643 616v-307q0 -41 -8 -84t-34 -103.5t-89 -99t-157.5 -38.5t-158 38.5t-89 99t-33.5 103.5t-8 84v856q0 356 288.5 356.5t288.5 -356.5v-94h-221q0 162 -11.5 210t-56.5 48q-39 0 -53 -37t-14 -127v-268q59 37 110 37q80 0 133.5 -36t76 -93t29.5 -101.5t7 -87.5z M287 244q0 -20 17.5 -44t49.5 -24q31 0 49.5 24.5t18.5 43.5v450q0 18 -18.5 43t-49 25t-48 -20.5t-19.5 -41.5v-456z" />
<glyph unicode="7" horiz-adv-x="589" d="M115 0l225 1286h-332v219h557v-221l-221 -1284h-229z" />
<glyph unicode="8" horiz-adv-x="696" d="M643 498v-176q0 -25 -2 -52.5t-18.5 -83t-45 -96.5t-88 -73.5t-141.5 -32.5t-141.5 32.5t-88 73.5t-45 96.5t-18.5 83t-2 52.5v176q0 188 115 297q-102 102 -102 276v127q0 23 2 49.5t18 79.5t43 93t84 71t135 31t135.5 -31t84 -71t43 -93t18.5 -79.5t2 -49.5v-127 q0 -174 -103 -276q115 -109 115 -297zM428 410q0 152 -13.5 209t-66.5 57t-66.5 -57.5t-13.5 -208.5q2 -127 17.5 -175.5t62.5 -48.5q37 0 54.5 30t21.5 71t4 123zM414 1120q0 113 -12.5 160t-53.5 47q-37 0 -50 -44t-15 -163q0 -127 12 -177t53 -50t53.5 50t12.5 177z" />
<glyph unicode="9" horiz-adv-x="700" d="M57 903v293q0 41 8.5 84t34 103.5t89 99.5t157.5 39t157.5 -39t89 -99.5t34 -103.5t8.5 -84v-856q0 -356 -289 -356t-289 356v94h222q0 -162 11 -210t56 -48q39 0 53.5 37t14.5 127v283q-59 -37 -111 -37q-80 0 -133 35.5t-75.5 93t-30 101.5t-7.5 87zM414 819v443 q0 20 -17.5 43.5t-50.5 23.5q-31 0 -49 -24.5t-18 -42.5v-437q0 -18 18 -42.5t49 -24.5t48.5 20.5t19.5 40.5z" />
<glyph unicode=":" horiz-adv-x="362" d="M74 0v227h215v-227h-215zM74 893v227h215v-227h-215z" />
<glyph unicode=";" horiz-adv-x="362" d="M74 893v227h215v-227h-215zM289 227v-227l-113 -266h-102l71 266h-71v227h215z" />
<glyph unicode="&#x3c;" horiz-adv-x="1058" d="M74 649v160l911 475v-199l-698 -356l698 -356v-199z" />
<glyph unicode="=" horiz-adv-x="1058" d="M74 477v172h911v-172h-911zM74 864v172h911v-172h-911z" />
<glyph unicode="&#x3e;" horiz-adv-x="1058" d="M985 809v-160l-911 -475v199l698 356l-698 356v199z" />
<glyph unicode="?" horiz-adv-x="645" d="M199 227v-227h215v227h-215zM401 406h-190v256q0 102 24.5 195t48 140t64.5 117q43 72 53 113q6 27 -11 60.5t-56 33.5q-47 2 -82 -47t-49 -98l-178 84q12 33 33.5 68.5t59.5 81.5t96 76t124 27q82 -2 138 -33.5t82 -81.5t36 -91t10 -80q0 -82 -80 -219l-57 -96 q-18 -32 -42 -106.5t-24 -143.5v-256z" />
<glyph unicode="@" horiz-adv-x="872" d="M815 1192v-793h-164l-20 56q-4 -8 -11.5 -19.5t-37 -30t-64.5 -18.5q-145 0 -145 172v485q0 170 145 170q35 0 63.5 -17t39.5 -34l10 -16v45q0 51 -45 104.5t-145.5 53.5t-145.5 -53.5t-45 -104.5v-889q0 -53 44 -103t146 -50q117 0 168 63l152 -86q-109 -143 -320 -143 q-106 0 -184 35.5t-117 90t-56 103.5t-17 90v889q0 43 17 94t56 106.5t117 92.5t184.5 37t184 -37t116.5 -92.5t56.5 -106.5t17.5 -94zM631 573v455q0 53 -49 53q-47 0 -47 -53v-455q0 -53 47 -53q49 0 49 53z" />
<glyph unicode="A" horiz-adv-x="765" d="M236 0h-216l228 1505h270l227 -1505h-215l-41 307h-213zM459 541l-64 475l-6 39h-12l-6 -39l-64 -475h152z" />
<glyph unicode="B" horiz-adv-x="745" d="M354 0h-272v1505h194q205 0 304.5 -91t99.5 -308q0 -106 -29.5 -175t-107.5 -136q6 -2 16 -9.5t37 -35t47.5 -65.5t36.5 -106.5t16 -152.5q0 -414 -342 -426zM467 451q0 82 -16.5 134t-46 70.5t-48 22.5t-45.5 4h-8v-463q74 0 109 31q55 56 55 201zM467 1085.5 q0 59.5 -14.5 100.5t-30.5 60.5t-45 28.5t-40 10t-34 1v-401q23 0 34 1t40 10t45 28.5t30.5 60.5t14.5 100.5z" />
<glyph unicode="C" horiz-adv-x="708" d="M451 516h206v-207q0 -12 -2 -34.5t-17 -79t-43 -99.5t-88.5 -77.5t-144 -34.5t-144 33.5t-88.5 81.5t-43 95.5t-17 79.5l-2 35v887q0 12 2 34.5t17 79t43 99.5t88.5 78t144 35t144 -34t88.5 -81t43 -95t17 -83l2 -33v-207h-206v207q-2 0 0 11.5t-3.5 27.5t-12.5 32.5 t-24.5 28t-43.5 11.5q-70 -10 -78 -111v-887q0 -12 2 -30.5t21.5 -49t54.5 -30.5q41 0 62.5 27.5t21.5 56.5v26v207z" />
<glyph unicode="D" horiz-adv-x="761" d="M696 751.5q0 -141.5 -3 -228.5t-12 -176t-28.5 -138t-50.5 -95t-80 -67.5t-112.5 -34t-153.5 -12.5h-174v1505h174q90 0 153.5 -12t112.5 -33.5t80 -67.5t50.5 -95.5t28.5 -139.5t12 -177t3 -228.5zM303 1284v-1063q117 0 141 81q23 75 23 396v55.5v55.5q0 322 -23 395 q-24 80 -141 80z" />
<glyph unicode="E" horiz-adv-x="628" d="M82 0v1505h506v-227h-285v-395h205v-242h-205v-414h285v-227h-506z" />
<glyph unicode="F" horiz-adv-x="616" d="M608 1505v-227h-305v-395h205v-228h-205v-655h-221v1505h526z" />
<glyph unicode="G" horiz-adv-x="737" d="M657 965h-221v231q0 12 -1 30.5t-19.5 49.5t-53 31t-53 -28t-18.5 -54l-2 -29v-905q0 -12 1 -30.5t19.5 -49.5t53 -31t53 28t18.5 54l2 29v272h-88v187h309v-750h-131l-26 72q-70 -88 -172 -88q-203 0 -250 213q-11 48 -11 89q0 12 1 23v887q0 12 2 34.5t17 79t43 99.5 t88.5 78t144 35t144 -34t88.5 -81t43 -95t17 -83l2 -33v-231z" />
<glyph unicode="H" horiz-adv-x="778" d="M475 0v655h-172v-655h-221v1505h221v-622h172v622h221v-1505h-221z" />
<glyph unicode="I" horiz-adv-x="385" d="M82 0v1505h221v-1505h-221z" />
<glyph unicode="J" horiz-adv-x="423" d="M12 -14v217q4 0 12.5 -1t29 2t35.5 12t28.5 34.5t13.5 62.5v1192h221v-1226q0 -137 -79 -221q-70 -74 -222 -73q-19 0 -39 1z" />
<glyph unicode="K" horiz-adv-x="768" d="M82 1505h221v-501v-25h8l11 25l184 501h215l-203 -495l230 -1010h-216l-153 655l-6 31h-6l-13 -31l-51 -123v-532h-221v1505z" />
<glyph unicode="L" horiz-adv-x="604" d="M82 0v1505h221v-1300h293v-205h-514z" />
<glyph unicode="M" horiz-adv-x="991" d="M543 0h-94l-142 946l-8 64h-12v-64v-946h-205v1505h270l131 -688l11 -80h4l10 80l131 688h270v-1505h-204v946v64h-13l-8 -64z" />
<glyph unicode="N" horiz-adv-x="808" d="M530 0l-215 784l-18 70h-12v-70v-784h-203v1505h197l215 -784l18 -70h12v70v784h203v-1505h-197z" />
<glyph unicode="O" horiz-adv-x="724" d="M657 309q0 -12 -2 -34.5t-17 -79t-43 -99.5t-88.5 -77.5t-144 -34.5t-144 33.5t-88.5 81.5t-43 95.5t-17 79.5l-2 35v887q0 12 2 34.5t17 79t43 99.5t88.5 78t144 35t144 -34t88.5 -81t43 -95t17 -83l2 -33v-887zM436 1196q0 12 -1 30.5t-19.5 49.5t-53 31t-53 -28 t-18.5 -54l-2 -29v-887q0 -12 1 -30.5t19.5 -49t53 -30.5t53 27.5t18.5 56.5l2 26v887z" />
<glyph unicode="P" horiz-adv-x="720" d="M82 0v1505h221q166 0 277.5 -105.5t111.5 -345t-111.5 -346t-277.5 -106.5v-602h-221zM303 1280v-453q102 0 134 45.5t32 174.5q0 131 -33 182t-133 51z" />
<glyph unicode="Q" horiz-adv-x="729" d="M657 309q0 -94 -45 -182q33 -43 88 -53v-189q-160 0 -227 117q-55 -18 -111 -18q-84 0 -144 33.5t-88 81.5t-43 95.5t-17 79.5l-2 35v887q0 12 2 34.5t17 79t43 99.5t88.5 78t144 35t144 -34t88.5 -81t43 -95t17 -83l2 -33v-887zM436 1196q0 12 -1 30.5t-19.5 49.5 t-53 31t-53 -28t-18.5 -54l-2 -29v-887q0 -12 1 -30.5t19.5 -49t53 -30.5t53 27.5t18.5 56.5l2 26v887z" />
<glyph unicode="R" horiz-adv-x="739" d="M698 0h-221l-115 635h-59v-635h-221v1505h221q377 0 377 -434q0 -258 -123 -342zM467 1063q0 76 -15.5 125t-45 68.5t-51 24.5t-52.5 5v-446q31 0 52.5 5t51 24.5t45 68.5t15.5 125z" />
<glyph unicode="S" horiz-adv-x="702" d="M68 1169q0 139 71.5 245t216.5 108h10q88 0 150 -35q66 -37 95.5 -101.5t42 -127t12.5 -136.5l-217 -20q0 217 -89 217q-76 -2 -75 -150q0 -18 4 -39.5t10 -39t18.5 -43t20.5 -40t28 -43.5l28 -43l33 -48l32 -46l104 -159q31 -49 67 -139.5t36 -166.5q0 -379 -308 -378 q-82 0 -142 25.5t-94 63.5t-53.5 99t-25.5 117.5t-6 132.5l217 20q0 -256 104 -256q90 0 91 166q0 29 -8.5 59.5t-32 73.5t-36.5 64l-54 79q-40 58 -48 72q-66 96 -102.5 158t-68 148.5t-31.5 162.5z" />
<glyph unicode="T" horiz-adv-x="647" d="M213 1278h-209v227h639v-227h-209v-1278h-221v1278z" />
<glyph unicode="U" horiz-adv-x="749" d="M449 1505h221v-1196q0 -12 -2 -34.5t-17.5 -79t-43 -99.5t-88 -77.5t-144.5 -34.5t-144.5 33.5t-88 81.5t-43 95.5t-17.5 79.5l-2 35v1196h221v-1196q0 -12 1 -30.5t19.5 -49t53.5 -30.5t53 27.5t18 56.5l3 26v1196z" />
<glyph unicode="V" horiz-adv-x="716" d="M373 678l110 827h215l-229 -1505h-221l-230 1505h215l111 -827l8 -64h13z" />
<glyph unicode="W" horiz-adv-x="1036" d="M502 713l-103 -713h-172l-202 1505h204l88 -782l5 -49h16l6 49l94 782h160l94 -782l6 -49h17l4 49l88 782h205l-203 -1505h-172l-102 713l-13 88h-8z" />
<glyph unicode="X" horiz-adv-x="737" d="M360 449l-127 -449h-217l244 791l-240 714h218l120 -381l7 -18h8l6 18l121 381h217l-240 -714l244 -791h-217l-127 449l-4 18h-8z" />
<glyph unicode="Y" horiz-adv-x="700" d="M231 1505l111 -481l6 -14h4l6 14l111 481h217l-225 -864v-641h-221v641l-226 864h217z" />
<glyph unicode="Z" horiz-adv-x="626" d="M20 0v238l347 1048h-297v219h536v-219l-352 -1067h352v-219h-586z" />
<glyph unicode="[" horiz-adv-x="538" d="M481 1505v-196h-202v-1325h202v-197h-399v197v1521h399z" />
<glyph unicode="\" horiz-adv-x="792" d="M170 1692l614 -1872h-168l-608 1872h162z" />
<glyph unicode="]" horiz-adv-x="538" d="M57 1309v196h400v-1521v-197h-400v197h203v1325h-203z" />
<glyph unicode="^" horiz-adv-x="1101" d="M434 1505h234l381 -696h-199l-299 543l-299 -543h-199z" />
<glyph unicode="_" horiz-adv-x="1210" d="M74 -326v172h1063v-172h-1063z" />
<glyph unicode="`" horiz-adv-x="1024" d="M293 1489h215l106 -184h-159z" />
<glyph unicode="a" horiz-adv-x="681" d="M252 291q0 -104 57 -105q35 0 60.5 19.5t25.5 48.5v287q-143 -62 -143 -250zM49 260q0 106 34 187t83 124t98 73t88 50.5t43 36.5v37v86q0 102 -57 102q-20 0 -32.5 -9t-17.5 -32.5t-7 -37t-2 -47.5v-39h-207v47q0 123 80.5 211t197.5 88q102 0 177 -74t75 -180v-351 v-337q0 -109 14 -195h-202q-18 20 -19 90h-14q-20 -37 -65.5 -71.5t-100.5 -34.5q-59 0 -112.5 60t-53.5 216z" />
<glyph unicode="b" horiz-adv-x="686" d="M82 0v1505h207v-458q88 90 164 90q78 0 118.5 -69t40.5 -150v-715q0 -82 -41 -150.5t-118 -68.5q-33 0 -74 22.5t-66 44.5l-24 23v-74h-207zM289 246q0 -29 19.5 -48.5t42 -19.5t39 19.5t16.5 48.5v628q0 29 -16.5 48.5t-39 19.5t-42 -21.5t-19.5 -46.5v-628z" />
<glyph unicode="c" horiz-adv-x="645" d="M272 862v-604q0 -90 58 -90q35 0 47 19.5t12 70.5v156h207v-109q0 -180 -64.5 -250.5t-201.5 -70.5q-264 0 -264 331v490q0 332 264 332q137 0 201.5 -71t64.5 -251v-88h-207v135q0 51 -12 70.5t-47 19.5q-58 0 -58 -90z" />
<glyph unicode="d" horiz-adv-x="686" d="M604 1505v-1505h-207v74q-88 -90 -164 -90q-78 0 -118.5 68.5t-40.5 150.5v715q0 82 41 150.5t118 68.5q33 0 74 -22.5t66 -45.5l24 -22v458h207zM397 246v628q0 25 -19.5 46.5t-42 21.5t-38.5 -19.5t-16 -48.5v-628q0 -29 16 -48.5t38.5 -19.5t42 19.5t19.5 48.5z" />
<glyph unicode="e" horiz-adv-x="659" d="M408 401h192v-129q0 -12 -2 -31.5t-16.5 -68.5t-39 -88t-79.5 -69.5t-131 -30.5q-74 0 -129.5 30.5t-80 73.5t-38.5 86t-16 74l-2 31v563q0 12 2 31.5t16 70.5t40 90t81 71t129 32q199 0 252 -197q14 -51 14 -92v-326h-342v-243v-13q0 -8 4 -27.5t11.5 -34t23.5 -26.5 t37 -12q70 10 74 113v122zM258 842v-158h150v158q0 12 -1 31.5t-19.5 51t-53.5 31.5q-33 0 -52.5 -28.5t-21.5 -57.5z" />
<glyph unicode="f" horiz-adv-x="475" d="M332 0h-207v934h-105v186h105v17v14q0 51 2 84t14.5 92t35 94t70.5 63.5t115 28.5l97 -14v-178q-27 8 -62 8q-66 0 -65 -180v-16v-13h104v-186h-104v-934z" />
<glyph unicode="g" horiz-adv-x="700" d="M588 858v-317q0 -10 -2 -29.5t-17.5 -67t-40 -84t-79 -66.5t-127.5 -30q-27 0 -39 2q-29 -25 -29 -51q0 -16 11 -28.5t42 -20.5t45.5 -10t59.5 -11q57 -8 101 -21t89 -41t70.5 -78t25.5 -120q0 -152 -103 -219t-251 -67q-164 4 -248 52t-84 165q0 94 162 170 q-125 35 -125 149q0 45 40 93t89 75q-51 35 -80.5 95.5t-34.5 105.5l-4 43v305q0 12 2 30.5t16.5 67.5t39 87t79 69t126.5 31q135 0 206 -103q102 102 170 103v-185q-72 0 -120 -24zM385 844q-2 0 0 10t-2 25.5t-9 31t-18.5 25.5t-33.5 10q-29 0 -44.5 -25.5t-15.5 -52.5 v-24v-307v-28q0 -17 15.5 -45t44.5 -28q63 6 63 101v307zM506 -152q0 33 -20.5 50.5t-90.5 29.5l-106 21q-76 -43 -76 -99q0 -78 135 -77q59 0 108.5 19t49.5 56z" />
<glyph unicode="h" d="M356 936q-41 0 -67 -53v-883h-207v1505h207v-479l32 32q30 30 66.5 54.5t69.5 24.5q76 0 115.5 -69t39.5 -150v-918h-206v887q-1 49 -50 49z" />
<glyph unicode="i" horiz-adv-x="370" d="M289 0h-207v1120h207v-1120zM82 1298v207h207v-207h-207z" />
<glyph unicode="j" horiz-adv-x="364" d="M76 1298v207h207v-207h-207zM76 1120h207v-1149q0 -51 -2 -83.5t-14.5 -90t-35 -92.5t-70.5 -62.5t-116 -27.5q-29 0 -51.5 3t-30.5 5l-8 4v191q29 -8 57 -8q64 0 64 142v10.5v10.5v1147z" />
<glyph unicode="k" horiz-adv-x="641" d="M82 1505h207v-678v-36h10l12 36l101 293h186l-149 -364l188 -756h-199l-102 453l-4 16h-10l-7 -16l-26 -66v-387h-207v1505z" />
<glyph unicode="l" horiz-adv-x="370" d="M289 0h-207v1505h207v-1505z" />
<glyph unicode="m" horiz-adv-x="1021" d="M694 936q-41 0 -78 -53v-883h-194v887q0 49 -55 49q-41 0 -78 -53v-883h-207v1120h207v-94q2 0 32.5 30.5t68.5 55.5t71 25q100 0 139 -125l43 41t76 60.5t69 23.5q76 0 116 -69t40 -150v-918h-194v887q-1 49 -56 49z" />
<glyph unicode="n" d="M356 936q-41 0 -67 -53v-883h-207v1120h207v-94l32 32q30 30 66.5 54.5t69.5 24.5q76 0 115.5 -69t39.5 -150v-918h-206v887q-1 49 -50 49z" />
<glyph unicode="o" horiz-adv-x="657" d="M594 848v-576q0 -12 -1 -31.5t-15.5 -68.5t-40 -88t-80 -69.5t-129.5 -30.5q-74 0 -129.5 30.5t-80 73.5t-38.5 86t-14 74l-3 31v563q0 12 1.5 31.5t15.5 70.5t38.5 90t80 71t129.5 32q199 0 252 -197q14 -51 14 -92zM399 842q-1 1 -0.5 4t1 8.5t0.5 6.5q0 9 -3 21 q-4 17 -10 33.5t-21.5 28.5t-37.5 12q-68 -10 -70 -114v-563q1 -1 1 -4t-1 -8.5t-1 -7.5q0 -9 3 -20q4 -17 10 -34t21.5 -28t36.5 -11q70 10 71 113v563z" />
<glyph unicode="p" horiz-adv-x="686" d="M82 -385v1505h207v-73q88 90 164 90q78 0 118.5 -69t40.5 -150v-715q0 -82 -41 -150.5t-118 -68.5q-33 0 -74 22.5t-66 44.5l-24 23v-459h-207zM289 874v-628q0 -25 19.5 -46.5t42 -21.5t39 19.5t16.5 48.5v628q0 29 -16.5 48.5t-39 19.5t-42 -19.5t-19.5 -48.5z" />
<glyph unicode="q" horiz-adv-x="686" d="M604 1120v-1505h-207v459q-88 -90 -164 -90q-78 0 -118.5 68.5t-40.5 150.5v715q0 82 41 150.5t118 68.5q33 0 74 -22.5t66 -45.5l24 -22v73h207zM397 874q0 29 -19.5 48.5t-42 19.5t-38.5 -19.5t-16 -48.5v-628q0 -29 16 -48.5t38.5 -19.5t42 21.5t19.5 46.5v628z" />
<glyph unicode="r" horiz-adv-x="503" d="M496 1137v-230q-34 11 -64 11q-56 0 -98 -37q-45 -41 -45 -103v-778h-207v1120h207v-125q8 41 58.5 91.5t148.5 50.5z" />
<glyph unicode="s" horiz-adv-x="630" d="M72 834q0 55 12 104t39 95t78 74t123 30h11q78 0 131 -26q56 -28 80.5 -79t33 -95t8.5 -103h-193q0 131 -67 131q-63 -2 -64 -131q0 -33 23.5 -73t45 -62.5t66.5 -65.5q190 -182 191 -342q0 -123 -64.5 -215t-199.5 -92q-72 0 -126.5 24.5t-85 60t-49 85t-23.5 89.5 t-5 83h192q0 -170 97 -170q72 0 71 135q0 74 -129 198q-68 66 -98.5 99t-64 101.5t-33.5 144.5z" />
<glyph unicode="t" horiz-adv-x="501" d="M125 1397h207v-277h141v-186h-141v-557q0 -184 65 -184l76 8v-203q-45 -14 -111 -14q-68 0 -115.5 28.5t-70 64.5t-35 96t-14.5 95t-2 92v574h-105v186h105v277z" />
<glyph unicode="u" d="M334 184q41 0 67 54v882h207v-1120h-207v94l-31 -32q-30 -30 -67 -54t-70 -24q-76 0 -115.5 68.5t-39.5 150.5v917h207v-887q0 -49 49 -49z" />
<glyph unicode="v" horiz-adv-x="602" d="M403 0h-204l-183 1120h201l68 -649l8 -72h16l8 72l68 649h201z" />
<glyph unicode="w" horiz-adv-x="905" d="M719 0h-172l-80 535l-10 63h-8l-11 -63l-80 -535h-172l-166 1120h189l65 -585l9 -64h12l10 64l86 585h123l86 -585l10 -64h13l8 64l65 585h189z" />
<glyph unicode="x" horiz-adv-x="618" d="M16 0l193 578l-176 542h194l74 -262l6 -31h4l6 31l74 262h195l-176 -542l192 -578h-201l-84 283l-6 30h-4l-6 -30l-84 -283h-201z" />
<glyph unicode="y" horiz-adv-x="634" d="M33 -397v184q16 -4 49 -4q61 6 97 61.5t36 122.5l-190 1153h202l82 -688l4 -57h9l4 57l82 688h202l-198 -1204q-16 -127 -94 -222t-193 -95z" />
<glyph unicode="z" horiz-adv-x="532" d="M12 0v168l285 764h-240v188h459v-168l-285 -764h285v-188h-504z" />
<glyph unicode="{" horiz-adv-x="688" d="M193 1153q0 223 96 298t342 71v-172q-135 2 -188.5 -38t-53.5 -159v-397q0 -143 -127 -221q127 -82 127 -222v-397q0 -119 53.5 -159t188.5 -38v-172q-246 -4 -342 71t-96 298v397q0 20 -8.5 47t-41 59t-82.5 34v163q72 0 102 49.5t30 90.5v397z" />
<glyph unicode="|" horiz-adv-x="356" d="M274 -512h-192v2204h192v-2204z" />
<glyph unicode="}" horiz-adv-x="688" d="M496 1153v-397q0 -23 8 -50.5t41 -58.5t82 -31v-163q-72 -4 -101.5 -52.5t-29.5 -87.5v-397q0 -223 -96.5 -298t-342.5 -71v172q135 -2 188.5 38t53.5 159v397q0 139 127 222q-127 78 -127 221v397q0 119 -53 159t-189 38v172q246 4 342.5 -71t96.5 -298z" />
<glyph unicode="~" horiz-adv-x="1280" d="M448.5 1475q-63.5 0 -113.5 -45.5t-69 -90.5l-18 -45l-135 58q4 12 12 32.5t38 73.5t64.5 94t95 74t126.5 33q55 0 111 -18.5t82 -33t83 -51.5q106 -72 174 -71q109 0 178 153l13 29l135 -57q-4 -12 -12.5 -34t-38 -75t-64.5 -93t-91 -74t-120 -34q-121 0 -272 101 q-115 74 -178.5 74z" />
<glyph unicode="&#xa1;" horiz-adv-x="387" d="M86 893v227h215v-227h-215zM74 -385l55 1100h129l55 -1100h-239z" />
<glyph unicode="&#xa2;" horiz-adv-x="636" d="M274 1567h123v-244q98 -16 144.5 -88t46.5 -227v-88h-189v135q0 90 -73 90q-72 0 -72 -90v-604q0 -90 72 -91q74 0 73 91v155h189v-108q0 -156 -46 -228.5t-145 -89.5v-303h-123v301q-209 31 -208 330v489q0 297 208 328v242z" />
<glyph unicode="&#xa3;" horiz-adv-x="817" d="M723 1120h-213q0 86 -25.5 142.5t-89.5 54.5q-47 -2 -68.5 -51t-21.5 -117q0 -113 70 -338l6 -25h211v-137h-174q25 -100 24 -174q0 -104 -57 -219q16 -8 44 -24.5t48.5 -25.5t40.5 -9q74 4 82 190l188 -22q-12 -182 -81.5 -281.5t-169.5 -99.5q-51 0 -143.5 51 t-129.5 51q-33 0 -61.5 -25.5t-40.5 -52.5l-12 -24l-146 79q8 20 23.5 53.5t70 91.5t117.5 68q37 111 37 199q0 68 -31 174h-188v137h147l-6 21q-78 254 -78 342q0 70 15.5 131t48.5 116.5t92 89.5t139 36q96 2 164 -32t103.5 -93.5t50 -127t14.5 -149.5z" />
<glyph unicode="&#xa5;" horiz-adv-x="720" d="M74 340v137h176v137h-176v138h147l-196 753h217l110 -481l6 -14h4l7 14l110 481h217l-196 -753h147v-138h-176v-137h176v-137h-176v-340h-221v340h-176z" />
<glyph unicode="&#xa8;" horiz-adv-x="1024" d="M272 1305v200h191v-200h-191zM561 1305v200h191v-200h-191z" />
<glyph unicode="&#xa9;" horiz-adv-x="1644" d="M53 751.5q0 317.5 225.5 544t543 226.5t543.5 -226.5t226 -544t-226 -542.5t-543.5 -225t-543 225t-225.5 542.5zM870 612h138v-125q0 -8 -1 -21t-11.5 -47t-28 -59.5t-56.5 -47t-92 -21.5q-86 0 -134 49t-54 98l-4 49v531q0 8 1 21.5t11 47t27.5 59t57.5 47t95 21.5 q147 0 182 -147l7 -49v-125h-138v125v17q0 11 -12 28.5t-37 17.5q-47 -2 -49 -63v-531q0 -63 49 -63q53 2 49 63v125zM172 751.5q0 -266.5 191.5 -458t457.5 -191.5t459 191.5t193 458.5q0 268 -191.5 459.5t-460.5 191.5q-266 0 -457.5 -192.5t-191.5 -459z" />
<glyph unicode="&#xaa;" horiz-adv-x="681" d="M252 291q0 -104 57 -105q35 0 60.5 19.5t25.5 48.5v287q-143 -62 -143 -250zM49 260q0 106 34 187t83 124t98 73t88 50.5t43 36.5v37v86q0 102 -57 102q-20 0 -32.5 -9t-17.5 -32.5t-7 -37t-2 -47.5v-39h-207v47q0 123 80.5 211t197.5 88q102 0 177 -74t75 -180v-351 v-337q0 -109 14 -195h-202q-18 20 -19 90h-14q-20 -37 -65.5 -71.5t-100.5 -34.5q-59 0 -112.5 60t-53.5 216z" />
<glyph unicode="&#xad;" horiz-adv-x="444" d="M74 455v194h297v-194h-297z" />
<glyph unicode="&#xae;" horiz-adv-x="1644" d="M625 1192h196q231 0 232 -258q0 -76 -16.5 -125t-71.5 -96l106 -400h-151l-95 365h-55v-365h-145v879zM815 1063h-45v-258h45q43 0 65.5 21.5t27.5 45t5 60.5q0 39 -5 63.5t-27.5 46t-65.5 21.5zM53 751.5q0 317.5 225.5 544t543 226.5t543.5 -226.5t226 -544 t-226 -542.5t-543.5 -225t-543 225t-225.5 542.5zM172 751.5q0 -266.5 191.5 -458t457.5 -191.5t459 191.5t193 458.5q0 268 -191.5 459.5t-460.5 191.5q-266 0 -457.5 -192.5t-191.5 -459z" />
<glyph unicode="&#xaf;" horiz-adv-x="1024" d="M313 1315v162h398v-162h-398z" />
<glyph unicode="&#xb2;" horiz-adv-x="731" d="M283 1028h-222v105q0 389 295 389t295 -375q0 -336 -346 -928h350v-219h-600v219l39 62q25 39 88.5 152.5t112.5 220t91 241.5t44 238q0 184 -73.5 184t-73.5 -184v-105z" />
<glyph unicode="&#xb3;" horiz-adv-x="686" d="M248 680h-19v184q37 2 62.5 7.5t45 14.5t31 21.5t17.5 29.5t9 39.5t3 51.5v62v43q0 45 -1 68.5t-7 58t-21.5 51t-39.5 16.5q-41 0 -52.5 -49t-13.5 -207h-217q0 70 2 115t17.5 115.5t44 112.5t84 75t135.5 33q78 0 135 -31t84.5 -71t44 -92t19.5 -79.5t3 -50.5 q0 -291 -106 -397l-2 -2q127 -100 127 -414q0 -25 -3 -58.5t-19.5 -99t-44 -116t-85 -89t-135.5 -38.5q-80 0 -136 31.5t-86 75.5t-47.5 112.5t-20.5 118t-3 112.5h217q2 -150 17.5 -203t58.5 -53q45 0 57.5 50.5t12.5 140.5q0 18 1 66t0 62.5t-4 49.5t-10 46l-18 33 q-12 22 -29.5 29t-45 15t-62.5 10z" />
<glyph unicode="&#xb4;" horiz-adv-x="1024" d="M516 1489h215l-162 -184h-159z" />
<glyph unicode="&#xb7;" horiz-adv-x="215" d="M0 649v228h215v-228h-215z" />
<glyph unicode="&#xb8;" horiz-adv-x="1024" d="M598 -111v-141l-45 -133h-104l40 133h-63v141h172z" />
<glyph unicode="&#xb9;" horiz-adv-x="475" d="M172 1180h-147v141q51 10 94 32.5t68.5 48t43 49.5t23.5 40l6 14h133v-1505h-221v1180z" />
<glyph unicode="&#xba;" horiz-adv-x="657" d="M594 848v-576q0 -12 -1 -31.5t-15.5 -68.5t-40 -88t-80 -69.5t-129.5 -30.5q-74 0 -129.5 30.5t-80 73.5t-38.5 86t-14 74l-3 31v563q0 12 1.5 31.5t15.5 70.5t38.5 90t80 71t129.5 32q199 0 252 -197q14 -51 14 -92zM399 842q-1 1 -0.5 4t1 8.5t0.5 6.5q0 9 -3 21 q-4 17 -10 33.5t-21.5 28.5t-37.5 12q-68 -10 -70 -114v-563q1 -1 1 -4t-1 -8.5t-1 -7.5q0 -9 3 -20q4 -17 10 -34t21.5 -28t36.5 -11q70 10 71 113v563z" />
<glyph unicode="&#xbf;" horiz-adv-x="645" d="M446 1120v-227h-215v227h215zM244 715h190v-256q0 -102 -24.5 -195.5t-48 -140.5t-64.5 -117q-43 -72 -53 -112q-6 -27 11 -61t56 -34q47 -2 82 47.5t49 98.5l179 -84q-12 -33 -34 -69t-60 -82t-96 -75.5t-124 -27.5q-82 2 -138 33.5t-82 82t-36 91.5t-10 80q0 82 80 219 l57 95q18 32 42 106.5t24 144.5v256z" />
<glyph unicode="&#xc0;" horiz-adv-x="765" d="M236 0h-216l228 1505h270l227 -1505h-215l-41 307h-213zM459 541l-64 475l-6 39h-12l-6 -39l-64 -475h152zM141 1823h215l107 -185h-160z" />
<glyph unicode="&#xc1;" horiz-adv-x="765" d="M236 0h-216l228 1505h270l227 -1505h-215l-41 307h-213zM459 541l-64 475l-6 39h-12l-6 -39l-64 -475h152zM399 1823h215l-161 -185h-160z" />
<glyph unicode="&#xc2;" horiz-adv-x="765" d="M236 0h-216l228 1505h270l227 -1505h-215l-41 307h-213zM459 541l-64 475l-6 39h-12l-6 -39l-64 -475h152zM274 1823h220l141 -185h-189l-63 72l-61 -72h-189z" />
<glyph unicode="&#xc3;" horiz-adv-x="765" d="M236 0h-216l228 1505h270l227 -1505h-215l-41 307h-213zM459 541l-64 475l-6 39h-12l-6 -39l-64 -475h152zM293 1665q-25 0 -52.5 -8t-41.5 -17l-15 -8v152q49 39 109 39q33 0 91 -18.5t89 -20.5q25 0 52.5 8t41.5 16l15 9v-152q-51 -39 -109 -39q-31 0 -89 19.5 t-91 19.5z" />
<glyph unicode="&#xc4;" horiz-adv-x="765" d="M236 0h-216l228 1505h270l227 -1505h-215l-41 307h-213zM459 541l-64 475l-6 39h-12l-6 -39l-64 -475h152zM143 1638v201h191v-201h-191zM432 1638v201h191v-201h-191z" />
<glyph unicode="&#xc5;" horiz-adv-x="765" d="M236 0h-216l228 1505h270l227 -1505h-215l-41 307h-213zM459 541l-64 475l-6 39h-12l-6 -39l-64 -475h152zM231 1761.5q0 61.5 45.5 102.5t109 41t107.5 -41t44 -102.5t-44 -102.5t-107.5 -41t-109 41t-45.5 102.5zM309 1761.5q0 -28.5 23.5 -50t52.5 -21.5t52.5 21.5 t23.5 50t-23.5 50t-52.5 21.5t-52.5 -21.5t-23.5 -50z" />
<glyph unicode="&#xc6;" horiz-adv-x="1099" d="M553 0v307h-227l-90 -307h-220l420 1505h623v-227h-285v-395h205v-242h-205v-414h285v-227h-506zM543 1055l-150 -514h160v514h-10z" />
<glyph unicode="&#xc7;" horiz-adv-x="708" d="M451 516h206v-207q0 -12 -2 -34.5t-17 -79t-43 -99.5t-88.5 -77.5t-144 -34.5t-144 33.5t-88.5 81.5t-43 95.5t-17 79.5l-2 35v887q0 12 2 34.5t17 79t43 99.5t88.5 78t144 35t144 -34t88.5 -81t43 -95t17 -83l2 -33v-207h-206v207q-2 0 0 11.5t-3.5 27.5t-12.5 32.5 t-24.5 28t-43.5 11.5q-70 -10 -78 -111v-887q0 -12 2 -30.5t21.5 -49t54.5 -30.5q41 0 62.5 27.5t21.5 56.5v26v207zM440 -252v141h-172v-141h64l-41 -133h104z" />
<glyph unicode="&#xc8;" horiz-adv-x="628" d="M82 0v1505h506v-227h-285v-395h205v-242h-205v-414h285v-227h-506zM111 1823h215l106 -185h-160z" />
<glyph unicode="&#xc9;" horiz-adv-x="628" d="M82 0v1505h506v-227h-285v-395h205v-242h-205v-414h285v-227h-506zM342 1823h215l-162 -185h-159z" />
<glyph unicode="&#xca;" horiz-adv-x="628" d="M82 0v1505h506v-227h-285v-395h205v-242h-205v-414h285v-227h-506zM225 1823h219l142 -185h-189l-63 72l-62 -72h-188z" />
<glyph unicode="&#xcb;" horiz-adv-x="628" d="M82 0v1505h506v-227h-285v-395h205v-242h-205v-414h285v-227h-506zM94 1638v201h191v-201h-191zM383 1638v201h190v-201h-190z" />
<glyph unicode="&#xcc;" horiz-adv-x="401" d="M98 0v1505h221v-1505h-221zM-6 1823h215l106 -185h-159z" />
<glyph unicode="&#xcd;" horiz-adv-x="401" d="M82 0v1505h221v-1505h-221zM193 1823h215l-162 -185h-160z" />
<glyph unicode="&#xce;" horiz-adv-x="370" d="M74 0v1505h221v-1505h-221zM76 1823h219l141 -185h-188l-64 72l-61 -72h-189z" />
<glyph unicode="&#xcf;" horiz-adv-x="372" d="M76 0v1505h221v-1505h-221zM-53 1638v201h190v-201h-190zM236 1638v201h190v-201h-190z" />
<glyph unicode="&#xd0;" horiz-adv-x="761" d="M20 655v228h62v622h174q90 0 153.5 -12t112.5 -33.5t80 -67.5t50.5 -95.5t28.5 -139.5t12 -177t3 -228.5t-3 -228.5t-12 -176t-28.5 -138t-50.5 -95t-80 -67.5t-112.5 -34t-153.5 -12.5h-174v655h-62zM303 1284v-401h84v-228h-84v-434q117 0 141.5 81t22.5 452 q2 371 -22.5 450.5t-141.5 79.5z" />
<glyph unicode="&#xd1;" horiz-adv-x="808" d="M530 0l-215 784l-18 70h-12v-70v-784h-203v1505h197l215 -784l18 -70h12v70v784h203v-1505h-197zM315 1665q-25 0 -52 -8t-42 -17l-14 -8v152q49 39 108 39q33 0 91.5 -18.5t89.5 -20.5q25 0 52 8t42 16l14 9v-152q-51 -39 -108 -39q-31 0 -89.5 19.5t-91.5 19.5z" />
<glyph unicode="&#xd2;" horiz-adv-x="724" d="M657 309q0 -12 -2 -34.5t-17 -79t-43 -99.5t-88.5 -77.5t-144 -34.5t-144 33.5t-88.5 81.5t-43 95.5t-17 79.5l-2 35v887q0 12 2 34.5t17 79t43 99.5t88.5 78t144 35t144 -34t88.5 -81t43 -95t17 -83l2 -33v-887zM436 1196q0 12 -1 30.5t-19.5 49.5t-53 31t-53 -28 t-18.5 -54l-2 -29v-887q0 -12 1 -30.5t19.5 -49t53 -30.5t53 27.5t18.5 56.5l2 26v887zM121 1823h215l106 -185h-159z" />
<glyph unicode="&#xd3;" horiz-adv-x="724" d="M657 309q0 -12 -2 -34.5t-17 -79t-43 -99.5t-88.5 -77.5t-144 -34.5t-144 33.5t-88.5 81.5t-43 95.5t-17 79.5l-2 35v887q0 12 2 34.5t17 79t43 99.5t88.5 78t144 35t144 -34t88.5 -81t43 -95t17 -83l2 -33v-887zM436 1196q0 12 -1 30.5t-19.5 49.5t-53 31t-53 -28 t-18.5 -54l-2 -29v-887q0 -12 1 -30.5t19.5 -49t53 -30.5t53 27.5t18.5 56.5l2 26v887zM391 1823h215l-162 -185h-159z" />
<glyph unicode="&#xd4;" horiz-adv-x="724" d="M657 309q0 -12 -2 -34.5t-17 -79t-43 -99.5t-88.5 -77.5t-144 -34.5t-144 33.5t-88.5 81.5t-43 95.5t-17 79.5l-2 35v887q0 12 2 34.5t17 79t43 99.5t88.5 78t144 35t144 -34t88.5 -81t43 -95t17 -83l2 -33v-887zM436 1196q0 12 -1 30.5t-19.5 49.5t-53 31t-53 -28 t-18.5 -54l-2 -29v-887q0 -12 1 -30.5t19.5 -49t53 -30.5t53 27.5t18.5 56.5l2 26v887zM254 1823h219l141 -185h-188l-64 72l-61 -72h-188z" />
<glyph unicode="&#xd5;" horiz-adv-x="724" d="M657 309q0 -12 -2 -34.5t-17 -79t-43 -99.5t-88.5 -77.5t-144 -34.5t-144 33.5t-88.5 81.5t-43 95.5t-17 79.5l-2 35v887q0 12 2 34.5t17 79t43 99.5t88.5 78t144 35t144 -34t88.5 -81t43 -95t17 -83l2 -33v-887zM436 1196q0 12 -1 30.5t-19.5 49.5t-53 31t-53 -28 t-18.5 -54l-2 -29v-887q0 -12 1 -30.5t19.5 -49t53 -30.5t53 27.5t18.5 56.5l2 26v887zM272 1665q-25 0 -52 -8t-42 -17l-14 -8v152q49 39 108 39q33 0 91.5 -18.5t89.5 -20.5q25 0 52 8t42 16l14 9v-152q-51 -39 -108 -39q-31 0 -89.5 19.5t-91.5 19.5z" />
<glyph unicode="&#xd6;" horiz-adv-x="724" d="M657 309q0 -12 -2 -34.5t-17 -79t-43 -99.5t-88.5 -77.5t-144 -34.5t-144 33.5t-88.5 81.5t-43 95.5t-17 79.5l-2 35v887q0 12 2 34.5t17 79t43 99.5t88.5 78t144 35t144 -34t88.5 -81t43 -95t17 -83l2 -33v-887zM436 1196q0 12 -1 30.5t-19.5 49.5t-53 31t-53 -28 t-18.5 -54l-2 -29v-887q0 -12 1 -30.5t19.5 -49t53 -30.5t53 27.5t18.5 56.5l2 26v887zM123 1638v201h190v-201h-190zM412 1638v201h190v-201h-190z" />
<glyph unicode="&#xd8;" horiz-adv-x="724" d="M188 -20h-129l47 157q-18 37 -27 80t-9 68l-2 24v887q0 12 2 34.5t17 79t43 99.5t88.5 78t143.5 35q92 0 158 -43l15 47h122l-45 -150q20 -39 31.5 -84t11.5 -71l2 -25v-887q0 -12 -2 -34.5t-17 -79t-43 -99.5t-88.5 -77.5t-144.5 -34.5q-96 0 -159 43zM362.5 199 q34.5 0 53 27.5t18.5 56.5l2 26v488l-147 -488q0 -12 1 -30.5t19.5 -49t53 -30.5zM289 1196v-469l147 479q-8 100 -74 101q-35 0 -53 -28t-18 -54z" />
<glyph unicode="&#xd9;" horiz-adv-x="749" d="M670 1505h-221v-1196q0 -12 -1.5 -30.5t-19.5 -49t-53 -30.5t-53.5 27.5t-18.5 56.5l-2 26v1196h-221v-1196q0 -12 2 -34.5t17.5 -79t43 -99.5t88 -77.5t144.5 -34.5t144.5 33.5t88 81.5t43 95.5t17.5 79.5l2 35v1196zM145 1823h215l107 -185h-160z" />
<glyph unicode="&#xda;" horiz-adv-x="749" d="M670 1505h-221v-1196q0 -12 -1.5 -30.5t-19.5 -49t-53 -30.5t-53.5 27.5t-18.5 56.5l-2 26v1196h-221v-1196q0 -12 2 -34.5t17.5 -79t43 -99.5t88 -77.5t144.5 -34.5t144.5 33.5t88 81.5t43 95.5t17.5 79.5l2 35v1196zM414 1823h215l-162 -185h-160z" />
<glyph unicode="&#xdb;" horiz-adv-x="749" d="M670 1505h-221v-1196q0 -12 -1.5 -30.5t-19.5 -49t-53 -30.5t-53.5 27.5t-18.5 56.5l-2 26v1196h-221v-1196q0 -12 2 -34.5t17.5 -79t43 -99.5t88 -77.5t144.5 -34.5t144.5 33.5t88 81.5t43 95.5t17.5 79.5l2 35v1196zM266 1823h219l142 -185h-189l-63 72l-62 -72h-188z " />
<glyph unicode="&#xdc;" horiz-adv-x="749" d="M449 1505h221v-1196q0 -12 -2 -34.5t-17.5 -79t-43 -99.5t-88 -77.5t-144.5 -34.5t-144.5 33.5t-88 81.5t-43 95.5t-17.5 79.5l-2 35v1196h221v-1196q0 -12 1 -30.5t19.5 -49t53.5 -30.5t53 27.5t18 56.5l3 26v1196zM135 1638v201h191v-201h-191zM424 1638v201h190v-201 h-190z" />
<glyph unicode="&#xdd;" horiz-adv-x="704" d="M344 1024l-111 481h-217l226 -864v-641h221v641l225 864h-217l-111 -481l-6 -14h-4zM360 1823h215l-161 -185h-160z" />
<glyph unicode="&#xde;" horiz-adv-x="724" d="M82 0v1505h219v-241h2q166 0 277.5 -105.5t111.5 -345.5t-111.5 -346.5t-277.5 -106.5v-360h-221zM303 1038v-452q102 0 134 45t32 174q0 131 -33 182t-133 51z" />
<glyph unicode="&#xdf;" horiz-adv-x="733" d="M346 979v141q35 0 60.5 33t25.5 84q0 45 -21.5 72.5t-64.5 27.5q-74 0 -74 -102v-1235h-206v1235q0 123 70.5 205t209.5 82q133 0 201.5 -81t68.5 -204q0 -109 -88 -174q152 -88 152 -488q0 -182 -20.5 -298.5t-66.5 -176t-102.5 -80t-144.5 -20.5v193q45 0 70.5 25.5 t41 111.5t15.5 245q0 170 -15.5 259.5t-41 117t-70.5 27.5z" />
<glyph unicode="&#xe0;" horiz-adv-x="681" d="M252 291q0 -104 57 -105q35 0 60.5 19.5t25.5 48.5v287q-143 -62 -143 -250zM49 260q0 106 34 187t83 124t98 73t88 50.5t43 36.5v37v86q0 102 -57 102q-20 0 -32.5 -9t-17.5 -32.5t-7 -37t-2 -47.5v-39h-207v47q0 123 80.5 211t197.5 88q102 0 177 -74t75 -180v-351 v-337q0 -109 14 -195h-202q-18 20 -19 90h-14q-20 -37 -65.5 -71.5t-100.5 -34.5q-59 0 -112.5 60t-53.5 216zM102 1489h215l107 -184h-160z" />
<glyph unicode="&#xe1;" horiz-adv-x="681" d="M252 291q0 -104 57 -105q35 0 60.5 19.5t25.5 48.5v287q-143 -62 -143 -250zM49 260q0 106 34 187t83 124t98 73t88 50.5t43 36.5v37v86q0 102 -57 102q-20 0 -32.5 -9t-17.5 -32.5t-7 -37t-2 -47.5v-39h-207v47q0 123 80.5 211t197.5 88q102 0 177 -74t75 -180v-351 v-337q0 -109 14 -195h-202q-18 20 -19 90h-14q-20 -37 -65.5 -71.5t-100.5 -34.5q-59 0 -112.5 60t-53.5 216zM371 1489h215l-162 -184h-160z" />
<glyph unicode="&#xe2;" horiz-adv-x="681" d="M252 291q0 -104 57 -105q35 0 60.5 19.5t25.5 48.5v287q-143 -62 -143 -250zM49 260q0 106 34 187t83 124t98 73t88 50.5t43 36.5v37v86q0 102 -57 102q-20 0 -32.5 -9t-17.5 -32.5t-7 -37t-2 -47.5v-39h-207v47q0 123 80.5 211t197.5 88q102 0 177 -74t75 -180v-351 v-337q0 -109 14 -195h-202q-18 20 -19 90h-14q-20 -37 -65.5 -71.5t-100.5 -34.5q-59 0 -112.5 60t-53.5 216zM231 1489h220l141 -184h-189l-63 71l-61 -71h-189z" />
<glyph unicode="&#xe3;" horiz-adv-x="681" d="M252 291q0 -104 57 -105q35 0 60.5 19.5t25.5 48.5v287q-143 -62 -143 -250zM49 260q0 106 34 187t83 124t98 73t88 50.5t43 36.5v37v86q0 102 -57 102q-20 0 -32.5 -9t-17.5 -32.5t-7 -37t-2 -47.5v-39h-207v47q0 123 80.5 211t197.5 88q102 0 177 -74t75 -180v-351 v-337q0 -109 14 -195h-202q-18 20 -19 90h-14q-20 -37 -65.5 -71.5t-100.5 -34.5q-59 0 -112.5 60t-53.5 216zM252 1337q-25 0 -52.5 -8t-41.5 -16l-15 -8v151q49 39 109 39q33 0 91 -18.5t89 -20.5q25 0 52.5 8.5t41.5 16.5l15 8v-152q-51 -39 -109 -39q-31 0 -89 19.5 t-91 19.5z" />
<glyph unicode="&#xe4;" horiz-adv-x="681" d="M252 291q0 -104 57 -105q35 0 60.5 19.5t25.5 48.5v287q-143 -62 -143 -250zM49 260q0 106 34 187t83 124t98 73t88 50.5t43 36.5v37v86q0 102 -57 102q-20 0 -32.5 -9t-17.5 -32.5t-7 -37t-2 -47.5v-39h-207v47q0 123 80.5 211t197.5 88q102 0 177 -74t75 -180v-351 v-337q0 -109 14 -195h-202q-18 20 -19 90h-14q-20 -37 -65.5 -71.5t-100.5 -34.5q-59 0 -112.5 60t-53.5 216zM102 1305v200h191v-200h-191zM391 1305v200h191v-200h-191z" />
<glyph unicode="&#xe5;" horiz-adv-x="681" d="M252 291q0 -104 57 -105q35 0 60.5 19.5t25.5 48.5v287q-143 -62 -143 -250zM49 260q0 106 34 187t83 124t98 73t88 50.5t43 36.5v37v86q0 102 -57 102q-20 0 -32.5 -9t-17.5 -32.5t-7 -37t-2 -47.5v-39h-207v47q0 123 80.5 211t197.5 88q102 0 177 -74t75 -180v-351 v-337q0 -109 14 -195h-202q-18 20 -19 90h-14q-20 -37 -65.5 -71.5t-100.5 -34.5q-59 0 -112.5 60t-53.5 216zM188 1421.5q0 61.5 45.5 102.5t109 41t107.5 -41t44 -102.5t-44 -102.5t-107.5 -41t-109 41t-45.5 102.5zM266 1421.5q0 -28.5 23.5 -50t52.5 -21.5t52.5 21.5 t23.5 50t-23.5 50t-52.5 21.5t-52.5 -21.5t-23.5 -50z" />
<glyph unicode="&#xe6;" horiz-adv-x="989" d="M737 401h193v-129q0 -12 -2 -31.5t-16.5 -68.5t-39 -88t-80 -69.5t-130.5 -30.5q-158 0 -226 131q-102 -131 -221 -131q-59 0 -112.5 60t-53.5 216q0 106 34 187t83 124t98 73t88 50.5t43 36.5v123q0 102 -57 102q-20 0 -32.5 -9t-17.5 -32.5t-7 -37t-2 -47.5v-39h-207 v47q0 123 80.5 211t197.5 88q84 0 152 -52q66 51 162 52q199 0 251 -197q14 -51 15 -92v-326h-342v-243v-13q0 -8 4 -27.5t11 -34t23.5 -26.5t37.5 -12q70 10 73 113v122zM252 291q0 -104 57 -105q35 0 60.5 19.5t25.5 48.5v287q-143 -62 -143 -250zM588 842v-158h149v158 q0 12 -1 31.5t-19.5 51t-52.5 31.5q-33 0 -52.5 -28.5t-21.5 -57.5z" />
<glyph unicode="&#xe7;" horiz-adv-x="645" d="M272 862v-604q0 -90 58 -90q35 0 47 19.5t12 70.5v156h207v-109q0 -180 -64.5 -250.5t-201.5 -70.5q-264 0 -264 331v490q0 332 264 332q137 0 201.5 -71t64.5 -251v-88h-207v135q0 51 -12 70.5t-47 19.5q-58 0 -58 -90zM410 -252v141h-172v-141h63l-41 -133h105z" />
<glyph unicode="&#xe8;" horiz-adv-x="659" d="M408 401h192v-129q0 -12 -2 -31.5t-16.5 -68.5t-39 -88t-79.5 -69.5t-131 -30.5q-74 0 -129.5 30.5t-80 73.5t-38.5 86t-16 74l-2 31v563q0 12 2 31.5t16 70.5t40 90t81 71t129 32q199 0 252 -197q14 -51 14 -92v-326h-342v-243v-13q0 -8 4 -27.5t11.5 -34t23.5 -26.5 t37 -12q70 10 74 113v122zM258 842v-158h150v158q0 12 -1 31.5t-19.5 51t-53.5 31.5q-33 0 -52.5 -28.5t-21.5 -57.5zM102 1489h215l107 -184h-160z" />
<glyph unicode="&#xe9;" horiz-adv-x="659" d="M408 401h192v-129q0 -12 -2 -31.5t-16.5 -68.5t-39 -88t-79.5 -69.5t-131 -30.5q-74 0 -129.5 30.5t-80 73.5t-38.5 86t-16 74l-2 31v563q0 12 2 31.5t16 70.5t40 90t81 71t129 32q199 0 252 -197q14 -51 14 -92v-326h-342v-243v-13q0 -8 4 -27.5t11.5 -34t23.5 -26.5 t37 -12q70 10 74 113v122zM258 842v-158h150v158q0 12 -1 31.5t-19.5 51t-53.5 31.5q-33 0 -52.5 -28.5t-21.5 -57.5zM371 1489h215l-162 -184h-160z" />
<glyph unicode="&#xea;" horiz-adv-x="659" d="M408 401h192v-129q0 -12 -2 -31.5t-16.5 -68.5t-39 -88t-79.5 -69.5t-131 -30.5q-74 0 -129.5 30.5t-80 73.5t-38.5 86t-16 74l-2 31v563q0 12 2 31.5t16 70.5t40 90t81 71t129 32q199 0 252 -197q14 -51 14 -92v-326h-342v-243v-13q0 -8 4 -27.5t11.5 -34t23.5 -26.5 t37 -12q70 10 74 113v122zM258 842v-158h150v158q0 12 -1 31.5t-19.5 51t-53.5 31.5q-33 0 -52.5 -28.5t-21.5 -57.5zM221 1489h219l142 -184h-189l-63 71l-62 -71h-188z" />
<glyph unicode="&#xeb;" horiz-adv-x="659" d="M408 401h192v-129q0 -12 -2 -31.5t-16.5 -68.5t-39 -88t-79.5 -69.5t-131 -30.5q-74 0 -129.5 30.5t-80 73.5t-38.5 86t-16 74l-2 31v563q0 12 2 31.5t16 70.5t40 90t81 71t129 32q199 0 252 -197q14 -51 14 -92v-326h-342v-243v-13q0 -8 4 -27.5t11.5 -34t23.5 -26.5 t37 -12q70 10 74 113v122zM258 842v-158h150v158q0 12 -1 31.5t-19.5 51t-53.5 31.5q-33 0 -52.5 -28.5t-21.5 -57.5zM90 1305v200h191v-200h-191zM379 1305v200h190v-200h-190z" />
<glyph unicode="&#xec;" horiz-adv-x="370" d="M82 0h207v1120h-207v-1120zM-33 1489h215l107 -184h-160z" />
<glyph unicode="&#xed;" horiz-adv-x="370" d="M82 0h207v1120h-207v-1120zM188 1489h215l-161 -184h-160z" />
<glyph unicode="&#xee;" horiz-adv-x="370" d="M82 0h207v1120h-207v-1120zM76 1489h219l141 -184h-188l-64 71l-61 -71h-189z" />
<glyph unicode="&#xef;" horiz-adv-x="372" d="M289 0h-207v1120h207v-1120zM-53 1305v200h190v-200h-190zM236 1305v200h190v-200h-190z" />
<glyph unicode="&#xf0;" horiz-adv-x="673" d="M270 1407l109 100q25 -27 53 -61l94 82l56 -66l-101 -88q125 -201 125 -446v-656q0 -12 -1 -31.5t-15.5 -68.5t-40 -88t-79.5 -69.5t-130 -30.5q-74 0 -129 30.5t-80 73.5t-39 86t-14 74l-2 31v579q0 279 172 279q63 0 155 -78q-12 109 -51 203l-82 -72l-55 63l100 88z M412 842q-2 0 0 11t-2 28.5t-10.5 34t-22 28.5t-37.5 12q-68 -10 -70 -114v-563q2 0 0 -11.5t2 -29t10.5 -34t21.5 -27.5t36 -11q70 10 72 113v563z" />
<glyph unicode="&#xf1;" d="M356 936q-41 0 -67 -53v-883h-207v1120h207v-94l32 32q30 30 66.5 54.5t69.5 24.5q76 0 115.5 -69t39.5 -150v-918h-206v887q-1 49 -50 49zM256 1337q-25 0 -52.5 -8t-41.5 -16l-15 -8v151q49 39 109 39q33 0 91.5 -18.5t88.5 -20.5q25 0 52.5 8.5t41.5 16.5l15 8v-152 q-51 -39 -109 -39q-31 0 -89 19.5t-91 19.5z" />
<glyph unicode="&#xf2;" horiz-adv-x="657" d="M594 848v-576q0 -12 -1 -31.5t-15.5 -68.5t-40 -88t-80 -69.5t-129.5 -30.5q-74 0 -129.5 30.5t-80 73.5t-38.5 86t-14 74l-3 31v563q0 12 1.5 31.5t15.5 70.5t38.5 90t80 71t129.5 32q199 0 252 -197q14 -51 14 -92zM399 842q-2 0 0 11t-2 28.5t-10 34t-21.5 28.5 t-37.5 12q-68 -10 -70 -114v-563q2 0 0 -11.5t2 -29t10 -34t21.5 -27.5t36.5 -11q70 10 71 113v563zM98 1489h215l107 -184h-160z" />
<glyph unicode="&#xf3;" horiz-adv-x="657" d="M594 848v-576q0 -12 -1 -31.5t-15.5 -68.5t-40 -88t-80 -69.5t-129.5 -30.5q-74 0 -129.5 30.5t-80 73.5t-38.5 86t-14 74l-3 31v563q0 12 1.5 31.5t15.5 70.5t38.5 90t80 71t129.5 32q199 0 252 -197q14 -51 14 -92zM399 842q-2 0 0 11t-2 28.5t-10 34t-21.5 28.5 t-37.5 12q-68 -10 -70 -114v-563q2 0 0 -11.5t2 -29t10 -34t21.5 -27.5t36.5 -11q70 10 71 113v563zM367 1489h215l-162 -184h-160z" />
<glyph unicode="&#xf4;" horiz-adv-x="657" d="M594 848v-576q0 -12 -1 -31.5t-15.5 -68.5t-40 -88t-80 -69.5t-129.5 -30.5q-74 0 -129.5 30.5t-80 73.5t-38.5 86t-14 74l-3 31v563q0 12 1.5 31.5t15.5 70.5t38.5 90t80 71t129.5 32q199 0 252 -197q14 -51 14 -92zM399 842q-2 0 0 11t-2 28.5t-10 34t-21.5 28.5 t-37.5 12q-68 -10 -70 -114v-563q2 0 0 -11.5t2 -29t10 -34t21.5 -27.5t36.5 -11q70 10 71 113v563zM219 1489h219l142 -184h-189l-63 71l-62 -71h-188z" />
<glyph unicode="&#xf5;" horiz-adv-x="657" d="M594 848v-576q0 -12 -1 -31.5t-15.5 -68.5t-40 -88t-80 -69.5t-129.5 -30.5q-74 0 -129.5 30.5t-80 73.5t-38.5 86t-14 74l-3 31v563q0 12 1.5 31.5t15.5 70.5t38.5 90t80 71t129.5 32q199 0 252 -197q14 -51 14 -92zM399 842q-2 0 0 11t-2 28.5t-10 34t-21.5 28.5 t-37.5 12q-68 -10 -70 -114v-563q2 0 0 -11.5t2 -29t10 -34t21.5 -27.5t36.5 -11q70 10 71 113v563zM240 1337q-25 0 -52.5 -8t-42.5 -16l-14 -8v151q49 39 109 39q33 0 91 -18.5t89 -20.5q25 0 52.5 8.5t41.5 16.5l14 8v-152q-51 -39 -108 -39q-31 0 -89 19.5t-91 19.5z " />
<glyph unicode="&#xf6;" horiz-adv-x="657" d="M594 848v-576q0 -12 -1 -31.5t-15.5 -68.5t-40 -88t-80 -69.5t-129.5 -30.5q-74 0 -129.5 30.5t-80 73.5t-38.5 86t-14 74l-3 31v563q0 12 1.5 31.5t15.5 70.5t38.5 90t80 71t129.5 32q199 0 252 -197q14 -51 14 -92zM399 842q-2 0 0 11t-2 28.5t-10 34t-21.5 28.5 t-37.5 12q-68 -10 -70 -114v-563q2 0 0 -11.5t2 -29t10 -34t21.5 -27.5t36.5 -11q70 10 71 113v563zM90 1305v200h191v-200h-191zM379 1305v200h190v-200h-190z" />
<glyph unicode="&#xf8;" horiz-adv-x="657" d="M205 -78h-80l31 121q-41 39 -64.5 97.5t-25.5 97.5l-3 41v563q0 12 1.5 31.5t15.5 70.5t38.5 90t80 71t129.5 32q51 0 106 -19l21 80h75l-30 -121q88 -84 94 -229v-576q0 -12 -1 -31.5t-15.5 -68.5t-40 -88t-80 -69.5t-129.5 -30.5q-57 0 -103 16zM258 842v-406l125 486 q-18 35 -55 34q-68 -10 -70 -114zM328 166q70 10 71 113v403l-125 -485q17 -31 54 -31z" />
<glyph unicode="&#xf9;" d="M334 184q41 0 67 54v882h207v-1120h-207v94l-31 -32q-30 -30 -67 -54t-70 -24q-76 0 -115.5 68.5t-39.5 150.5v917h207v-887q0 -49 49 -49zM113 1489h215l106 -184h-160z" />
<glyph unicode="&#xfa;" d="M334 184q41 0 67 54v882h207v-1120h-207v94l-31 -32q-30 -30 -67 -54t-70 -24q-76 0 -115.5 68.5t-39.5 150.5v917h207v-887q0 -49 49 -49zM381 1489h215l-162 -184h-160z" />
<glyph unicode="&#xfb;" d="M334 184q41 0 67 54v882h207v-1120h-207v94l-31 -32q-30 -30 -67 -54t-70 -24q-76 0 -115.5 68.5t-39.5 150.5v917h207v-887q0 -49 49 -49zM236 1489h219l141 -184h-188l-64 71l-61 -71h-189z" />
<glyph unicode="&#xfc;" d="M334 184q41 0 67 54v882h207v-1120h-207v94l-31 -32q-30 -30 -67 -54t-70 -24q-76 0 -115.5 68.5t-39.5 150.5v917h207v-887q0 -49 49 -49zM106 1305v200h191v-200h-191zM395 1305v200h191v-200h-191z" />
<glyph unicode="&#xfd;" horiz-adv-x="634" d="M33 -213v-184q70 -4 92 -4q115 0 192.5 95t94.5 222l198 1204h-202l-82 -688l-4 -57h-9l-4 57l-82 688h-202l190 -1153q0 -68 -36 -123t-97 -61zM338 1489h215l-162 -184h-160z" />
<glyph unicode="&#xfe;" horiz-adv-x="686" d="M82 -385v1890h207v-458q88 90 164 90q78 0 118.5 -69t40.5 -150v-715q0 -82 -41 -150.5t-118 -68.5q-33 0 -74 22.5t-66 44.5l-24 23v-459h-207zM289 874v-628q0 -25 19.5 -46.5t42 -21.5t39 19.5t16.5 48.5v628q0 29 -16.5 48.5t-39 19.5t-42 -19.5t-19.5 -48.5z" />
<glyph unicode="&#xff;" horiz-adv-x="634" d="M33 -397v184q16 -4 49 -4q61 6 97 61.5t36 122.5l-190 1153h202l82 -688l4 -57h9l4 57l82 688h202l-198 -1204q-16 -127 -94 -222t-193 -95zM78 1305v200h190v-200h-190zM367 1305v200h190v-200h-190z" />
<glyph unicode="&#x100;" horiz-adv-x="765" d="M184 1645v162h398v-162h-398zM236 0h-216l228 1505h270l227 -1505h-215l-41 307h-213zM459 541l-64 475l-6 39h-12l-6 -39l-64 -475h152z" />
<glyph unicode="&#x101;" horiz-adv-x="681" d="M151 1260v162h398v-162h-398zM252 291q0 -104 57 -105q35 0 60.5 19.5t25.5 48.5v287q-143 -62 -143 -250zM49 260q0 106 34 187t83 124t98 73t88 50.5t43 36.5v37v86q0 102 -57 102q-20 0 -32.5 -9t-17.5 -32.5t-7 -37t-2 -47.5v-39h-207v47q0 123 80.5 211t197.5 88 q102 0 177 -74t75 -180v-351v-337q0 -109 14 -195h-202q-18 20 -19 90h-14q-20 -37 -65.5 -71.5t-100.5 -34.5q-59 0 -112.5 60t-53.5 216z" />
<glyph unicode="&#x102;" horiz-adv-x="765" d="M502 1835l106 -94l-27 -27q-17 -16 -77 -42.5t-121 -26.5q-63 0 -119.5 24.5t-81.5 48.5l-24 23l110 94q41 -47 115 -47q35 0 64.5 12t41.5 25zM236 0h-216l228 1505h270l227 -1505h-215l-41 307h-213zM459 541l-64 475l-6 39h-12l-6 -39l-64 -475h152z" />
<glyph unicode="&#x103;" horiz-adv-x="681" d="M469 1450l106 -94l-27 -27q-17 -16 -77 -42.5t-121 -26.5q-63 0 -119.5 24.5t-81.5 48.5l-24 23l110 94q41 -47 115 -47q35 0 64.5 12t41.5 25zM252 291q0 -104 57 -105q35 0 60.5 19.5t25.5 48.5v287q-143 -62 -143 -250zM49 260q0 106 34 187t83 124t98 73t88 50.5 t43 36.5v37v86q0 102 -57 102q-20 0 -32.5 -9t-17.5 -32.5t-7 -37t-2 -47.5v-39h-207v47q0 123 80.5 211t197.5 88q102 0 177 -74t75 -180v-351v-337q0 -109 14 -195h-202q-18 20 -19 90h-14q-20 -37 -65.5 -71.5t-100.5 -34.5q-59 0 -112.5 60t-53.5 216z" />
<glyph unicode="&#x104;" horiz-adv-x="765" d="M256 -199q0 104 127 205l8 6h99q-10 -8 -25.5 -22.5t-41.5 -59.5t-26 -88q0 -41 31 -59.5t72 -18.5t86 19l-16 -138q-55 -18 -105 -18q-96 0 -152.5 51t-56.5 123zM236 0h-216l228 1505h270l227 -1505h-215l-41 307h-213zM459 541l-64 475l-6 39h-12l-6 -39l-64 -475h152 z" />
<glyph unicode="&#x105;" horiz-adv-x="681" d="M88 -215q0 104 127 205l8 6h99q-10 -8 -25.5 -22.5t-41.5 -59.5t-26 -88q0 -41 31 -59.5t72 -18.5t86 19l-16 -138q-55 -18 -105 -18q-96 0 -152.5 51t-56.5 123zM252 291q0 -104 57 -105q35 0 60.5 19.5t25.5 48.5v287q-143 -62 -143 -250zM49 260q0 106 34 187t83 124 t98 73t88 50.5t43 36.5v37v86q0 102 -57 102q-20 0 -32.5 -9t-17.5 -32.5t-7 -37t-2 -47.5v-39h-207v47q0 123 80.5 211t197.5 88q102 0 177 -74t75 -180v-351v-337q0 -109 14 -195h-202q-18 20 -19 90h-14q-20 -37 -65.5 -71.5t-100.5 -34.5q-59 0 -112.5 60t-53.5 216z " />
<glyph unicode="&#x106;" horiz-adv-x="708" d="M389 1829h215l-162 -184h-159zM451 516h206v-207q0 -12 -2 -34.5t-17 -79t-43 -99.5t-88.5 -77.5t-144 -34.5t-144 33.5t-88.5 81.5t-43 95.5t-17 79.5l-2 35v887q0 12 2 34.5t17 79t43 99.5t88.5 78t144 35t144 -34t88.5 -81t43 -95t17 -83l2 -33v-207h-206v207 q-2 0 0 11.5t-3.5 27.5t-12.5 32.5t-24.5 28t-43.5 11.5q-70 -10 -78 -111v-887q0 -12 2 -30.5t21.5 -49t54.5 -30.5q41 0 62.5 27.5t21.5 56.5v26v207z" />
<glyph unicode="&#x107;" horiz-adv-x="645" d="M356 1444h215l-162 -184h-159zM272 862v-604q0 -90 58 -90q35 0 47 19.5t12 70.5v156h207v-109q0 -180 -64.5 -250.5t-201.5 -70.5q-264 0 -264 331v490q0 332 264 332q137 0 201.5 -71t64.5 -251v-88h-207v135q0 51 -12 70.5t-47 19.5q-58 0 -58 -90z" />
<glyph unicode="&#x108;" horiz-adv-x="708" d="M254 1829h220l141 -184h-189l-63 71l-61 -71h-189zM451 516h206v-207q0 -12 -2 -34.5t-17 -79t-43 -99.5t-88.5 -77.5t-144 -34.5t-144 33.5t-88.5 81.5t-43 95.5t-17 79.5l-2 35v887q0 12 2 34.5t17 79t43 99.5t88.5 78t144 35t144 -34t88.5 -81t43 -95t17 -83l2 -33 v-207h-206v207q-2 0 0 11.5t-3.5 27.5t-12.5 32.5t-24.5 28t-43.5 11.5q-70 -10 -78 -111v-887q0 -12 2 -30.5t21.5 -49t54.5 -30.5q41 0 62.5 27.5t21.5 56.5v26v207z" />
<glyph unicode="&#x109;" horiz-adv-x="645" d="M221 1444h220l141 -184h-189l-63 71l-61 -71h-189zM272 862v-604q0 -90 58 -90q35 0 47 19.5t12 70.5v156h207v-109q0 -180 -64.5 -250.5t-201.5 -70.5q-264 0 -264 331v490q0 332 264 332q137 0 201.5 -71t64.5 -251v-88h-207v135q0 51 -12 70.5t-47 19.5q-58 0 -58 -90 z" />
<glyph unicode="&#x10a;" horiz-adv-x="708" d="M261 1644v207h206v-207h-206zM451 516h206v-207q0 -12 -2 -34.5t-17 -79t-43 -99.5t-88.5 -77.5t-144 -34.5t-144 33.5t-88.5 81.5t-43 95.5t-17 79.5l-2 35v887q0 12 2 34.5t17 79t43 99.5t88.5 78t144 35t144 -34t88.5 -81t43 -95t17 -83l2 -33v-207h-206v207 q-2 0 0 11.5t-3.5 27.5t-12.5 32.5t-24.5 28t-43.5 11.5q-70 -10 -78 -111v-887q0 -12 2 -30.5t21.5 -49t54.5 -30.5q41 0 62.5 27.5t21.5 56.5v26v207z" />
<glyph unicode="&#x10b;" horiz-adv-x="645" d="M228 1259v207h206v-207h-206zM272 862v-604q0 -90 58 -90q35 0 47 19.5t12 70.5v156h207v-109q0 -180 -64.5 -250.5t-201.5 -70.5q-264 0 -264 331v490q0 332 264 332q137 0 201.5 -71t64.5 -251v-88h-207v135q0 51 -12 70.5t-47 19.5q-58 0 -58 -90z" />
<glyph unicode="&#x10c;" horiz-adv-x="708" d="M474 1645h-220l-141 184h189l61 -72l63 72h189zM451 516h206v-207q0 -12 -2 -34.5t-17 -79t-43 -99.5t-88.5 -77.5t-144 -34.5t-144 33.5t-88.5 81.5t-43 95.5t-17 79.5l-2 35v887q0 12 2 34.5t17 79t43 99.5t88.5 78t144 35t144 -34t88.5 -81t43 -95t17 -83l2 -33v-207 h-206v207q-2 0 0 11.5t-3.5 27.5t-12.5 32.5t-24.5 28t-43.5 11.5q-70 -10 -78 -111v-887q0 -12 2 -30.5t21.5 -49t54.5 -30.5q41 0 62.5 27.5t21.5 56.5v26v207z" />
<glyph unicode="&#x10d;" horiz-adv-x="645" d="M441 1260h-220l-141 184h189l61 -72l63 72h189zM272 862v-604q0 -90 58 -90q35 0 47 19.5t12 70.5v156h207v-109q0 -180 -64.5 -250.5t-201.5 -70.5q-264 0 -264 331v490q0 332 264 332q137 0 201.5 -71t64.5 -251v-88h-207v135q0 51 -12 70.5t-47 19.5q-58 0 -58 -90z " />
<glyph unicode="&#x10e;" horiz-adv-x="761" d="M498 1645h-220l-141 184h189l61 -72l63 72h189zM696 751.5q0 -141.5 -3 -228.5t-12 -176t-28.5 -138t-50.5 -95t-80 -67.5t-112.5 -34t-153.5 -12.5h-174v1505h174q90 0 153.5 -12t112.5 -33.5t80 -67.5t50.5 -95.5t28.5 -139.5t12 -177t3 -228.5zM303 1284v-1063 q117 0 141 81q23 75 23 396v55.5v55.5q0 322 -23 395q-24 80 -141 80z" />
<glyph unicode="&#x10f;" horiz-adv-x="686" d="M1003 1505v-227l-113 -266h-102l72 266h-72v227h215zM604 1505v-1505h-207v74q-88 -90 -164 -90q-78 0 -118.5 68.5t-40.5 150.5v715q0 82 41 150.5t118 68.5q33 0 74 -22.5t66 -45.5l24 -22v458h207zM397 246v628q0 25 -19.5 46.5t-42 21.5t-38.5 -19.5t-16 -48.5v-628 q0 -29 16 -48.5t38.5 -19.5t42 19.5t19.5 48.5z" />
<glyph unicode="&#x110;" horiz-adv-x="761" d="M20 655v228h62v622h174q90 0 153.5 -12t112.5 -33.5t80 -67.5t50.5 -95.5t28.5 -139.5t12 -177t3 -228.5t-3 -228.5t-12 -176t-28.5 -138t-50.5 -95t-80 -67.5t-112.5 -34t-153.5 -12.5h-174v655h-62zM303 1284v-401h84v-228h-84v-434q117 0 141.5 81t22.5 452 q2 371 -22.5 450.5t-141.5 79.5z" />
<glyph unicode="&#x112;" horiz-adv-x="628" d="M137 1645v162h398v-162h-398zM82 0v1505h506v-227h-285v-395h205v-242h-205v-414h285v-227h-506z" />
<glyph unicode="&#x113;" horiz-adv-x="659" d="M135 1260v162h398v-162h-398zM408 401h192v-129q0 -12 -2 -31.5t-16.5 -68.5t-39 -88t-79.5 -69.5t-131 -30.5q-74 0 -129.5 30.5t-80 73.5t-38.5 86t-16 74l-2 31v563q0 12 2 31.5t16 70.5t40 90t81 71t129 32q199 0 252 -197q14 -51 14 -92v-326h-342v-243v-13 q0 -8 4 -27.5t11.5 -34t23.5 -26.5t37 -12q70 10 74 113v122zM258 842v-158h150v158q0 12 -1 31.5t-19.5 51t-53.5 31.5q-33 0 -52.5 -28.5t-21.5 -57.5z" />
<glyph unicode="&#x114;" horiz-adv-x="628" d="M455 1835l106 -94l-27 -27q-17 -16 -77 -42.5t-121 -26.5q-63 0 -119.5 24.5t-81.5 48.5l-24 23l110 94q41 -47 115 -47q35 0 64.5 12t41.5 25zM82 0v1505h506v-227h-285v-395h205v-242h-205v-414h285v-227h-506z" />
<glyph unicode="&#x115;" horiz-adv-x="659" d="M453 1450l106 -94l-27 -27q-17 -16 -77 -42.5t-121 -26.5q-63 0 -119.5 24.5t-81.5 48.5l-24 23l110 94q41 -47 115 -47q35 0 64.5 12t41.5 25zM408 401h192v-129q0 -12 -2 -31.5t-16.5 -68.5t-39 -88t-79.5 -69.5t-131 -30.5q-74 0 -129.5 30.5t-80 73.5t-38.5 86 t-16 74l-2 31v563q0 12 2 31.5t16 70.5t40 90t81 71t129 32q199 0 252 -197q14 -51 14 -92v-326h-342v-243v-13q0 -8 4 -27.5t11.5 -34t23.5 -26.5t37 -12q70 10 74 113v122zM258 842v-158h150v158q0 12 -1 31.5t-19.5 51t-53.5 31.5q-33 0 -52.5 -28.5t-21.5 -57.5z" />
<glyph unicode="&#x116;" horiz-adv-x="628" d="M232 1644v207h206v-207h-206zM82 0v1505h506v-227h-285v-395h205v-242h-205v-414h285v-227h-506z" />
<glyph unicode="&#x117;" horiz-adv-x="659" d="M232 1259v207h206v-207h-206zM408 401h192v-129q0 -12 -2 -31.5t-16.5 -68.5t-39 -88t-79.5 -69.5t-131 -30.5q-74 0 -129.5 30.5t-80 73.5t-38.5 86t-16 74l-2 31v563q0 12 2 31.5t16 70.5t40 90t81 71t129 32q199 0 252 -197q14 -51 14 -92v-326h-342v-243v-13 q0 -8 4 -27.5t11.5 -34t23.5 -26.5t37 -12q70 10 74 113v122zM258 842v-158h150v158q0 12 -1 31.5t-19.5 51t-53.5 31.5q-33 0 -52.5 -28.5t-21.5 -57.5z" />
<glyph unicode="&#x118;" horiz-adv-x="628" d="M209 -199q0 104 127 205l8 6h99q-10 -8 -25.5 -22.5t-41.5 -59.5t-26 -88q0 -41 31 -59.5t72 -18.5t86 19l-16 -138q-55 -18 -105 -18q-96 0 -152.5 51t-56.5 123zM82 0v1505h506v-227h-285v-395h205v-242h-205v-414h285v-227h-506z" />
<glyph unicode="&#x119;" horiz-adv-x="659" d="M151 -215q0 104 127 205l8 6h99q-10 -8 -25.5 -22.5t-41.5 -59.5t-26 -88q0 -41 31 -59.5t72 -18.5t86 19l-16 -138q-55 -18 -105 -18q-96 0 -152.5 51t-56.5 123zM408 401h192v-129q0 -12 -2 -31.5t-16.5 -68.5t-39 -88t-79.5 -69.5t-131 -30.5q-74 0 -129.5 30.5 t-80 73.5t-38.5 86t-16 74l-2 31v563q0 12 2 31.5t16 70.5t40 90t81 71t129 32q199 0 252 -197q14 -51 14 -92v-326h-342v-243v-13q0 -8 4 -27.5t11.5 -34t23.5 -26.5t37 -12q70 10 74 113v122zM258 842v-158h150v158q0 12 -1 31.5t-19.5 51t-53.5 31.5q-33 0 -52.5 -28.5 t-21.5 -57.5z" />
<glyph unicode="&#x11a;" horiz-adv-x="628" d="M445 1645h-220l-141 184h189l61 -72l63 72h189zM82 0v1505h506v-227h-285v-395h205v-242h-205v-414h285v-227h-506z" />
<glyph unicode="&#x11b;" horiz-adv-x="659" d="M445 1260h-220l-141 184h189l61 -72l63 72h189zM408 401h192v-129q0 -12 -2 -31.5t-16.5 -68.5t-39 -88t-79.5 -69.5t-131 -30.5q-74 0 -129.5 30.5t-80 73.5t-38.5 86t-16 74l-2 31v563q0 12 2 31.5t16 70.5t40 90t81 71t129 32q199 0 252 -197q14 -51 14 -92v-326h-342 v-243v-13q0 -8 4 -27.5t11.5 -34t23.5 -26.5t37 -12q70 10 74 113v122zM258 842v-158h150v158q0 12 -1 31.5t-19.5 51t-53.5 31.5q-33 0 -52.5 -28.5t-21.5 -57.5z" />
<glyph unicode="&#x11c;" horiz-adv-x="737" d="M254 1829h220l141 -184h-189l-63 71l-61 -71h-189zM657 965h-221v231q0 12 -1 30.5t-19.5 49.5t-53 31t-53 -28t-18.5 -54l-2 -29v-905q0 -12 1 -30.5t19.5 -49.5t53 -31t53 28t18.5 54l2 29v272h-88v187h309v-750h-131l-26 72q-70 -88 -172 -88q-203 0 -250 213 q-11 48 -11 89q0 12 1 23v887q0 12 2 34.5t17 79t43 99.5t88.5 78t144 35t144 -34t88.5 -81t43 -95t17 -83l2 -33v-231z" />
<glyph unicode="&#x11d;" horiz-adv-x="700" d="M401 1444h220l141 -184h-189l-63 71l-61 -71h-189zM588 858v-317q0 -10 -2 -29.5t-17.5 -67t-40 -84t-79 -66.5t-127.5 -30q-27 0 -39 2q-29 -25 -29 -51q0 -16 11 -28.5t42 -20.5t45.5 -10t59.5 -11q57 -8 101 -21t89 -41t70.5 -78t25.5 -120q0 -152 -103 -219t-251 -67 q-164 4 -248 52t-84 165q0 94 162 170q-125 35 -125 149q0 45 40 93t89 75q-51 35 -80.5 95.5t-34.5 105.5l-4 43v305q0 12 2 30.5t16.5 67.5t39 87t79 69t126.5 31q135 0 206 -103q102 102 170 103v-185q-72 0 -120 -24zM385 844q-2 0 0 10t-2 25.5t-9 31t-18.5 25.5 t-33.5 10q-29 0 -44.5 -25.5t-15.5 -52.5v-24v-307v-28q0 -17 15.5 -45t44.5 -28q63 6 63 101v307zM506 -152q0 33 -20.5 50.5t-90.5 29.5l-106 21q-76 -43 -76 -99q0 -78 135 -77q59 0 108.5 19t49.5 56z" />
<glyph unicode="&#x11e;" horiz-adv-x="737" d="M481 1835l106 -94l-27 -27q-17 -16 -77 -42.5t-121 -26.5q-63 0 -119.5 24.5t-81.5 48.5l-24 23l110 94q41 -47 115 -47q35 0 64.5 12t41.5 25zM657 965h-221v231q0 12 -1 30.5t-19.5 49.5t-53 31t-53 -28t-18.5 -54l-2 -29v-905q0 -12 1 -30.5t19.5 -49.5t53 -31t53 28 t18.5 54l2 29v272h-88v187h309v-750h-131l-26 72q-70 -88 -172 -88q-203 0 -250 213q-11 48 -11 89q0 12 1 23v887q0 12 2 34.5t17 79t43 99.5t88.5 78t144 35t144 -34t88.5 -81t43 -95t17 -83l2 -33v-231z" />
<glyph unicode="&#x11f;" horiz-adv-x="700" d="M629 1450l106 -94l-27 -27q-17 -16 -77 -42.5t-121 -26.5q-63 0 -119.5 24.5t-81.5 48.5l-24 23l110 94q41 -47 115 -47q35 0 64.5 12t41.5 25zM588 858v-317q0 -10 -2 -29.5t-17.5 -67t-40 -84t-79 -66.5t-127.5 -30q-27 0 -39 2q-29 -25 -29 -51q0 -16 11 -28.5 t42 -20.5t45.5 -10t59.5 -11q57 -8 101 -21t89 -41t70.5 -78t25.5 -120q0 -152 -103 -219t-251 -67q-164 4 -248 52t-84 165q0 94 162 170q-125 35 -125 149q0 45 40 93t89 75q-51 35 -80.5 95.5t-34.5 105.5l-4 43v305q0 12 2 30.5t16.5 67.5t39 87t79 69t126.5 31 q135 0 206 -103q102 102 170 103v-185q-72 0 -120 -24zM385 844q-2 0 0 10t-2 25.5t-9 31t-18.5 25.5t-33.5 10q-29 0 -44.5 -25.5t-15.5 -52.5v-24v-307v-28q0 -17 15.5 -45t44.5 -28q63 6 63 101v307zM506 -152q0 33 -20.5 50.5t-90.5 29.5l-106 21q-76 -43 -76 -99 q0 -78 135 -77q59 0 108.5 19t49.5 56z" />
<glyph unicode="&#x120;" horiz-adv-x="737" d="M261 1644v207h206v-207h-206zM657 965h-221v231q0 12 -1 30.5t-19.5 49.5t-53 31t-53 -28t-18.5 -54l-2 -29v-905q0 -12 1 -30.5t19.5 -49.5t53 -31t53 28t18.5 54l2 29v272h-88v187h309v-750h-131l-26 72q-70 -88 -172 -88q-203 0 -250 213q-11 48 -11 89q0 12 1 23v887 q0 12 2 34.5t17 79t43 99.5t88.5 78t144 35t144 -34t88.5 -81t43 -95t17 -83l2 -33v-231z" />
<glyph unicode="&#x121;" horiz-adv-x="700" d="M408 1259v207h206v-207h-206zM588 858v-317q0 -10 -2 -29.5t-17.5 -67t-40 -84t-79 -66.5t-127.5 -30q-27 0 -39 2q-29 -25 -29 -51q0 -16 11 -28.5t42 -20.5t45.5 -10t59.5 -11q57 -8 101 -21t89 -41t70.5 -78t25.5 -120q0 -152 -103 -219t-251 -67q-164 4 -248 52 t-84 165q0 94 162 170q-125 35 -125 149q0 45 40 93t89 75q-51 35 -80.5 95.5t-34.5 105.5l-4 43v305q0 12 2 30.5t16.5 67.5t39 87t79 69t126.5 31q135 0 206 -103q102 102 170 103v-185q-72 0 -120 -24zM385 844q-2 0 0 10t-2 25.5t-9 31t-18.5 25.5t-33.5 10 q-29 0 -44.5 -25.5t-15.5 -52.5v-24v-307v-28q0 -17 15.5 -45t44.5 -28q63 6 63 101v307zM506 -152q0 33 -20.5 50.5t-90.5 29.5l-106 21q-76 -43 -76 -99q0 -78 135 -77q59 0 108.5 19t49.5 56z" />
<glyph unicode="&#x122;" horiz-adv-x="737" d="M436 -140v-227l-113 -266h-102l72 266h-72v227h215zM657 965h-221v231q0 12 -1 30.5t-19.5 49.5t-53 31t-53 -28t-18.5 -54l-2 -29v-905q0 -12 1 -30.5t19.5 -49.5t53 -31t53 28t18.5 54l2 29v272h-88v187h309v-750h-131l-26 72q-70 -88 -172 -88q-203 0 -250 213 q-11 48 -11 89q0 12 1 23v887q0 12 2 34.5t17 79t43 99.5t88.5 78t144 35t144 -34t88.5 -81t43 -95t17 -83l2 -33v-231z" />
<glyph unicode="&#x124;" horiz-adv-x="778" d="M278 1829h220l141 -184h-189l-63 71l-61 -71h-189zM475 0v655h-172v-655h-221v1505h221v-622h172v622h221v-1505h-221z" />
<glyph unicode="&#x125;" d="M237 1813h220l141 -184h-189l-63 71l-61 -71h-189zM356 936q-41 0 -67 -53v-883h-207v1505h207v-479l32 32q30 30 66.5 54.5t69.5 24.5q76 0 115.5 -69t39.5 -150v-918h-206v887q-1 49 -50 49z" />
<glyph unicode="&#x128;" horiz-adv-x="385" d="M103 1683q-25 0 -52.5 -8t-41.5 -16l-15 -8v151q49 39 109 39q33 0 91 -18.5t89 -20.5q25 0 52.5 8.5t41.5 16.5l15 8v-152q-51 -39 -109 -39q-31 0 -89 19.5t-91 19.5zM82 0v1505h221v-1505h-221z" />
<glyph unicode="&#x129;" horiz-adv-x="370" d="M94 1298q-25 0 -52.5 -8t-41.5 -16l-15 -8v151q49 39 109 39q33 0 91 -18.5t89 -20.5q25 0 52.5 8.5t41.5 16.5l15 8v-152q-51 -39 -109 -39q-31 0 -89 19.5t-91 19.5zM289 0h-207v1120h207v-1120z" />
<glyph unicode="&#x12a;" horiz-adv-x="385" d="M-6 1645v162h398v-162h-398zM82 0v1505h221v-1505h-221z" />
<glyph unicode="&#x12b;" horiz-adv-x="370" d="M-15 1260v162h398v-162h-398zM289 0h-207v1120h207v-1120z" />
<glyph unicode="&#x12c;" horiz-adv-x="385" d="M312 1835l106 -94l-27 -27q-17 -16 -77 -42.5t-121 -26.5q-63 0 -119.5 24.5t-81.5 48.5l-24 23l110 94q41 -47 115 -47q35 0 64.5 12t41.5 25zM82 0v1505h221v-1505h-221z" />
<glyph unicode="&#x12d;" horiz-adv-x="370" d="M303 1450l106 -94l-27 -27q-17 -16 -77 -42.5t-121 -26.5q-63 0 -119.5 24.5t-81.5 48.5l-24 23l110 94q41 -47 115 -47q35 0 64.5 12t41.5 25zM289 0h-207v1120h207v-1120z" />
<glyph unicode="&#x12e;" horiz-adv-x="385" d="M12 -199q0 104 127 205l8 6h99q-10 -8 -25.5 -22.5t-41.5 -59.5t-26 -88q0 -41 31 -59.5t72 -18.5t86 19l-16 -138q-55 -18 -105 -18q-96 0 -152.5 51t-56.5 123zM82 0v1505h221v-1505h-221z" />
<glyph unicode="&#x12f;" horiz-adv-x="370" d="M4 -199q0 104 127 205l8 6h99q-10 -8 -25.5 -22.5t-41.5 -59.5t-26 -88q0 -41 31 -59.5t72 -18.5t86 19l-16 -138q-55 -18 -105 -18q-96 0 -152.5 51t-56.5 123zM289 0h-207v1120h207v-1120zM82 1298v207h207v-207h-207z" />
<glyph unicode="&#x130;" horiz-adv-x="385" d="M89 1644v207h206v-207h-206zM82 0v1505h221v-1505h-221z" />
<glyph unicode="&#x131;" horiz-adv-x="370" d="M289 0h-207v1120h207v-1120z" />
<glyph unicode="&#x132;" horiz-adv-x="808" d="M397 -14v217q4 0 12.5 -1t29 2t35.5 12t28.5 34.5t13.5 62.5v1192h221v-1226q0 -137 -79 -221q-70 -74 -222 -73q-19 0 -39 1zM82 0v1505h221v-1505h-221z" />
<glyph unicode="&#x133;" horiz-adv-x="735" d="M447 1298v207h207v-207h-207zM447 1120h207v-1149q0 -51 -2 -83.5t-14.5 -90t-35 -92.5t-70.5 -62.5t-116 -27.5q-29 0 -51.5 3t-30.5 5l-8 4v191q29 -8 57 -8q64 0 64 142v10.5v10.5v1147zM289 0h-207v1120h207v-1120zM82 1298v207h207v-207h-207z" />
<glyph unicode="&#x134;" horiz-adv-x="423" d="M131 1829h220l141 -184h-189l-63 71l-61 -71h-189zM12 -14v217q4 0 12.5 -1t29 2t35.5 12t28.5 34.5t13.5 62.5v1192h221v-1226q0 -137 -79 -221q-70 -74 -222 -73q-19 0 -39 1z" />
<glyph unicode="&#x135;" horiz-adv-x="364" d="M69 1813h220l141 -184h-189l-63 71l-61 -71h-189zM76 1298v207h207v-207h-207zM76 1120h207v-1149q0 -51 -2 -83.5t-14.5 -90t-35 -92.5t-70.5 -62.5t-116 -27.5q-29 0 -51.5 3t-30.5 5l-8 4v191q29 -8 57 -8q64 0 64 142v10.5v10.5v1147z" />
<glyph unicode="&#x136;" horiz-adv-x="768" d="M522 -123v-227l-113 -266h-102l72 266h-72v227h215zM82 1505h221v-501v-25h8l11 25l184 501h215l-203 -495l230 -1010h-216l-153 655l-6 31h-6l-13 -31l-51 -123v-532h-221v1505z" />
<glyph unicode="&#x137;" horiz-adv-x="641" d="M467 -123v-227l-113 -266h-102l72 266h-72v227h215zM82 1505h207v-678v-36h10l12 36l101 293h186l-149 -364l188 -756h-199l-102 453l-4 16h-10l-7 -16l-26 -66v-387h-207v1505z" />
<glyph unicode="&#x139;" horiz-adv-x="604" d="M364 1829h215l-162 -184h-159zM82 0v1505h221v-1300h293v-205h-514z" />
<glyph unicode="&#x13a;" horiz-adv-x="370" d="M213 1813h215l-162 -184h-159zM289 0h-207v1505h207v-1505z" />
<glyph unicode="&#x13b;" horiz-adv-x="604" d="M446 -123v-227l-113 -266h-102l72 266h-72v227h215zM82 0v1505h221v-1300h293v-205h-514z" />
<glyph unicode="&#x13c;" horiz-adv-x="370" d="M293 -123v-227l-113 -266h-102l72 266h-72v227h215zM289 0h-207v1505h207v-1505z" />
<glyph unicode="&#x13d;" horiz-adv-x="604" d="M995 1521v-227l-113 -266h-102l72 266h-72v227h215zM82 0v1505h221v-1300h293v-205h-514z" />
<glyph unicode="&#x13e;" horiz-adv-x="370" d="M688 1505v-227l-113 -266h-102l72 266h-72v227h215zM289 0h-207v1505h207v-1505z" />
<glyph unicode="&#x13f;" horiz-adv-x="604" d="M231 647v228h215v-228h-215zM82 0v1505h221v-1300h293v-205h-514z" />
<glyph unicode="&#x140;" horiz-adv-x="585" d="M371 649v228h215v-228h-215zM289 0h-207v1505h207v-1505z" />
<glyph unicode="&#x141;" horiz-adv-x="628" d="M41 561v221l65 52v671h222v-499l121 94v-221l-121 -95v-579h293v-205h-515v612z" />
<glyph unicode="&#x142;" horiz-adv-x="468" d="M338 0h-207v639l-100 -78v221l100 78v645h207v-483l100 78v-221l-100 -78v-801z" />
<glyph unicode="&#x143;" horiz-adv-x="808" d="M430 1829h215l-162 -184h-159zM530 0l-215 784l-18 70h-12v-70v-784h-203v1505h197l215 -784l18 -70h12v70v784h203v-1505h-197z" />
<glyph unicode="&#x144;" d="M373 1444h215l-162 -184h-159zM356 936q-41 0 -67 -53v-883h-207v1120h207v-94l32 32q30 30 66.5 54.5t69.5 24.5q76 0 115.5 -69t39.5 -150v-918h-206v887q-1 49 -50 49z" />
<glyph unicode="&#x145;" horiz-adv-x="808" d="M512 -123v-227l-113 -266h-102l72 266h-72v227h215zM530 0l-215 784l-18 70h-12v-70v-784h-203v1505h197l215 -784l18 -70h12v70v784h203v-1505h-197z" />
<glyph unicode="&#x146;" d="M455 -123v-227l-113 -266h-102l72 266h-72v227h215zM356 936q-41 0 -67 -53v-883h-207v1120h207v-94l32 32q30 30 66.5 54.5t69.5 24.5q76 0 115.5 -69t39.5 -150v-918h-206v887q-1 49 -50 49z" />
<glyph unicode="&#x147;" horiz-adv-x="808" d="M515 1645h-220l-141 184h189l61 -72l63 72h189zM530 0l-215 784l-18 70h-12v-70v-784h-203v1505h197l215 -784l18 -70h12v70v784h203v-1505h-197z" />
<glyph unicode="&#x148;" d="M457 1260h-220l-141 184h189l61 -72l63 72h189zM356 936q-41 0 -67 -53v-883h-207v1120h207v-94l32 32q30 30 66.5 54.5t69.5 24.5q76 0 115.5 -69t39.5 -150v-918h-206v887q-1 49 -50 49z" />
<glyph unicode="&#x14c;" horiz-adv-x="724" d="M163 1645v162h398v-162h-398zM657 309q0 -12 -2 -34.5t-17 -79t-43 -99.5t-88.5 -77.5t-144 -34.5t-144 33.5t-88.5 81.5t-43 95.5t-17 79.5l-2 35v887q0 12 2 34.5t17 79t43 99.5t88.5 78t144 35t144 -34t88.5 -81t43 -95t17 -83l2 -33v-887zM436 1196q0 12 -1 30.5 t-19.5 49.5t-53 31t-53 -28t-18.5 -54l-2 -29v-887q0 -12 1 -30.5t19.5 -49t53 -30.5t53 27.5t18.5 56.5l2 26v887z" />
<glyph unicode="&#x14d;" horiz-adv-x="657" d="M129 1260v162h398v-162h-398zM594 848v-576q0 -12 -1 -31.5t-15.5 -68.5t-40 -88t-80 -69.5t-129.5 -30.5q-74 0 -129.5 30.5t-80 73.5t-38.5 86t-14 74l-3 31v563q0 12 1.5 31.5t15.5 70.5t38.5 90t80 71t129.5 32q199 0 252 -197q14 -51 14 -92zM399 842q-1 1 -0.5 4 t1 8.5t0.5 6.5q0 9 -3 21q-4 17 -10 33.5t-21.5 28.5t-37.5 12q-68 -10 -70 -114v-563q1 -1 1 -4t-1 -8.5t-1 -7.5q0 -9 3 -20q4 -17 10 -34t21.5 -28t36.5 -11q70 10 71 113v563z" />
<glyph unicode="&#x14e;" horiz-adv-x="724" d="M481 1835l106 -94l-27 -27q-17 -16 -77 -42.5t-121 -26.5q-63 0 -119.5 24.5t-81.5 48.5l-24 23l110 94q41 -47 115 -47q35 0 64.5 12t41.5 25zM657 309q0 -12 -2 -34.5t-17 -79t-43 -99.5t-88.5 -77.5t-144 -34.5t-144 33.5t-88.5 81.5t-43 95.5t-17 79.5l-2 35v887 q0 12 2 34.5t17 79t43 99.5t88.5 78t144 35t144 -34t88.5 -81t43 -95t17 -83l2 -33v-887zM436 1196q0 12 -1 30.5t-19.5 49.5t-53 31t-53 -28t-18.5 -54l-2 -29v-887q0 -12 1 -30.5t19.5 -49t53 -30.5t53 27.5t18.5 56.5l2 26v887z" />
<glyph unicode="&#x14f;" horiz-adv-x="657" d="M447 1450l106 -94l-27 -27q-17 -16 -77 -42.5t-121 -26.5q-63 0 -119.5 24.5t-81.5 48.5l-24 23l110 94q41 -47 115 -47q35 0 64.5 12t41.5 25zM594 848v-576q0 -12 -1 -31.5t-15.5 -68.5t-40 -88t-80 -69.5t-129.5 -30.5q-74 0 -129.5 30.5t-80 73.5t-38.5 86t-14 74 l-3 31v563q0 12 1.5 31.5t15.5 70.5t38.5 90t80 71t129.5 32q199 0 252 -197q14 -51 14 -92zM399 842q-1 1 -0.5 4t1 8.5t0.5 6.5q0 9 -3 21q-4 17 -10 33.5t-21.5 28.5t-37.5 12q-68 -10 -70 -114v-563q1 -1 1 -4t-1 -8.5t-1 -7.5q0 -9 3 -20q4 -17 10 -34t21.5 -28 t36.5 -11q70 10 71 113v563z" />
<glyph unicode="&#x150;" horiz-adv-x="724" d="M238 1829h215l-162 -184h-160zM541 1829h215l-162 -184h-160zM657 309q0 -12 -2 -34.5t-17 -79t-43 -99.5t-88.5 -77.5t-144 -34.5t-144 33.5t-88.5 81.5t-43 95.5t-17 79.5l-2 35v887q0 12 2 34.5t17 79t43 99.5t88.5 78t144 35t144 -34t88.5 -81t43 -95t17 -83l2 -33 v-887zM436 1196q0 12 -1 30.5t-19.5 49.5t-53 31t-53 -28t-18.5 -54l-2 -29v-887q0 -12 1 -30.5t19.5 -49t53 -30.5t53 27.5t18.5 56.5l2 26v887z" />
<glyph unicode="&#x151;" horiz-adv-x="657" d="M203 1444h215l-162 -184h-160zM506 1444h215l-162 -184h-160zM594 848v-576q0 -12 -1 -31.5t-15.5 -68.5t-40 -88t-80 -69.5t-129.5 -30.5q-74 0 -129.5 30.5t-80 73.5t-38.5 86t-14 74l-3 31v563q0 12 1.5 31.5t15.5 70.5t38.5 90t80 71t129.5 32q199 0 252 -197 q14 -51 14 -92zM399 842q-1 1 -0.5 4t1 8.5t0.5 6.5q0 9 -3 21q-4 17 -10 33.5t-21.5 28.5t-37.5 12q-68 -10 -70 -114v-563q1 -1 1 -4t-1 -8.5t-1 -7.5q0 -9 3 -20q4 -17 10 -34t21.5 -28t36.5 -11q70 10 71 113v563z" />
<glyph unicode="&#x152;" horiz-adv-x="983" d="M362 0q-84 0 -144 31.5t-88 78t-43 91.5t-17 78l-2 30v887q0 12 2 33.5t17 75t43 93.5t88.5 73.5t143.5 33.5h580v-227h-285v-395h205v-242h-205v-414h285v-227h-580zM436 1210q-6 96 -74 97q-35 0 -53 -28t-18 -54l-2 -29v-887q0 -12 1 -30.5t19.5 -49t53 -30.5t53 27.5 t18.5 56.5l2 26v901z" />
<glyph unicode="&#x153;" horiz-adv-x="995" d="M743 401h193v-129q0 -12 -2 -31.5t-16.5 -68.5t-39 -88t-80 -69.5t-130.5 -30.5q-106 0 -170 57q-68 -57 -170 -57q-74 0 -129.5 30.5t-80 73.5t-38.5 86t-14 74l-3 31v563q0 12 1.5 31.5t15.5 70.5t38.5 90t80 71t129.5 32q106 0 172 -60q66 59 170 60q199 0 252 -197 q14 -51 14 -92v-326h-342v-250q0 -16 4 -36.5t22.5 -45t49.5 -24.5q70 10 73 113v122zM399 842q-2 0 0 11t-2 28.5t-10 34t-21.5 28.5t-37.5 12q-68 -10 -70 -114v-563q2 0 0 -11.5t2 -29t10 -34t21.5 -27.5t36.5 -11q70 10 71 113v563zM594 848v-164h149v158q0 12 -1 31.5 t-19 51t-53 31.5q-43 0 -59.5 -37.5t-16.5 -70.5z" />
<glyph unicode="&#x154;" horiz-adv-x="739" d="M219 1829h215l-162 -184h-159zM698 0h-221l-115 635h-59v-635h-221v1505h221q377 0 377 -434q0 -258 -123 -342zM467 1063q0 76 -15.5 125t-45 68.5t-51 24.5t-52.5 5v-446q31 0 52.5 5t51 24.5t45 68.5t15.5 125z" />
<glyph unicode="&#x155;" horiz-adv-x="503" d="M315 1444h215l-162 -184h-159zM496 1137v-230q-34 11 -64 11q-56 0 -98 -37q-45 -41 -45 -103v-778h-207v1120h207v-125q8 41 58.5 91.5t148.5 50.5z" />
<glyph unicode="&#x156;" horiz-adv-x="739" d="M498 -123v-227l-113 -266h-102l72 266h-72v227h215zM698 0h-221l-115 635h-59v-635h-221v1505h221q377 0 377 -434q0 -258 -123 -342zM467 1063q0 76 -15.5 125t-45 68.5t-51 24.5t-52.5 5v-446q31 0 52.5 5t51 24.5t45 68.5t15.5 125z" />
<glyph unicode="&#x157;" horiz-adv-x="503" d="M293 -123v-227l-113 -266h-102l72 266h-72v227h215zM496 1137v-230q-34 11 -64 11q-56 0 -98 -37q-45 -41 -45 -103v-778h-207v1120h207v-125q8 41 58.5 91.5t148.5 50.5z" />
<glyph unicode="&#x158;" horiz-adv-x="739" d="M302 1645h-220l-141 184h189l61 -72l63 72h189zM698 0h-221l-115 635h-59v-635h-221v1505h221q377 0 377 -434q0 -258 -123 -342zM467 1063q0 76 -15.5 125t-45 68.5t-51 24.5t-52.5 5v-446q31 0 52.5 5t51 24.5t45 68.5t15.5 125z" />
<glyph unicode="&#x159;" horiz-adv-x="503" d="M400 1260h-220l-141 184h189l61 -72l63 72h189zM496 1137v-230q-34 11 -64 11q-56 0 -98 -37q-45 -41 -45 -103v-778h-207v1120h207v-125q8 41 58.5 91.5t148.5 50.5z" />
<glyph unicode="&#x15a;" horiz-adv-x="702" d="M387 1829h215l-162 -184h-159zM68 1169q0 139 71.5 245t216.5 108h10q88 0 150 -35q66 -37 95.5 -101.5t42 -127t12.5 -136.5l-217 -20q0 217 -89 217q-76 -2 -75 -150q0 -18 4 -39.5t10 -39t18.5 -43t20.5 -40t28 -43.5l28 -43l33 -48l32 -46l104 -159q31 -49 67 -139.5 t36 -166.5q0 -379 -308 -378q-82 0 -142 25.5t-94 63.5t-53.5 99t-25.5 117.5t-6 132.5l217 20q0 -256 104 -256q90 0 91 166q0 29 -8.5 59.5t-32 73.5t-36.5 64l-54 79q-40 58 -48 72q-66 96 -102.5 158t-68 148.5t-31.5 162.5z" />
<glyph unicode="&#x15b;" horiz-adv-x="630" d="M356 1444h215l-162 -184h-159zM72 834q0 55 12 104t39 95t78 74t123 30h11q78 0 131 -26q56 -28 80.5 -79t33 -95t8.5 -103h-193q0 131 -67 131q-63 -2 -64 -131q0 -33 23.5 -73t45 -62.5t66.5 -65.5q190 -182 191 -342q0 -123 -64.5 -215t-199.5 -92q-72 0 -126.5 24.5 t-85 60t-49 85t-23.5 89.5t-5 83h192q0 -170 97 -170q72 0 71 135q0 74 -129 198q-68 66 -98.5 99t-64 101.5t-33.5 144.5z" />
<glyph unicode="&#x15c;" horiz-adv-x="702" d="M251 1829h220l141 -184h-189l-63 71l-61 -71h-189zM68 1169q0 139 71.5 245t216.5 108h10q88 0 150 -35q66 -37 95.5 -101.5t42 -127t12.5 -136.5l-217 -20q0 217 -89 217q-76 -2 -75 -150q0 -18 4 -39.5t10 -39t18.5 -43t20.5 -40t28 -43.5l28 -43l33 -48l32 -46 l104 -159q31 -49 67 -139.5t36 -166.5q0 -379 -308 -378q-82 0 -142 25.5t-94 63.5t-53.5 99t-25.5 117.5t-6 132.5l217 20q0 -256 104 -256q90 0 91 166q0 29 -8.5 59.5t-32 73.5t-36.5 64l-54 79q-40 58 -48 72q-66 96 -102.5 158t-68 148.5t-31.5 162.5z" />
<glyph unicode="&#x15d;" horiz-adv-x="630" d="M219 1444h220l141 -184h-189l-63 71l-61 -71h-189zM72 834q0 55 12 104t39 95t78 74t123 30h11q78 0 131 -26q56 -28 80.5 -79t33 -95t8.5 -103h-193q0 131 -67 131q-63 -2 -64 -131q0 -33 23.5 -73t45 -62.5t66.5 -65.5q190 -182 191 -342q0 -123 -64.5 -215t-199.5 -92 q-72 0 -126.5 24.5t-85 60t-49 85t-23.5 89.5t-5 83h192q0 -170 97 -170q72 0 71 135q0 74 -129 198q-68 66 -98.5 99t-64 101.5t-33.5 144.5z" />
<glyph unicode="&#x15e;" horiz-adv-x="702" d="M444 -9v-141l-45 -133h-104l40 133h-63v141h172zM68 1169q0 139 71.5 245t216.5 108h10q88 0 150 -35q66 -37 95.5 -101.5t42 -127t12.5 -136.5l-217 -20q0 217 -89 217q-76 -2 -75 -150q0 -18 4 -39.5t10 -39t18.5 -43t20.5 -40t28 -43.5l28 -43l33 -48l32 -46l104 -159 q31 -49 67 -139.5t36 -166.5q0 -379 -308 -378q-82 0 -142 25.5t-94 63.5t-53.5 99t-25.5 117.5t-6 132.5l217 20q0 -256 104 -256q90 0 91 166q0 29 -8.5 59.5t-32 73.5t-36.5 64l-54 79q-40 58 -48 72q-66 96 -102.5 158t-68 148.5t-31.5 162.5z" />
<glyph unicode="&#x15f;" horiz-adv-x="630" d="M412 -9v-141l-45 -133h-104l40 133h-63v141h172zM72 834q0 55 12 104t39 95t78 74t123 30h11q78 0 131 -26q56 -28 80.5 -79t33 -95t8.5 -103h-193q0 131 -67 131q-63 -2 -64 -131q0 -33 23.5 -73t45 -62.5t66.5 -65.5q190 -182 191 -342q0 -123 -64.5 -215t-199.5 -92 q-72 0 -126.5 24.5t-85 60t-49 85t-23.5 89.5t-5 83h192q0 -170 97 -170q72 0 71 135q0 74 -129 198q-68 66 -98.5 99t-64 101.5t-33.5 144.5z" />
<glyph unicode="&#x160;" horiz-adv-x="702" d="M68 1169q0 139 71.5 245t216.5 108q94 2 160 -35t95.5 -101.5t42 -127t12.5 -136.5l-217 -20q0 217 -89 217q-76 -2 -75 -150q0 -18 4 -39.5t10 -39t18.5 -43t20.5 -40t28 -43.5l28 -43l33 -48l32 -46l104 -159q31 -49 67 -139.5t36 -166.5q0 -379 -308 -378 q-82 0 -142 25.5t-94 63.5t-53.5 99t-25.5 117.5t-6 132.5l217 20q0 -256 104 -256q90 0 91 166q0 29 -8.5 59.5t-32 73.5t-36.5 64l-54 79q-40 58 -48 72q-66 96 -102.5 158t-68 148.5t-31.5 162.5zM461 1638h-219l-142 185h189l61 -72l64 72h188z" />
<glyph unicode="&#x161;" horiz-adv-x="630" d="M72 834q0 55 12 104t39 95t78 74t123 30q86 2 142 -26t80.5 -79t33 -95t8.5 -103h-193q0 131 -67 131q-63 -2 -64 -131q0 -33 23.5 -73t45 -62.5t66.5 -65.5q190 -182 191 -342q0 -123 -64.5 -215t-199.5 -92q-72 0 -126.5 24.5t-85 60t-49 85t-23.5 89.5t-5 83h192 q0 -170 97 -170q72 0 71 135q0 74 -129 198q-68 66 -98.5 99t-64 101.5t-33.5 144.5zM426 1305h-219l-141 184h188l61 -72l64 72h188z" />
<glyph unicode="&#x162;" horiz-adv-x="647" d="M410 8v-141l-45 -133h-104l40 133h-63v141h172zM213 1278h-209v227h639v-227h-209v-1278h-221v1278z" />
<glyph unicode="&#x163;" horiz-adv-x="501" d="M448 -9v-141l-45 -133h-104l40 133h-63v141h172zM125 1397h207v-277h141v-186h-141v-557q0 -184 65 -184l76 8v-203q-45 -14 -111 -14q-68 0 -115.5 28.5t-70 64.5t-35 96t-14.5 95t-2 92v574h-105v186h105v277z" />
<glyph unicode="&#x164;" horiz-adv-x="647" d="M433 1645h-220l-141 184h189l61 -72l63 72h189zM213 1278h-209v227h639v-227h-209v-1278h-221v1278z" />
<glyph unicode="&#x165;" horiz-adv-x="501" d="M731 1396v-227l-113 -266h-102l72 266h-72v227h215zM125 1397h207v-277h141v-186h-141v-557q0 -184 65 -184l76 8v-203q-45 -14 -111 -14q-68 0 -115.5 28.5t-70 64.5t-35 96t-14.5 95t-2 92v574h-105v186h105v277z" />
<glyph unicode="&#x168;" horiz-adv-x="749" d="M285 1683q-25 0 -52.5 -8t-41.5 -16l-15 -8v151q49 39 109 39q33 0 91 -18.5t89 -20.5q25 0 52.5 8.5t41.5 16.5l15 8v-152q-51 -39 -109 -39q-31 0 -89 19.5t-91 19.5zM449 1505h221v-1196q0 -12 -2 -34.5t-17.5 -79t-43 -99.5t-88 -77.5t-144.5 -34.5t-144.5 33.5 t-88 81.5t-43 95.5t-17.5 79.5l-2 35v1196h221v-1196q0 -12 1 -30.5t19.5 -49t53.5 -30.5t53 27.5t18 56.5l3 26v1196z" />
<glyph unicode="&#x169;" d="M254 1298q-25 0 -52.5 -8t-41.5 -16l-15 -8v151q49 39 109 39q33 0 91 -18.5t89 -20.5q25 0 52.5 8.5t41.5 16.5l15 8v-152q-51 -39 -109 -39q-31 0 -89 19.5t-91 19.5zM334 184q41 0 67 54v882h207v-1120h-207v94l-31 -32q-30 -30 -67 -54t-70 -24q-76 0 -115.5 68.5 t-39.5 150.5v917h207v-887q0 -49 49 -49z" />
<glyph unicode="&#x16a;" horiz-adv-x="749" d="M176 1645v162h398v-162h-398zM449 1505h221v-1196q0 -12 -2 -34.5t-17.5 -79t-43 -99.5t-88 -77.5t-144.5 -34.5t-144.5 33.5t-88 81.5t-43 95.5t-17.5 79.5l-2 35v1196h221v-1196q0 -12 1 -30.5t19.5 -49t53.5 -30.5t53 27.5t18 56.5l3 26v1196z" />
<glyph unicode="&#x16b;" d="M145 1260v162h398v-162h-398zM334 184q41 0 67 54v882h207v-1120h-207v94l-31 -32q-30 -30 -67 -54t-70 -24q-76 0 -115.5 68.5t-39.5 150.5v917h207v-887q0 -49 49 -49z" />
<glyph unicode="&#x16c;" horiz-adv-x="749" d="M494 1835l106 -94l-27 -27q-17 -16 -77 -42.5t-121 -26.5q-63 0 -119.5 24.5t-81.5 48.5l-24 23l110 94q41 -47 115 -47q35 0 64.5 12t41.5 25zM449 1505h221v-1196q0 -12 -2 -34.5t-17.5 -79t-43 -99.5t-88 -77.5t-144.5 -34.5t-144.5 33.5t-88 81.5t-43 95.5 t-17.5 79.5l-2 35v1196h221v-1196q0 -12 1 -30.5t19.5 -49t53.5 -30.5t53 27.5t18 56.5l3 26v1196z" />
<glyph unicode="&#x16d;" d="M463 1450l106 -94l-27 -27q-17 -16 -77 -42.5t-121 -26.5q-63 0 -119.5 24.5t-81.5 48.5l-24 23l110 94q41 -47 115 -47q35 0 64.5 12t41.5 25zM334 184q41 0 67 54v882h207v-1120h-207v94l-31 -32q-30 -30 -67 -54t-70 -24q-76 0 -115.5 68.5t-39.5 150.5v917h207v-887 q0 -49 49 -49z" />
<glyph unicode="&#x16e;" horiz-adv-x="749" d="M223 1788.5q0 61.5 45.5 102.5t108.5 41t107.5 -41t44.5 -102.5t-44.5 -102.5t-107.5 -41t-108.5 41t-45.5 102.5zM301 1788.5q0 -28.5 23.5 -50t52.5 -21.5t52.5 21.5t23.5 50t-23.5 50t-52.5 21.5t-52.5 -21.5t-23.5 -50zM449 1505h221v-1196q0 -12 -2 -34.5t-17.5 -79 t-43 -99.5t-88 -77.5t-144.5 -34.5t-144.5 33.5t-88 81.5t-43 95.5t-17.5 79.5l-2 35v1196h221v-1196q0 -12 1 -30.5t19.5 -49t53.5 -30.5t53 27.5t18 56.5l3 26v1196z" />
<glyph unicode="&#x16f;" d="M190 1403.5q0 61.5 45.5 102.5t108.5 41t107.5 -41t44.5 -102.5t-44.5 -102.5t-107.5 -41t-108.5 41t-45.5 102.5zM268 1403.5q0 -28.5 23.5 -50t52.5 -21.5t52.5 21.5t23.5 50t-23.5 50t-52.5 21.5t-52.5 -21.5t-23.5 -50zM334 184q41 0 67 54v882h207v-1120h-207v94 l-31 -32q-30 -30 -67 -54t-70 -24q-76 0 -115.5 68.5t-39.5 150.5v917h207v-887q0 -49 49 -49z" />
<glyph unicode="&#x170;" horiz-adv-x="749" d="M250 1829h215l-162 -184h-160zM553 1829h215l-162 -184h-160zM449 1505h221v-1196q0 -12 -2 -34.5t-17.5 -79t-43 -99.5t-88 -77.5t-144.5 -34.5t-144.5 33.5t-88 81.5t-43 95.5t-17.5 79.5l-2 35v1196h221v-1196q0 -12 1 -30.5t19.5 -49t53.5 -30.5t53 27.5t18 56.5 l3 26v1196z" />
<glyph unicode="&#x171;" d="M220 1444h215l-162 -184h-160zM523 1444h215l-162 -184h-160zM334 184q41 0 67 54v882h207v-1120h-207v94l-31 -32q-30 -30 -67 -54t-70 -24q-76 0 -115.5 68.5t-39.5 150.5v917h207v-887q0 -49 49 -49z" />
<glyph unicode="&#x172;" horiz-adv-x="749" d="M194 -215q0 104 127 205l8 6h99q-10 -8 -25.5 -22.5t-41.5 -59.5t-26 -88q0 -41 31 -59.5t72 -18.5t86 19l-16 -138q-55 -18 -105 -18q-96 0 -152.5 51t-56.5 123zM449 1505h221v-1196q0 -12 -2 -34.5t-17.5 -79t-43 -99.5t-88 -77.5t-144.5 -34.5t-144.5 33.5t-88 81.5 t-43 95.5t-17.5 79.5l-2 35v1196h221v-1196q0 -12 1 -30.5t19.5 -49t53.5 -30.5t53 27.5t18 56.5l3 26v1196z" />
<glyph unicode="&#x173;" d="M106 -215q0 104 127 205l8 6h99q-10 -8 -25.5 -22.5t-41.5 -59.5t-26 -88q0 -41 31 -59.5t72 -18.5t86 19l-16 -138q-55 -18 -105 -18q-96 0 -152.5 51t-56.5 123zM334 184q41 0 67 54v882h207v-1120h-207v94l-31 -32q-30 -30 -67 -54t-70 -24q-76 0 -115.5 68.5 t-39.5 150.5v917h207v-887q0 -49 49 -49z" />
<glyph unicode="&#x174;" horiz-adv-x="1036" d="M409 1829h220l141 -184h-189l-63 71l-61 -71h-189zM502 713l-103 -713h-172l-202 1505h204l88 -782l5 -49h16l6 49l94 782h160l94 -782l6 -49h17l4 49l88 782h205l-203 -1505h-172l-102 713l-13 88h-8z" />
<glyph unicode="&#x175;" horiz-adv-x="905" d="M344 1444h220l141 -184h-189l-63 71l-61 -71h-189zM719 0h-172l-80 535l-10 63h-8l-11 -63l-80 -535h-172l-166 1120h189l65 -585l9 -64h12l10 64l86 585h123l86 -585l10 -64h13l8 64l65 585h189z" />
<glyph unicode="&#x176;" horiz-adv-x="700" d="M241 1829h220l141 -184h-189l-63 71l-61 -71h-189zM231 1505l111 -481l6 -14h4l6 14l111 481h217l-225 -864v-641h-221v641l-226 864h217z" />
<glyph unicode="&#x177;" horiz-adv-x="634" d="M208 1444h220l141 -184h-189l-63 71l-61 -71h-189zM33 -397v184q16 -4 49 -4q61 6 97 61.5t36 122.5l-190 1153h202l82 -688l4 -57h9l4 57l82 688h202l-198 -1204q-16 -127 -94 -222t-193 -95z" />
<glyph unicode="&#x178;" horiz-adv-x="704" d="M233 1505l111 -481l6 -14h4l6 14l111 481h217l-225 -864v-641h-221v641l-226 864h217zM113 1638v201h190v-201h-190zM401 1638v201h191v-201h-191z" />
<glyph unicode="&#x179;" horiz-adv-x="626" d="M364 1829h215l-162 -184h-159zM20 0v238l347 1048h-297v219h536v-219l-352 -1067h352v-219h-586z" />
<glyph unicode="&#x17a;" horiz-adv-x="532" d="M313 1444h215l-162 -184h-159zM12 0v168l285 764h-240v188h459v-168l-285 -764h285v-188h-504z" />
<glyph unicode="&#x17b;" horiz-adv-x="626" d="M236 1644v207h206v-207h-206zM20 0v238l347 1048h-297v219h536v-219l-352 -1067h352v-219h-586z" />
<glyph unicode="&#x17c;" horiz-adv-x="532" d="M183 1259v207h206v-207h-206zM12 0v168l285 764h-240v188h459v-168l-285 -764h285v-188h-504z" />
<glyph unicode="&#x17d;" horiz-adv-x="626" d="M20 0v238l347 1048h-297v219h536v-219l-352 -1067h352v-219h-586zM449 1638h-220l-141 185h188l62 -72l63 72h189z" />
<glyph unicode="&#x17e;" horiz-adv-x="532" d="M12 0v168l285 764h-240v188h459v-168l-285 -764h285v-188h-504zM385 1305h-219l-141 184h188l61 -72l64 72h188z" />
<glyph unicode="&#x17f;" horiz-adv-x="630" d="M72 834q0 55 12 104t39 95t78 74t123 30h11q78 0 131 -26q56 -28 80.5 -79t33 -95t8.5 -103h-193q0 131 -67 131q-63 -2 -64 -131q0 -33 23.5 -73t45 -62.5t66.5 -65.5q190 -182 191 -342q0 -123 -64.5 -215t-199.5 -92q-72 0 -126.5 24.5t-85 60t-49 85t-23.5 89.5 t-5 83h192q0 -170 97 -170q72 0 71 135q0 74 -129 198q-68 66 -98.5 99t-64 101.5t-33.5 144.5z" />
<glyph unicode="&#x189;" horiz-adv-x="761" d="M20 655v228h62v622h174q90 0 153.5 -12t112.5 -33.5t80 -67.5t50.5 -95.5t28.5 -139.5t12 -177t3 -228.5t-3 -228.5t-12 -176t-28.5 -138t-50.5 -95t-80 -67.5t-112.5 -34t-153.5 -12.5h-174v655h-62zM303 1284v-401h84v-228h-84v-434q117 0 141.5 81t22.5 452 q2 371 -22.5 450.5t-141.5 79.5z" />
<glyph unicode="&#x1a0;" horiz-adv-x="724" d="M639 1521v-227l-113 -266h-102l72 266h-72v227h215zM657 309q0 -12 -2 -34.5t-17 -79t-43 -99.5t-88.5 -77.5t-144 -34.5t-144 33.5t-88.5 81.5t-43 95.5t-17 79.5l-2 35v887q0 12 2 34.5t17 79t43 99.5t88.5 78t144 35t144 -34t88.5 -81t43 -95t17 -83l2 -33v-887z M436 1196q0 12 -1 30.5t-19.5 49.5t-53 31t-53 -28t-18.5 -54l-2 -29v-887q0 -12 1 -30.5t19.5 -49t53 -30.5t53 27.5t18.5 56.5l2 26v887z" />
<glyph unicode="&#x1a1;" horiz-adv-x="657" d="M604 1136v-227l-113 -266h-102l72 266h-72v227h215zM594 848v-576q0 -12 -1 -31.5t-15.5 -68.5t-40 -88t-80 -69.5t-129.5 -30.5q-74 0 -129.5 30.5t-80 73.5t-38.5 86t-14 74l-3 31v563q0 12 1.5 31.5t15.5 70.5t38.5 90t80 71t129.5 32q199 0 252 -197q14 -51 14 -92z M399 842q-1 1 -0.5 4t1 8.5t0.5 6.5q0 9 -3 21q-4 17 -10 33.5t-21.5 28.5t-37.5 12q-68 -10 -70 -114v-563q1 -1 1 -4t-1 -8.5t-1 -7.5q0 -9 3 -20q4 -17 10 -34t21.5 -28t36.5 -11q70 10 71 113v563z" />
<glyph unicode="&#x1af;" horiz-adv-x="749" d="M946 1521v-227l-113 -266h-102l72 266h-72v227h215zM449 1505h221v-1196q0 -12 -2 -34.5t-17.5 -79t-43 -99.5t-88 -77.5t-144.5 -34.5t-144.5 33.5t-88 81.5t-43 95.5t-17.5 79.5l-2 35v1196h221v-1196q0 -12 1 -30.5t19.5 -49t53.5 -30.5t53 27.5t18 56.5l3 26v1196z " />
<glyph unicode="&#x1b0;" d="M885 1136v-227l-113 -266h-102l72 266h-72v227h215zM334 184q41 0 67 54v882h207v-1120h-207v94l-31 -32q-30 -30 -67 -54t-70 -24q-76 0 -115.5 68.5t-39.5 150.5v917h207v-887q0 -49 49 -49z" />
<glyph unicode="&#x1c0;" horiz-adv-x="356" d="M274 -512h-192v2204h192v-2204z" />
<glyph unicode="&#x1c1;" horiz-adv-x="712" d="M630 -512h-192v2204h192v-2204zM274 -512h-192v2204h192v-2204z" />
<glyph unicode="&#x1c4;" horiz-adv-x="1388" d="M782 0v238l347 1048h-297v219h536v-219l-352 -1067h352v-219h-586zM1211 1638h-220l-141 185h188l62 -72l63 72h189zM696 751.5q0 -141.5 -3 -228.5t-12 -176t-28.5 -138t-50.5 -95t-80 -67.5t-112.5 -34t-153.5 -12.5h-174v1505h174q90 0 153.5 -12t112.5 -33.5 t80 -67.5t50.5 -95.5t28.5 -139.5t12 -177t3 -228.5zM303 1284v-1063q117 0 141 81q23 75 23 396v55.5v55.5q0 322 -23 395q-24 80 -141 80z" />
<glyph unicode="&#x1c5;" horiz-adv-x="1294" d="M774 0v168l285 764h-240v188h459v-168l-285 -764h285v-188h-504zM1147 1305h-219l-141 184h188l61 -72l64 72h188zM696 751.5q0 -141.5 -3 -228.5t-12 -176t-28.5 -138t-50.5 -95t-80 -67.5t-112.5 -34t-153.5 -12.5h-174v1505h174q90 0 153.5 -12t112.5 -33.5t80 -67.5 t50.5 -95.5t28.5 -139.5t12 -177t3 -228.5zM303 1284v-1063q117 0 141 81q23 75 23 396v55.5v55.5q0 322 -23 395q-24 80 -141 80z" />
<glyph unicode="&#x1c6;" horiz-adv-x="1218" d="M698 0v168l285 764h-240v188h459v-168l-285 -764h285v-188h-504zM1071 1305h-219l-141 184h188l61 -72l64 72h188zM604 1505v-1505h-207v74q-88 -90 -164 -90q-78 0 -118.5 68.5t-40.5 150.5v715q0 82 41 150.5t118 68.5q33 0 74 -22.5t66 -45.5l24 -22v458h207zM397 246 v628q0 25 -19.5 46.5t-42 21.5t-38.5 -19.5t-16 -48.5v-628q0 -29 16 -48.5t38.5 -19.5t42 19.5t19.5 48.5z" />
<glyph unicode="&#x1c7;" horiz-adv-x="1028" d="M616 -14v217q4 0 12.5 -1t29 2t35.5 12t28.5 34.5t13.5 62.5v1192h221v-1226q0 -137 -79 -221q-70 -74 -222 -73q-19 0 -39 1zM82 0v1505h221v-1300h293v-205h-514z" />
<glyph unicode="&#x1c8;" horiz-adv-x="968" d="M680 1298v207h207v-207h-207zM680 1120h207v-1149q0 -51 -2 -83.5t-14.5 -90t-35 -92.5t-70.5 -62.5t-116 -27.5q-29 0 -51.5 3t-30.5 5l-8 4v191q29 -8 57 -8q64 0 64 142v10.5v10.5v1147zM82 0v1505h221v-1300h293v-205h-514z" />
<glyph unicode="&#x1c9;" horiz-adv-x="735" d="M447 1298v207h207v-207h-207zM447 1120h207v-1149q0 -51 -2 -83.5t-14.5 -90t-35 -92.5t-70.5 -62.5t-116 -27.5q-29 0 -51.5 3t-30.5 5l-8 4v191q29 -8 57 -8q64 0 64 142v10.5v10.5v1147zM289 0h-207v1505h207v-1505z" />
<glyph unicode="&#x1ca;" horiz-adv-x="1232" d="M821 -14v217q4 0 12.5 -1t29 2t35.5 12t28.5 34.5t13.5 62.5v1192h221v-1226q0 -137 -79 -221q-70 -74 -222 -73q-19 0 -39 1zM530 0l-215 784l-18 70h-12v-70v-784h-203v1505h197l215 -784l18 -70h12v70v784h203v-1505h-197z" />
<glyph unicode="&#x1cb;" horiz-adv-x="1173" d="M885 1298v207h207v-207h-207zM885 1120h207v-1149q0 -51 -2 -83.5t-14.5 -90t-35 -92.5t-70.5 -62.5t-116 -27.5q-29 0 -51.5 3t-30.5 5l-8 4v191q29 -8 57 -8q64 0 64 142v10.5v10.5v1147zM530 0l-215 784l-18 70h-12v-70v-784h-203v1505h197l215 -784l18 -70h12v70v784 h203v-1505h-197z" />
<glyph unicode="&#x1cc;" horiz-adv-x="1054" d="M766 1298v207h207v-207h-207zM766 1120h207v-1149q0 -51 -2 -83.5t-14.5 -90t-35 -92.5t-70.5 -62.5t-116 -27.5q-29 0 -51.5 3t-30.5 5l-8 4v191q29 -8 57 -8q64 0 64 142v10.5v10.5v1147zM356 936q-41 0 -67 -53v-883h-207v1120h207v-94l32 32q30 30 66.5 54.5 t69.5 24.5q76 0 115.5 -69t39.5 -150v-918h-206v887q-1 49 -50 49z" />
<glyph unicode="&#x1cd;" horiz-adv-x="765" d="M494 1645h-220l-141 184h189l61 -72l63 72h189zM236 0h-216l228 1505h270l227 -1505h-215l-41 307h-213zM459 541l-64 475l-6 39h-12l-6 -39l-64 -475h152z" />
<glyph unicode="&#x1ce;" horiz-adv-x="681" d="M461 1260h-220l-141 184h189l61 -72l63 72h189zM252 291q0 -104 57 -105q35 0 60.5 19.5t25.5 48.5v287q-143 -62 -143 -250zM49 260q0 106 34 187t83 124t98 73t88 50.5t43 36.5v37v86q0 102 -57 102q-20 0 -32.5 -9t-17.5 -32.5t-7 -37t-2 -47.5v-39h-207v47 q0 123 80.5 211t197.5 88q102 0 177 -74t75 -180v-351v-337q0 -109 14 -195h-202q-18 20 -19 90h-14q-20 -37 -65.5 -71.5t-100.5 -34.5q-59 0 -112.5 60t-53.5 216z" />
<glyph unicode="&#x1cf;" horiz-adv-x="385" d="M302 1645h-220l-141 184h189l61 -72l63 72h189zM82 0v1505h221v-1505h-221z" />
<glyph unicode="&#x1d0;" horiz-adv-x="370" d="M295 1260h-220l-141 184h189l61 -72l63 72h189zM289 0h-207v1120h207v-1120z" />
<glyph unicode="&#x1d1;" horiz-adv-x="724" d="M474 1645h-220l-141 184h189l61 -72l63 72h189zM657 309q0 -12 -2 -34.5t-17 -79t-43 -99.5t-88.5 -77.5t-144 -34.5t-144 33.5t-88.5 81.5t-43 95.5t-17 79.5l-2 35v887q0 12 2 34.5t17 79t43 99.5t88.5 78t144 35t144 -34t88.5 -81t43 -95t17 -83l2 -33v-887zM436 1196 q0 12 -1 30.5t-19.5 49.5t-53 31t-53 -28t-18.5 -54l-2 -29v-887q0 -12 1 -30.5t19.5 -49t53 -30.5t53 27.5t18.5 56.5l2 26v887z" />
<glyph unicode="&#x1d2;" horiz-adv-x="657" d="M437 1260h-220l-141 184h189l61 -72l63 72h189zM594 848v-576q0 -12 -1 -31.5t-15.5 -68.5t-40 -88t-80 -69.5t-129.5 -30.5q-74 0 -129.5 30.5t-80 73.5t-38.5 86t-14 74l-3 31v563q0 12 1.5 31.5t15.5 70.5t38.5 90t80 71t129.5 32q199 0 252 -197q14 -51 14 -92z M399 842q-1 1 -0.5 4t1 8.5t0.5 6.5q0 9 -3 21q-4 17 -10 33.5t-21.5 28.5t-37.5 12q-68 -10 -70 -114v-563q1 -1 1 -4t-1 -8.5t-1 -7.5q0 -9 3 -20q4 -17 10 -34t21.5 -28t36.5 -11q70 10 71 113v563z" />
<glyph unicode="&#x1d3;" horiz-adv-x="749" d="M486 1645h-220l-141 184h189l61 -72l63 72h189zM449 1505h221v-1196q0 -12 -2 -34.5t-17.5 -79t-43 -99.5t-88 -77.5t-144.5 -34.5t-144.5 33.5t-88 81.5t-43 95.5t-17.5 79.5l-2 35v1196h221v-1196q0 -12 1 -30.5t19.5 -49t53.5 -30.5t53 27.5t18 56.5l3 26v1196z" />
<glyph unicode="&#x1d4;" d="M453 1260h-220l-141 184h189l61 -72l63 72h189zM334 184q41 0 67 54v882h207v-1120h-207v94l-31 -32q-30 -30 -67 -54t-70 -24q-76 0 -115.5 68.5t-39.5 150.5v917h207v-887q0 -49 49 -49z" />
<glyph unicode="&#x1d5;" horiz-adv-x="749" d="M176 1962v162h398v-162h-398zM449 1505h221v-1196q0 -12 -2 -34.5t-17.5 -79t-43 -99.5t-88 -77.5t-144.5 -34.5t-144.5 33.5t-88 81.5t-43 95.5t-17.5 79.5l-2 35v1196h221v-1196q0 -12 1 -30.5t19.5 -49t53.5 -30.5t53 27.5t18 56.5l3 26v1196zM135 1638v201h191v-201 h-191zM424 1638v201h190v-201h-190z" />
<glyph unicode="&#x1d6;" d="M147 1628v162h398v-162h-398zM334 184q41 0 67 54v882h207v-1120h-207v94l-31 -32q-30 -30 -67 -54t-70 -24q-76 0 -115.5 68.5t-39.5 150.5v917h207v-887q0 -49 49 -49zM106 1305v200h191v-200h-191zM395 1305v200h191v-200h-191z" />
<glyph unicode="&#x1d7;" horiz-adv-x="749" d="M401 2146h215l-162 -184h-159zM449 1505h221v-1196q0 -12 -2 -34.5t-17.5 -79t-43 -99.5t-88 -77.5t-144.5 -34.5t-144.5 33.5t-88 81.5t-43 95.5t-17.5 79.5l-2 35v1196h221v-1196q0 -12 1 -30.5t19.5 -49t53.5 -30.5t53 27.5t18 56.5l3 26v1196zM135 1638v201h191v-201 h-191zM424 1638v201h190v-201h-190z" />
<glyph unicode="&#x1d8;" d="M373 1813h215l-162 -184h-159zM334 184q41 0 67 54v882h207v-1120h-207v94l-31 -32q-30 -30 -67 -54t-70 -24q-76 0 -115.5 68.5t-39.5 150.5v917h207v-887q0 -49 49 -49zM106 1305v200h191v-200h-191zM395 1305v200h191v-200h-191z" />
<glyph unicode="&#x1d9;" horiz-adv-x="749" d="M486 1962h-220l-141 184h189l61 -72l63 72h189zM449 1505h221v-1196q0 -12 -2 -34.5t-17.5 -79t-43 -99.5t-88 -77.5t-144.5 -34.5t-144.5 33.5t-88 81.5t-43 95.5t-17.5 79.5l-2 35v1196h221v-1196q0 -12 1 -30.5t19.5 -49t53.5 -30.5t53 27.5t18 56.5l3 26v1196z M135 1638v201h191v-201h-191zM424 1638v201h190v-201h-190z" />
<glyph unicode="&#x1da;" d="M457 1629h-220l-141 184h189l61 -72l63 72h189zM334 184q41 0 67 54v882h207v-1120h-207v94l-31 -32q-30 -30 -67 -54t-70 -24q-76 0 -115.5 68.5t-39.5 150.5v917h207v-887q0 -49 49 -49zM106 1305v200h191v-200h-191zM395 1305v200h191v-200h-191z" />
<glyph unicode="&#x1db;" horiz-adv-x="749" d="M133 2146h215l106 -184h-159zM449 1505h221v-1196q0 -12 -2 -34.5t-17.5 -79t-43 -99.5t-88 -77.5t-144.5 -34.5t-144.5 33.5t-88 81.5t-43 95.5t-17.5 79.5l-2 35v1196h221v-1196q0 -12 1 -30.5t19.5 -49t53.5 -30.5t53 27.5t18 56.5l3 26v1196zM135 1638v201h191v-201 h-191zM424 1638v201h190v-201h-190z" />
<glyph unicode="&#x1dc;" d="M105 1813h215l106 -184h-159zM334 184q41 0 67 54v882h207v-1120h-207v94l-31 -32q-30 -30 -67 -54t-70 -24q-76 0 -115.5 68.5t-39.5 150.5v917h207v-887q0 -49 49 -49zM106 1305v200h191v-200h-191zM395 1305v200h191v-200h-191z" />
<glyph unicode="&#x1de;" horiz-adv-x="765" d="M184 1962v162h398v-162h-398zM236 0h-216l228 1505h270l227 -1505h-215l-41 307h-213zM459 541l-64 475l-6 39h-12l-6 -39l-64 -475h152zM143 1638v201h191v-201h-191zM432 1638v201h191v-201h-191z" />
<glyph unicode="&#x1df;" horiz-adv-x="681" d="M143 1628v162h398v-162h-398zM252 291q0 -104 57 -105q35 0 60.5 19.5t25.5 48.5v287q-143 -62 -143 -250zM49 260q0 106 34 187t83 124t98 73t88 50.5t43 36.5v37v86q0 102 -57 102q-20 0 -32.5 -9t-17.5 -32.5t-7 -37t-2 -47.5v-39h-207v47q0 123 80.5 211t197.5 88 q102 0 177 -74t75 -180v-351v-337q0 -109 14 -195h-202q-18 20 -19 90h-14q-20 -37 -65.5 -71.5t-100.5 -34.5q-59 0 -112.5 60t-53.5 216zM102 1305v200h191v-200h-191zM391 1305v200h191v-200h-191z" />
<glyph unicode="&#x1e2;" horiz-adv-x="1099" d="M549 1645v162h398v-162h-398zM553 0v307h-227l-90 -307h-220l420 1505h623v-227h-285v-395h205v-242h-205v-414h285v-227h-506zM543 1055l-150 -514h160v514h-10z" />
<glyph unicode="&#x1e3;" horiz-adv-x="989" d="M309 1260v162h398v-162h-398zM737 401h193v-129q0 -12 -2 -31.5t-16.5 -68.5t-39 -88t-80 -69.5t-130.5 -30.5q-158 0 -226 131q-102 -131 -221 -131q-59 0 -112.5 60t-53.5 216q0 106 34 187t83 124t98 73t88 50.5t43 36.5v123q0 102 -57 102q-20 0 -32.5 -9 t-17.5 -32.5t-7 -37t-2 -47.5v-39h-207v47q0 123 80.5 211t197.5 88q84 0 152 -52q66 51 162 52q199 0 251 -197q14 -51 15 -92v-326h-342v-243v-13q0 -8 4 -27.5t11 -34t23.5 -26.5t37.5 -12q70 10 73 113v122zM252 291q0 -104 57 -105q35 0 60.5 19.5t25.5 48.5v287 q-143 -62 -143 -250zM588 842v-158h149v158q0 12 -1 31.5t-19.5 51t-52.5 31.5q-33 0 -52.5 -28.5t-21.5 -57.5z" />
<glyph unicode="&#x1e6;" horiz-adv-x="737" d="M474 1645h-220l-141 184h189l61 -72l63 72h189zM657 965h-221v231q0 12 -1 30.5t-19.5 49.5t-53 31t-53 -28t-18.5 -54l-2 -29v-905q0 -12 1 -30.5t19.5 -49.5t53 -31t53 28t18.5 54l2 29v272h-88v187h309v-750h-131l-26 72q-70 -88 -172 -88q-203 0 -250 213 q-11 48 -11 89q0 12 1 23v887q0 12 2 34.5t17 79t43 99.5t88.5 78t144 35t144 -34t88.5 -81t43 -95t17 -83l2 -33v-231z" />
<glyph unicode="&#x1e7;" horiz-adv-x="700" d="M621 1260h-220l-141 184h189l61 -72l63 72h189zM588 858v-317q0 -10 -2 -29.5t-17.5 -67t-40 -84t-79 -66.5t-127.5 -30q-27 0 -39 2q-29 -25 -29 -51q0 -16 11 -28.5t42 -20.5t45.5 -10t59.5 -11q57 -8 101 -21t89 -41t70.5 -78t25.5 -120q0 -152 -103 -219t-251 -67 q-164 4 -248 52t-84 165q0 94 162 170q-125 35 -125 149q0 45 40 93t89 75q-51 35 -80.5 95.5t-34.5 105.5l-4 43v305q0 12 2 30.5t16.5 67.5t39 87t79 69t126.5 31q135 0 206 -103q102 102 170 103v-185q-72 0 -120 -24zM385 844q-2 0 0 10t-2 25.5t-9 31t-18.5 25.5 t-33.5 10q-29 0 -44.5 -25.5t-15.5 -52.5v-24v-307v-28q0 -17 15.5 -45t44.5 -28q63 6 63 101v307zM506 -152q0 33 -20.5 50.5t-90.5 29.5l-106 21q-76 -43 -76 -99q0 -78 135 -77q59 0 108.5 19t49.5 56z" />
<glyph unicode="&#x1e8;" horiz-adv-x="768" d="M510 1645h-220l-141 184h189l61 -72l63 72h189zM82 1505h221v-501v-25h8l11 25l184 501h215l-203 -495l230 -1010h-216l-153 655l-6 31h-6l-13 -31l-51 -123v-532h-221v1505z" />
<glyph unicode="&#x1e9;" horiz-adv-x="641" d="M295 1629h-220l-141 184h189l61 -72l63 72h189zM82 1505h207v-678v-36h10l12 36l101 293h186l-149 -364l188 -756h-199l-102 453l-4 16h-10l-7 -16l-26 -66v-387h-207v1505z" />
<glyph unicode="&#x1ea;" horiz-adv-x="724" d="M182 -215q0 104 127 205l8 6h99q-10 -8 -25.5 -22.5t-41.5 -59.5t-26 -88q0 -41 31 -59.5t72 -18.5t86 19l-16 -138q-55 -18 -105 -18q-96 0 -152.5 51t-56.5 123zM657 309q0 -12 -2 -34.5t-17 -79t-43 -99.5t-88.5 -77.5t-144 -34.5t-144 33.5t-88.5 81.5t-43 95.5 t-17 79.5l-2 35v887q0 12 2 34.5t17 79t43 99.5t88.5 78t144 35t144 -34t88.5 -81t43 -95t17 -83l2 -33v-887zM436 1196q0 12 -1 30.5t-19.5 49.5t-53 31t-53 -28t-18.5 -54l-2 -29v-887q0 -12 1 -30.5t19.5 -49t53 -30.5t53 27.5t18.5 56.5l2 26v887z" />
<glyph unicode="&#x1eb;" horiz-adv-x="657" d="M147 -215q0 104 127 205l8 6h99q-10 -8 -25.5 -22.5t-41.5 -59.5t-26 -88q0 -41 31 -59.5t72 -18.5t86 19l-16 -138q-55 -18 -105 -18q-96 0 -152.5 51t-56.5 123zM594 848v-576q0 -12 -1 -31.5t-15.5 -68.5t-40 -88t-80 -69.5t-129.5 -30.5q-74 0 -129.5 30.5t-80 73.5 t-38.5 86t-14 74l-3 31v563q0 12 1.5 31.5t15.5 70.5t38.5 90t80 71t129.5 32q199 0 252 -197q14 -51 14 -92zM399 842q-1 1 -0.5 4t1 8.5t0.5 6.5q0 9 -3 21q-4 17 -10 33.5t-21.5 28.5t-37.5 12q-68 -10 -70 -114v-563q1 -1 1 -4t-1 -8.5t-1 -7.5q0 -9 3 -20q4 -17 10 -34 t21.5 -28t36.5 -11q70 10 71 113v563z" />
<glyph unicode="&#x1ec;" horiz-adv-x="724" d="M163 1645v162h398v-162h-398zM182 -215q0 104 127 205l8 6h99q-10 -8 -25.5 -22.5t-41.5 -59.5t-26 -88q0 -41 31 -59.5t72 -18.5t86 19l-16 -138q-55 -18 -105 -18q-96 0 -152.5 51t-56.5 123zM657 309q0 -12 -2 -34.5t-17 -79t-43 -99.5t-88.5 -77.5t-144 -34.5 t-144 33.5t-88.5 81.5t-43 95.5t-17 79.5l-2 35v887q0 12 2 34.5t17 79t43 99.5t88.5 78t144 35t144 -34t88.5 -81t43 -95t17 -83l2 -33v-887zM436 1196q0 12 -1 30.5t-19.5 49.5t-53 31t-53 -28t-18.5 -54l-2 -29v-887q0 -12 1 -30.5t19.5 -49t53 -30.5t53 27.5t18.5 56.5 l2 26v887z" />
<glyph unicode="&#x1ed;" horiz-adv-x="657" d="M129 1260v162h398v-162h-398zM147 -215q0 104 127 205l8 6h99q-10 -8 -25.5 -22.5t-41.5 -59.5t-26 -88q0 -41 31 -59.5t72 -18.5t86 19l-16 -138q-55 -18 -105 -18q-96 0 -152.5 51t-56.5 123zM594 848v-576q0 -12 -1 -31.5t-15.5 -68.5t-40 -88t-80 -69.5t-129.5 -30.5 q-74 0 -129.5 30.5t-80 73.5t-38.5 86t-14 74l-3 31v563q0 12 1.5 31.5t15.5 70.5t38.5 90t80 71t129.5 32q199 0 252 -197q14 -51 14 -92zM399 842q-1 1 -0.5 4t1 8.5t0.5 6.5q0 9 -3 21q-4 17 -10 33.5t-21.5 28.5t-37.5 12q-68 -10 -70 -114v-563q1 -1 1 -4t-1 -8.5 t-1 -7.5q0 -9 3 -20q4 -17 10 -34t21.5 -28t36.5 -11q70 10 71 113v563z" />
<glyph unicode="&#x1f0;" horiz-adv-x="364" d="M289 1629h-220l-141 184h189l61 -72l63 72h189zM76 1298v207h207v-207h-207zM76 1120h207v-1149q0 -51 -2 -83.5t-14.5 -90t-35 -92.5t-70.5 -62.5t-116 -27.5q-29 0 -51.5 3t-30.5 5l-8 4v191q29 -8 57 -8q64 0 64 142v10.5v10.5v1147z" />
<glyph unicode="&#x1f1;" horiz-adv-x="1388" d="M782 0v238l347 1048h-297v219h536v-219l-352 -1067h352v-219h-586zM696 751.5q0 -141.5 -3 -228.5t-12 -176t-28.5 -138t-50.5 -95t-80 -67.5t-112.5 -34t-153.5 -12.5h-174v1505h174q90 0 153.5 -12t112.5 -33.5t80 -67.5t50.5 -95.5t28.5 -139.5t12 -177t3 -228.5z M303 1284v-1063q117 0 141 81q23 75 23 396v55.5v55.5q0 322 -23 395q-24 80 -141 80z" />
<glyph unicode="&#x1f2;" horiz-adv-x="1294" d="M774 0v168l285 764h-240v188h459v-168l-285 -764h285v-188h-504zM696 751.5q0 -141.5 -3 -228.5t-12 -176t-28.5 -138t-50.5 -95t-80 -67.5t-112.5 -34t-153.5 -12.5h-174v1505h174q90 0 153.5 -12t112.5 -33.5t80 -67.5t50.5 -95.5t28.5 -139.5t12 -177t3 -228.5z M303 1284v-1063q117 0 141 81q23 75 23 396v55.5v55.5q0 322 -23 395q-24 80 -141 80z" />
<glyph unicode="&#x1f3;" horiz-adv-x="1218" d="M698 0v168l285 764h-240v188h459v-168l-285 -764h285v-188h-504zM604 1505v-1505h-207v74q-88 -90 -164 -90q-78 0 -118.5 68.5t-40.5 150.5v715q0 82 41 150.5t118 68.5q33 0 74 -22.5t66 -45.5l24 -22v458h207zM397 246v628q0 25 -19.5 46.5t-42 21.5t-38.5 -19.5 t-16 -48.5v-628q0 -29 16 -48.5t38.5 -19.5t42 19.5t19.5 48.5z" />
<glyph unicode="&#x1f4;" horiz-adv-x="737" d="M389 1829h215l-162 -184h-159zM657 965h-221v231q0 12 -1 30.5t-19.5 49.5t-53 31t-53 -28t-18.5 -54l-2 -29v-905q0 -12 1 -30.5t19.5 -49.5t53 -31t53 28t18.5 54l2 29v272h-88v187h309v-750h-131l-26 72q-70 -88 -172 -88q-203 0 -250 213q-11 48 -11 89q0 12 1 23 v887q0 12 2 34.5t17 79t43 99.5t88.5 78t144 35t144 -34t88.5 -81t43 -95t17 -83l2 -33v-231z" />
<glyph unicode="&#x1f5;" horiz-adv-x="700" d="M536 1444h215l-162 -184h-159zM588 858v-317q0 -10 -2 -29.5t-17.5 -67t-40 -84t-79 -66.5t-127.5 -30q-27 0 -39 2q-29 -25 -29 -51q0 -16 11 -28.5t42 -20.5t45.5 -10t59.5 -11q57 -8 101 -21t89 -41t70.5 -78t25.5 -120q0 -152 -103 -219t-251 -67q-164 4 -248 52 t-84 165q0 94 162 170q-125 35 -125 149q0 45 40 93t89 75q-51 35 -80.5 95.5t-34.5 105.5l-4 43v305q0 12 2 30.5t16.5 67.5t39 87t79 69t126.5 31q135 0 206 -103q102 102 170 103v-185q-72 0 -120 -24zM385 844q-2 0 0 10t-2 25.5t-9 31t-18.5 25.5t-33.5 10 q-29 0 -44.5 -25.5t-15.5 -52.5v-24v-307v-28q0 -17 15.5 -45t44.5 -28q63 6 63 101v307zM506 -152q0 33 -20.5 50.5t-90.5 29.5l-106 21q-76 -43 -76 -99q0 -78 135 -77q59 0 108.5 19t49.5 56z" />
<glyph unicode="&#x1f8;" horiz-adv-x="808" d="M162 1829h215l106 -184h-159zM530 0l-215 784l-18 70h-12v-70v-784h-203v1505h197l215 -784l18 -70h12v70v784h203v-1505h-197z" />
<glyph unicode="&#x1f9;" d="M105 1444h215l106 -184h-159zM356 936q-41 0 -67 -53v-883h-207v1120h207v-94l32 32q30 30 66.5 54.5t69.5 24.5q76 0 115.5 -69t39.5 -150v-918h-206v887q-1 49 -50 49z" />
<glyph unicode="&#x1fa;" horiz-adv-x="765" d="M412 2212h215l-162 -184h-159zM236 0h-216l228 1505h270l227 -1505h-215l-41 307h-213zM459 541l-64 475l-6 39h-12l-6 -39l-64 -475h152zM231 1761.5q0 61.5 45.5 102.5t109 41t107.5 -41t44 -102.5t-44 -102.5t-107.5 -41t-109 41t-45.5 102.5zM309 1761.5 q0 -28.5 23.5 -50t52.5 -21.5t52.5 21.5t23.5 50t-23.5 50t-52.5 21.5t-52.5 -21.5t-23.5 -50z" />
<glyph unicode="&#x1fb;" horiz-adv-x="681" d="M369 1872h215l-162 -184h-159zM252 291q0 -104 57 -105q35 0 60.5 19.5t25.5 48.5v287q-143 -62 -143 -250zM49 260q0 106 34 187t83 124t98 73t88 50.5t43 36.5v37v86q0 102 -57 102q-20 0 -32.5 -9t-17.5 -32.5t-7 -37t-2 -47.5v-39h-207v47q0 123 80.5 211t197.5 88 q102 0 177 -74t75 -180v-351v-337q0 -109 14 -195h-202q-18 20 -19 90h-14q-20 -37 -65.5 -71.5t-100.5 -34.5q-59 0 -112.5 60t-53.5 216zM188 1421.5q0 61.5 45.5 102.5t109 41t107.5 -41t44 -102.5t-44 -102.5t-107.5 -41t-109 41t-45.5 102.5zM266 1421.5 q0 -28.5 23.5 -50t52.5 -21.5t52.5 21.5t23.5 50t-23.5 50t-52.5 21.5t-52.5 -21.5t-23.5 -50z" />
<glyph unicode="&#x1fc;" horiz-adv-x="1099" d="M774 1829h215l-162 -184h-159zM553 0v307h-227l-90 -307h-220l420 1505h623v-227h-285v-395h205v-242h-205v-414h285v-227h-506zM543 1055l-150 -514h160v514h-10z" />
<glyph unicode="&#x1fd;" horiz-adv-x="989" d="M532 1444h215l-162 -184h-159zM737 401h193v-129q0 -12 -2 -31.5t-16.5 -68.5t-39 -88t-80 -69.5t-130.5 -30.5q-158 0 -226 131q-102 -131 -221 -131q-59 0 -112.5 60t-53.5 216q0 106 34 187t83 124t98 73t88 50.5t43 36.5v123q0 102 -57 102q-20 0 -32.5 -9 t-17.5 -32.5t-7 -37t-2 -47.5v-39h-207v47q0 123 80.5 211t197.5 88q84 0 152 -52q66 51 162 52q199 0 251 -197q14 -51 15 -92v-326h-342v-243v-13q0 -8 4 -27.5t11 -34t23.5 -26.5t37.5 -12q70 10 73 113v122zM252 291q0 -104 57 -105q35 0 60.5 19.5t25.5 48.5v287 q-143 -62 -143 -250zM588 842v-158h149v158q0 12 -1 31.5t-19.5 51t-52.5 31.5q-33 0 -52.5 -28.5t-21.5 -57.5z" />
<glyph unicode="&#x1fe;" horiz-adv-x="724" d="M385 1833h215l-162 -184h-159zM188 -20h-129l47 157q-18 37 -27 80t-9 68l-2 24v887q0 12 2 34.5t17 79t43 99.5t88.5 78t143.5 35q92 0 158 -43l15 47h122l-45 -150q20 -39 31.5 -84t11.5 -71l2 -25v-887q0 -12 -2 -34.5t-17 -79t-43 -99.5t-88.5 -77.5t-144.5 -34.5 q-96 0 -159 43zM362.5 199q34.5 0 53 27.5t18.5 56.5l2 26v488l-147 -488q0 -12 1 -30.5t19.5 -49t53 -30.5zM289 1196v-469l147 479q-8 100 -74 101q-35 0 -53 -28t-18 -54z" />
<glyph unicode="&#x1ff;" horiz-adv-x="657" d="M356 1505h215l-162 -184h-159zM205 -78h-80l31 121q-41 39 -64.5 97.5t-25.5 97.5l-3 41v563q0 12 1.5 31.5t15.5 70.5t38.5 90t80 71t129.5 32q51 0 106 -19l21 80h75l-30 -121q88 -84 94 -229v-576q0 -12 -1 -31.5t-15.5 -68.5t-40 -88t-80 -69.5t-129.5 -30.5 q-57 0 -103 16zM258 842v-406l125 486q-18 35 -55 34q-68 -10 -70 -114zM328 166q70 10 71 113v403l-125 -485q17 -31 54 -31z" />
<glyph unicode="&#x202;" horiz-adv-x="765" d="M502 1645l106 94l-27 27q-17 16 -77 42.5t-121 26.5q-63 0 -119.5 -24.5t-81.5 -48.5l-24 -23l110 -94q41 47 115 47q35 0 64.5 -12t41.5 -25zM236 0h-216l228 1505h270l227 -1505h-215l-41 307h-213zM459 541l-64 475l-6 39h-12l-6 -39l-64 -475h152z" />
<glyph unicode="&#x203;" horiz-adv-x="681" d="M469 1260l106 94l-27 27q-17 16 -77 42.5t-121 26.5q-63 0 -119.5 -24.5t-81.5 -48.5l-24 -23l110 -94q41 47 115 47q35 0 64.5 -12t41.5 -25zM252 291q0 -104 57 -105q35 0 60.5 19.5t25.5 48.5v287q-143 -62 -143 -250zM49 260q0 106 34 187t83 124t98 73t88 50.5 t43 36.5v37v86q0 102 -57 102q-20 0 -32.5 -9t-17.5 -32.5t-7 -37t-2 -47.5v-39h-207v47q0 123 80.5 211t197.5 88q102 0 177 -74t75 -180v-351v-337q0 -109 14 -195h-202q-18 20 -19 90h-14q-20 -37 -65.5 -71.5t-100.5 -34.5q-59 0 -112.5 60t-53.5 216z" />
<glyph unicode="&#x206;" horiz-adv-x="628" d="M455 1645l106 94l-27 27q-17 16 -77 42.5t-121 26.5q-63 0 -119.5 -24.5t-81.5 -48.5l-24 -23l110 -94q41 47 115 47q35 0 64.5 -12t41.5 -25zM82 0v1505h506v-227h-285v-395h205v-242h-205v-414h285v-227h-506z" />
<glyph unicode="&#x207;" horiz-adv-x="659" d="M453 1260l106 94l-27 27q-17 16 -77 42.5t-121 26.5q-63 0 -119.5 -24.5t-81.5 -48.5l-24 -23l110 -94q41 47 115 47q35 0 64.5 -12t41.5 -25zM408 401h192v-129q0 -12 -2 -31.5t-16.5 -68.5t-39 -88t-79.5 -69.5t-131 -30.5q-74 0 -129.5 30.5t-80 73.5t-38.5 86t-16 74 l-2 31v563q0 12 2 31.5t16 70.5t40 90t81 71t129 32q199 0 252 -197q14 -51 14 -92v-326h-342v-243v-13q0 -8 4 -27.5t11.5 -34t23.5 -26.5t37 -12q70 10 74 113v122zM258 842v-158h150v158q0 12 -1 31.5t-19.5 51t-53.5 31.5q-33 0 -52.5 -28.5t-21.5 -57.5z" />
<glyph unicode="&#x20a;" horiz-adv-x="385" d="M312 1645l106 94l-27 27q-17 16 -77 42.5t-121 26.5q-63 0 -119.5 -24.5t-81.5 -48.5l-24 -23l110 -94q41 47 115 47q35 0 64.5 -12t41.5 -25zM82 0v1505h221v-1505h-221z" />
<glyph unicode="&#x20b;" horiz-adv-x="370" d="M303 1260l106 94l-27 27q-17 16 -77 42.5t-121 26.5q-63 0 -119.5 -24.5t-81.5 -48.5l-24 -23l110 -94q41 47 115 47q35 0 64.5 -12t41.5 -25zM289 0h-207v1120h207v-1120z" />
<glyph unicode="&#x20e;" horiz-adv-x="724" d="M481 1645l106 94l-27 27q-17 16 -77 42.5t-121 26.5q-63 0 -119.5 -24.5t-81.5 -48.5l-24 -23l110 -94q41 47 115 47q35 0 64.5 -12t41.5 -25zM657 309q0 -12 -2 -34.5t-17 -79t-43 -99.5t-88.5 -77.5t-144 -34.5t-144 33.5t-88.5 81.5t-43 95.5t-17 79.5l-2 35v887 q0 12 2 34.5t17 79t43 99.5t88.5 78t144 35t144 -34t88.5 -81t43 -95t17 -83l2 -33v-887zM436 1196q0 12 -1 30.5t-19.5 49.5t-53 31t-53 -28t-18.5 -54l-2 -29v-887q0 -12 1 -30.5t19.5 -49t53 -30.5t53 27.5t18.5 56.5l2 26v887z" />
<glyph unicode="&#x20f;" horiz-adv-x="657" d="M447 1260l106 94l-27 27q-17 16 -77 42.5t-121 26.5q-63 0 -119.5 -24.5t-81.5 -48.5l-24 -23l110 -94q41 47 115 47q35 0 64.5 -12t41.5 -25zM594 848v-576q0 -12 -1 -31.5t-15.5 -68.5t-40 -88t-80 -69.5t-129.5 -30.5q-74 0 -129.5 30.5t-80 73.5t-38.5 86t-14 74 l-3 31v563q0 12 1.5 31.5t15.5 70.5t38.5 90t80 71t129.5 32q199 0 252 -197q14 -51 14 -92zM399 842q-1 1 -0.5 4t1 8.5t0.5 6.5q0 9 -3 21q-4 17 -10 33.5t-21.5 28.5t-37.5 12q-68 -10 -70 -114v-563q1 -1 1 -4t-1 -8.5t-1 -7.5q0 -9 3 -20q4 -17 10 -34t21.5 -28 t36.5 -11q70 10 71 113v563z" />
<glyph unicode="&#x212;" horiz-adv-x="739" d="M312 1645l106 94l-27 27q-17 16 -77 42.5t-121 26.5q-63 0 -119.5 -24.5t-81.5 -48.5l-24 -23l110 -94q41 47 115 47q35 0 64.5 -12t41.5 -25zM698 0h-221l-115 635h-59v-635h-221v1505h221q377 0 377 -434q0 -258 -123 -342zM467 1063q0 76 -15.5 125t-45 68.5t-51 24.5 t-52.5 5v-446q31 0 52.5 5t51 24.5t45 68.5t15.5 125z" />
<glyph unicode="&#x213;" horiz-adv-x="503" d="M408 1260l106 94l-27 27q-17 16 -77 42.5t-121 26.5q-63 0 -119.5 -24.5t-81.5 -48.5l-24 -23l110 -94q41 47 115 47q35 0 64.5 -12t41.5 -25zM496 1137v-230q-34 11 -64 11q-56 0 -98 -37q-45 -41 -45 -103v-778h-207v1120h207v-125q8 41 58.5 91.5t148.5 50.5z" />
<glyph unicode="&#x216;" horiz-adv-x="749" d="M494 1645l106 94l-27 27q-17 16 -77 42.5t-121 26.5q-63 0 -119.5 -24.5t-81.5 -48.5l-24 -23l110 -94q41 47 115 47q35 0 64.5 -12t41.5 -25zM449 1505h221v-1196q0 -12 -2 -34.5t-17.5 -79t-43 -99.5t-88 -77.5t-144.5 -34.5t-144.5 33.5t-88 81.5t-43 95.5t-17.5 79.5 l-2 35v1196h221v-1196q0 -12 1 -30.5t19.5 -49t53.5 -30.5t53 27.5t18 56.5l3 26v1196z" />
<glyph unicode="&#x217;" d="M463 1260l106 94l-27 27q-17 16 -77 42.5t-121 26.5q-63 0 -119.5 -24.5t-81.5 -48.5l-24 -23l110 -94q41 47 115 47q35 0 64.5 -12t41.5 -25zM334 184q41 0 67 54v882h207v-1120h-207v94l-31 -32q-30 -30 -67 -54t-70 -24q-76 0 -115.5 68.5t-39.5 150.5v917h207v-887 q0 -49 49 -49z" />
<glyph unicode="&#x218;" horiz-adv-x="702" d="M465 -140v-227l-113 -266h-102l72 266h-72v227h215zM68 1169q0 139 71.5 245t216.5 108h10q88 0 150 -35q66 -37 95.5 -101.5t42 -127t12.5 -136.5l-217 -20q0 217 -89 217q-76 -2 -75 -150q0 -18 4 -39.5t10 -39t18.5 -43t20.5 -40t28 -43.5l28 -43l33 -48l32 -46 l104 -159q31 -49 67 -139.5t36 -166.5q0 -379 -308 -378q-82 0 -142 25.5t-94 63.5t-53.5 99t-25.5 117.5t-6 132.5l217 20q0 -256 104 -256q90 0 91 166q0 29 -8.5 59.5t-32 73.5t-36.5 64l-54 79q-40 58 -48 72q-66 96 -102.5 158t-68 148.5t-31.5 162.5z" />
<glyph unicode="&#x219;" horiz-adv-x="630" d="M432 -140v-227l-113 -266h-102l72 266h-72v227h215zM72 834q0 55 12 104t39 95t78 74t123 30h11q78 0 131 -26q56 -28 80.5 -79t33 -95t8.5 -103h-193q0 131 -67 131q-63 -2 -64 -131q0 -33 23.5 -73t45 -62.5t66.5 -65.5q190 -182 191 -342q0 -123 -64.5 -215 t-199.5 -92q-72 0 -126.5 24.5t-85 60t-49 85t-23.5 89.5t-5 83h192q0 -170 97 -170q72 0 71 135q0 74 -129 198q-68 66 -98.5 99t-64 101.5t-33.5 144.5z" />
<glyph unicode="&#x21a;" horiz-adv-x="647" d="M432 -123v-227l-113 -266h-102l72 266h-72v227h215zM213 1278h-209v227h639v-227h-209v-1278h-221v1278z" />
<glyph unicode="&#x21b;" horiz-adv-x="501" d="M469 -140v-227l-113 -266h-102l72 266h-72v227h215zM125 1397h207v-277h141v-186h-141v-557q0 -184 65 -184l76 8v-203q-45 -14 -111 -14q-68 0 -115.5 28.5t-70 64.5t-35 96t-14.5 95t-2 92v574h-105v186h105v277z" />
<glyph unicode="&#x21e;" horiz-adv-x="778" d="M498 1645h-220l-141 184h189l61 -72l63 72h189zM475 0v655h-172v-655h-221v1505h221v-622h172v622h221v-1505h-221z" />
<glyph unicode="&#x21f;" d="M457 1629h-220l-141 184h189l61 -72l63 72h189zM356 936q-41 0 -67 -53v-883h-207v1505h207v-479l32 32q30 30 66.5 54.5t69.5 24.5q76 0 115.5 -69t39.5 -150v-918h-206v887q-1 49 -50 49z" />
<glyph unicode="&#x226;" horiz-adv-x="765" d="M281 1644v207h206v-207h-206zM236 0h-216l228 1505h270l227 -1505h-215l-41 307h-213zM459 541l-64 475l-6 39h-12l-6 -39l-64 -475h152z" />
<glyph unicode="&#x227;" horiz-adv-x="681" d="M248 1259v207h206v-207h-206zM252 291q0 -104 57 -105q35 0 60.5 19.5t25.5 48.5v287q-143 -62 -143 -250zM49 260q0 106 34 187t83 124t98 73t88 50.5t43 36.5v37v86q0 102 -57 102q-20 0 -32.5 -9t-17.5 -32.5t-7 -37t-2 -47.5v-39h-207v47q0 123 80.5 211t197.5 88 q102 0 177 -74t75 -180v-351v-337q0 -109 14 -195h-202q-18 20 -19 90h-14q-20 -37 -65.5 -71.5t-100.5 -34.5q-59 0 -112.5 60t-53.5 216z" />
<glyph unicode="&#x228;" horiz-adv-x="628" d="M422 8v-141l-45 -133h-104l40 133h-63v141h172zM82 0v1505h506v-227h-285v-395h205v-242h-205v-414h285v-227h-506z" />
<glyph unicode="&#x229;" horiz-adv-x="659" d="M418 -9v-141l-45 -133h-104l40 133h-63v141h172zM408 401h192v-129q0 -12 -2 -31.5t-16.5 -68.5t-39 -88t-79.5 -69.5t-131 -30.5q-74 0 -129.5 30.5t-80 73.5t-38.5 86t-16 74l-2 31v563q0 12 2 31.5t16 70.5t40 90t81 71t129 32q199 0 252 -197q14 -51 14 -92v-326 h-342v-243v-13q0 -8 4 -27.5t11.5 -34t23.5 -26.5t37 -12q70 10 74 113v122zM258 842v-158h150v158q0 12 -1 31.5t-19.5 51t-53.5 31.5q-33 0 -52.5 -28.5t-21.5 -57.5z" />
<glyph unicode="&#x22a;" horiz-adv-x="724" d="M163 1962v162h398v-162h-398zM657 309q0 -12 -2 -34.5t-17 -79t-43 -99.5t-88.5 -77.5t-144 -34.5t-144 33.5t-88.5 81.5t-43 95.5t-17 79.5l-2 35v887q0 12 2 34.5t17 79t43 99.5t88.5 78t144 35t144 -34t88.5 -81t43 -95t17 -83l2 -33v-887zM436 1196q0 12 -1 30.5 t-19.5 49.5t-53 31t-53 -28t-18.5 -54l-2 -29v-887q0 -12 1 -30.5t19.5 -49t53 -30.5t53 27.5t18.5 56.5l2 26v887zM123 1638v201h190v-201h-190zM412 1638v201h190v-201h-190z" />
<glyph unicode="&#x22b;" horiz-adv-x="657" d="M131 1628v162h398v-162h-398zM594 848v-576q0 -12 -1 -31.5t-15.5 -68.5t-40 -88t-80 -69.5t-129.5 -30.5q-74 0 -129.5 30.5t-80 73.5t-38.5 86t-14 74l-3 31v563q0 12 1.5 31.5t15.5 70.5t38.5 90t80 71t129.5 32q199 0 252 -197q14 -51 14 -92zM399 842q-2 0 0 11 t-2 28.5t-10 34t-21.5 28.5t-37.5 12q-68 -10 -70 -114v-563q2 0 0 -11.5t2 -29t10 -34t21.5 -27.5t36.5 -11q70 10 71 113v563zM90 1305v200h191v-200h-191zM379 1305v200h190v-200h-190z" />
<glyph unicode="&#x22c;" horiz-adv-x="724" d="M73 1946v162h398v-162h-398zM657 309q0 -12 -2 -34.5t-17 -79t-43 -99.5t-88.5 -77.5t-144 -34.5t-144 33.5t-88.5 81.5t-43 95.5t-17 79.5l-2 35v887q0 12 2 34.5t17 79t43 99.5t88.5 78t144 35t144 -34t88.5 -81t43 -95t17 -83l2 -33v-887zM436 1196q0 12 -1 30.5 t-19.5 49.5t-53 31t-53 -28t-18.5 -54l-2 -29v-887q0 -12 1 -30.5t19.5 -49t53 -30.5t53 27.5t18.5 56.5l2 26v887zM272 1665q-25 0 -52 -8t-42 -17l-14 -8v152q49 39 108 39q33 0 91.5 -18.5t89.5 -20.5q25 0 52 8t42 16l14 9v-152q-51 -39 -108 -39q-31 0 -89.5 19.5 t-91.5 19.5z" />
<glyph unicode="&#x22d;" horiz-adv-x="657" d="M41 1618v162h398v-162h-398zM594 848v-576q0 -12 -1 -31.5t-15.5 -68.5t-40 -88t-80 -69.5t-129.5 -30.5q-74 0 -129.5 30.5t-80 73.5t-38.5 86t-14 74l-3 31v563q0 12 1.5 31.5t15.5 70.5t38.5 90t80 71t129.5 32q199 0 252 -197q14 -51 14 -92zM399 842q-2 0 0 11 t-2 28.5t-10 34t-21.5 28.5t-37.5 12q-68 -10 -70 -114v-563q2 0 0 -11.5t2 -29t10 -34t21.5 -27.5t36.5 -11q70 10 71 113v563zM240 1337q-25 0 -52.5 -8t-42.5 -16l-14 -8v151q49 39 109 39q33 0 91 -18.5t89 -20.5q25 0 52.5 8.5t41.5 16.5l14 8v-152q-51 -39 -108 -39 q-31 0 -89 19.5t-91 19.5z" />
<glyph unicode="&#x22e;" horiz-adv-x="724" d="M261 1644v207h206v-207h-206zM657 309q0 -12 -2 -34.5t-17 -79t-43 -99.5t-88.5 -77.5t-144 -34.5t-144 33.5t-88.5 81.5t-43 95.5t-17 79.5l-2 35v887q0 12 2 34.5t17 79t43 99.5t88.5 78t144 35t144 -34t88.5 -81t43 -95t17 -83l2 -33v-887zM436 1196q0 12 -1 30.5 t-19.5 49.5t-53 31t-53 -28t-18.5 -54l-2 -29v-887q0 -12 1 -30.5t19.5 -49t53 -30.5t53 27.5t18.5 56.5l2 26v887z" />
<glyph unicode="&#x22f;" horiz-adv-x="657" d="M224 1259v207h206v-207h-206zM594 848v-576q0 -12 -1 -31.5t-15.5 -68.5t-40 -88t-80 -69.5t-129.5 -30.5q-74 0 -129.5 30.5t-80 73.5t-38.5 86t-14 74l-3 31v563q0 12 1.5 31.5t15.5 70.5t38.5 90t80 71t129.5 32q199 0 252 -197q14 -51 14 -92zM399 842q-1 1 -0.5 4 t1 8.5t0.5 6.5q0 9 -3 21q-4 17 -10 33.5t-21.5 28.5t-37.5 12q-68 -10 -70 -114v-563q1 -1 1 -4t-1 -8.5t-1 -7.5q0 -9 3 -20q4 -17 10 -34t21.5 -28t36.5 -11q70 10 71 113v563z" />
<glyph unicode="&#x230;" horiz-adv-x="724" d="M163 1974v162h398v-162h-398zM261 1644v207h206v-207h-206zM657 309q0 -12 -2 -34.5t-17 -79t-43 -99.5t-88.5 -77.5t-144 -34.5t-144 33.5t-88.5 81.5t-43 95.5t-17 79.5l-2 35v887q0 12 2 34.5t17 79t43 99.5t88.5 78t144 35t144 -34t88.5 -81t43 -95t17 -83l2 -33 v-887zM436 1196q0 12 -1 30.5t-19.5 49.5t-53 31t-53 -28t-18.5 -54l-2 -29v-887q0 -12 1 -30.5t19.5 -49t53 -30.5t53 27.5t18.5 56.5l2 26v887z" />
<glyph unicode="&#x2c6;" horiz-adv-x="1021" d="M401 1489h220l141 -184h-189l-63 71l-61 -71h-189z" />
<glyph unicode="&#x2c7;" horiz-adv-x="1021" d="M621 1305h-220l-141 184h189l61 -72l63 72h189z" />
<glyph unicode="&#x2d8;" horiz-adv-x="1024" d="M631 1493l106 -94l-27 -27q-17 -16 -77 -42.5t-121 -26.5q-63 0 -119.5 24.5t-81.5 48.5l-24 23l110 94q41 -47 115 -47q35 0 64.5 12t41.5 25z" />
<glyph unicode="&#x2d9;" horiz-adv-x="1021" d="M408 1298v207h206v-207h-206z" />
<glyph unicode="&#x2da;" horiz-adv-x="1021" d="M358 1421.5q0 61.5 45.5 102.5t108.5 41t107.5 -41t44.5 -102.5t-44.5 -102.5t-107.5 -41t-108.5 41t-45.5 102.5zM436 1421.5q0 -28.5 23.5 -50t52.5 -21.5t52.5 21.5t23.5 50t-23.5 50t-52.5 21.5t-52.5 -21.5t-23.5 -50z" />
<glyph unicode="&#x2db;" horiz-adv-x="1024" d="M348 -211q0 104 127 205l8 6h99q-10 -8 -25.5 -22.5t-41.5 -59.5t-26 -88q0 -41 31 -59.5t72 -18.5t86 19l-16 -138q-55 -18 -105 -18q-96 0 -152.5 51t-56.5 123z" />
<glyph unicode="&#x2dc;" horiz-adv-x="1024" d="M422 1337q-25 0 -52.5 -8t-41.5 -16l-15 -8v151q49 39 109 39q33 0 91 -18.5t89 -20.5q25 0 52.5 8.5t41.5 16.5l15 8v-152q-51 -39 -109 -39q-31 0 -89 19.5t-91 19.5z" />
<glyph unicode="&#x2dd;" horiz-adv-x="1024" d="M322 1489h215l-162 -184h-160zM625 1489h215l-162 -184h-160z" />
<glyph unicode="&#x391;" horiz-adv-x="765" d="M236 0h-216l228 1505h270l227 -1505h-215l-41 307h-213zM459 541l-64 475l-6 39h-12l-6 -39l-64 -475h152z" />
<glyph unicode="&#x392;" horiz-adv-x="745" d="M354 0h-272v1505h194q205 0 304.5 -91t99.5 -308q0 -106 -29.5 -175t-107.5 -136q6 -2 16 -9.5t37 -35t47.5 -65.5t36.5 -106.5t16 -152.5q0 -414 -342 -426zM467 451q0 82 -16.5 134t-46 70.5t-48 22.5t-45.5 4h-8v-463q74 0 109 31q55 56 55 201zM467 1085.5 q0 59.5 -14.5 100.5t-30.5 60.5t-45 28.5t-40 10t-34 1v-401q23 0 34 1t40 10t45 28.5t30.5 60.5t14.5 100.5z" />
<glyph unicode="&#x395;" horiz-adv-x="628" d="M82 0v1505h506v-227h-285v-395h205v-242h-205v-414h285v-227h-506z" />
<glyph unicode="&#x396;" horiz-adv-x="626" d="M20 0v238l347 1048h-297v219h536v-219l-352 -1067h352v-219h-586z" />
<glyph unicode="&#x397;" horiz-adv-x="778" d="M475 0v655h-172v-655h-221v1505h221v-622h172v622h221v-1505h-221z" />
<glyph unicode="&#x399;" horiz-adv-x="385" d="M82 0v1505h221v-1505h-221z" />
<glyph unicode="&#x39a;" horiz-adv-x="768" d="M82 1505h221v-501v-25h8l11 25l184 501h215l-203 -495l230 -1010h-216l-153 655l-6 31h-6l-13 -31l-51 -123v-532h-221v1505z" />
<glyph unicode="&#x39c;" horiz-adv-x="991" d="M543 0h-94l-142 946l-8 64h-12v-64v-946h-205v1505h270l131 -688l11 -80h4l10 80l131 688h270v-1505h-204v946v64h-13l-8 -64z" />
<glyph unicode="&#x39d;" horiz-adv-x="808" d="M530 0l-215 784l-18 70h-12v-70v-784h-203v1505h197l215 -784l18 -70h12v70v784h203v-1505h-197z" />
<glyph unicode="&#x39f;" horiz-adv-x="724" d="M657 309q0 -12 -2 -34.5t-17 -79t-43 -99.5t-88.5 -77.5t-144 -34.5t-144 33.5t-88.5 81.5t-43 95.5t-17 79.5l-2 35v887q0 12 2 34.5t17 79t43 99.5t88.5 78t144 35t144 -34t88.5 -81t43 -95t17 -83l2 -33v-887zM436 1196q0 12 -1 30.5t-19.5 49.5t-53 31t-53 -28 t-18.5 -54l-2 -29v-887q0 -12 1 -30.5t19.5 -49t53 -30.5t53 27.5t18.5 56.5l2 26v887z" />
<glyph unicode="&#x3a1;" horiz-adv-x="720" d="M82 0v1505h221q166 0 277.5 -105.5t111.5 -345t-111.5 -346t-277.5 -106.5v-602h-221zM303 1280v-453q102 0 134 45.5t32 174.5q0 131 -33 182t-133 51z" />
<glyph unicode="&#x3a4;" horiz-adv-x="647" d="M213 1278h-209v227h639v-227h-209v-1278h-221v1278z" />
<glyph unicode="&#x3a5;" horiz-adv-x="700" d="M231 1505l111 -481l6 -14h4l6 14l111 481h217l-225 -864v-641h-221v641l-226 864h217z" />
<glyph unicode="&#x3a7;" horiz-adv-x="737" d="M360 449l-127 -449h-217l244 791l-240 714h218l120 -381l7 -18h8l6 18l121 381h217l-240 -714l244 -791h-217l-127 449l-4 18h-8z" />
<glyph unicode="&#x3aa;" horiz-adv-x="385" d="M-47 1645v200h191v-200h-191zM242 1645v200h191v-200h-191zM82 0v1505h221v-1505h-221z" />
<glyph unicode="&#x3ab;" horiz-adv-x="700" d="M110 1645v200h191v-200h-191zM399 1645v200h191v-200h-191zM231 1505l111 -481l6 -14h4l6 14l111 481h217l-225 -864v-641h-221v641l-226 864h217z" />
<glyph unicode="&#x3bf;" horiz-adv-x="657" d="M594 848v-576q0 -12 -1 -31.5t-15.5 -68.5t-40 -88t-80 -69.5t-129.5 -30.5q-74 0 -129.5 30.5t-80 73.5t-38.5 86t-14 74l-3 31v563q0 12 1.5 31.5t15.5 70.5t38.5 90t80 71t129.5 32q199 0 252 -197q14 -51 14 -92zM399 842q-1 1 -0.5 4t1 8.5t0.5 6.5q0 9 -3 21 q-4 17 -10 33.5t-21.5 28.5t-37.5 12q-68 -10 -70 -114v-563q1 -1 1 -4t-1 -8.5t-1 -7.5q0 -9 3 -20q4 -17 10 -34t21.5 -28t36.5 -11q70 10 71 113v563z" />
<glyph unicode="&#x3c1;" horiz-adv-x="686" d="M82 -385v1505h207v-73q88 90 164 90q78 0 118.5 -69t40.5 -150v-715q0 -82 -41 -150.5t-118 -68.5q-33 0 -74 22.5t-66 44.5l-24 23v-459h-207zM289 874v-628q0 -25 19.5 -46.5t42 -21.5t39 19.5t16.5 48.5v628q0 29 -16.5 48.5t-39 19.5t-42 -19.5t-19.5 -48.5z" />
<glyph unicode="&#x3c7;" horiz-adv-x="618" d="M16 0l193 578l-176 542h194l74 -262l6 -31h4l6 31l74 262h195l-176 -542l192 -578h-201l-84 283l-6 30h-4l-6 -30l-84 -283h-201z" />
<glyph unicode="&#x410;" horiz-adv-x="765" d="M236 0h-216l228 1505h270l227 -1505h-215l-41 307h-213zM459 541l-64 475l-6 39h-12l-6 -39l-64 -475h152z" />
<glyph unicode="&#x412;" horiz-adv-x="745" d="M354 0h-272v1505h194q205 0 304.5 -91t99.5 -308q0 -106 -29.5 -175t-107.5 -136q6 -2 16 -9.5t37 -35t47.5 -65.5t36.5 -106.5t16 -152.5q0 -414 -342 -426zM467 451q0 82 -16.5 134t-46 70.5t-48 22.5t-45.5 4h-8v-463q74 0 109 31q55 56 55 201zM467 1085.5 q0 59.5 -14.5 100.5t-30.5 60.5t-45 28.5t-40 10t-34 1v-401q23 0 34 1t40 10t45 28.5t30.5 60.5t14.5 100.5z" />
<glyph unicode="&#x415;" horiz-adv-x="628" d="M82 0v1505h506v-227h-285v-395h205v-242h-205v-414h285v-227h-506z" />
<glyph unicode="&#x41a;" horiz-adv-x="768" d="M82 1505h221v-501v-25h8l11 25l184 501h215l-203 -495l230 -1010h-216l-153 655l-6 31h-6l-13 -31l-51 -123v-532h-221v1505z" />
<glyph unicode="&#x41c;" horiz-adv-x="991" d="M543 0h-94l-142 946l-8 64h-12v-64v-946h-205v1505h270l131 -688l11 -80h4l10 80l131 688h270v-1505h-204v946v64h-13l-8 -64z" />
<glyph unicode="&#x41d;" horiz-adv-x="778" d="M475 0v655h-172v-655h-221v1505h221v-622h172v622h221v-1505h-221z" />
<glyph unicode="&#x41e;" horiz-adv-x="724" d="M657 309q0 -12 -2 -34.5t-17 -79t-43 -99.5t-88.5 -77.5t-144 -34.5t-144 33.5t-88.5 81.5t-43 95.5t-17 79.5l-2 35v887q0 12 2 34.5t17 79t43 99.5t88.5 78t144 35t144 -34t88.5 -81t43 -95t17 -83l2 -33v-887zM436 1196q0 12 -1 30.5t-19.5 49.5t-53 31t-53 -28 t-18.5 -54l-2 -29v-887q0 -12 1 -30.5t19.5 -49t53 -30.5t53 27.5t18.5 56.5l2 26v887z" />
<glyph unicode="&#x420;" horiz-adv-x="720" d="M82 0v1505h221q166 0 277.5 -105.5t111.5 -345t-111.5 -346t-277.5 -106.5v-602h-221zM303 1280v-453q102 0 134 45.5t32 174.5q0 131 -33 182t-133 51z" />
<glyph unicode="&#x421;" horiz-adv-x="708" d="M451 516h206v-207q0 -12 -2 -34.5t-17 -79t-43 -99.5t-88.5 -77.5t-144 -34.5t-144 33.5t-88.5 81.5t-43 95.5t-17 79.5l-2 35v887q0 12 2 34.5t17 79t43 99.5t88.5 78t144 35t144 -34t88.5 -81t43 -95t17 -83l2 -33v-207h-206v207q-2 0 0 11.5t-3.5 27.5t-12.5 32.5 t-24.5 28t-43.5 11.5q-70 -10 -78 -111v-887q0 -12 2 -30.5t21.5 -49t54.5 -30.5q41 0 62.5 27.5t21.5 56.5v26v207z" />
<glyph unicode="&#x422;" horiz-adv-x="647" d="M213 1278h-209v227h639v-227h-209v-1278h-221v1278z" />
<glyph unicode="&#x425;" horiz-adv-x="737" d="M360 449l-127 -449h-217l244 791l-240 714h218l120 -381l7 -18h8l6 18l121 381h217l-240 -714l244 -791h-217l-127 449l-4 18h-8z" />
<glyph unicode="&#x430;" horiz-adv-x="681" d="M252 291q0 -104 57 -105q35 0 60.5 19.5t25.5 48.5v287q-143 -62 -143 -250zM49 260q0 106 34 187t83 124t98 73t88 50.5t43 36.5v37v86q0 102 -57 102q-20 0 -32.5 -9t-17.5 -32.5t-7 -37t-2 -47.5v-39h-207v47q0 123 80.5 211t197.5 88q102 0 177 -74t75 -180v-351 v-337q0 -109 14 -195h-202q-18 20 -19 90h-14q-20 -37 -65.5 -71.5t-100.5 -34.5q-59 0 -112.5 60t-53.5 216z" />
<glyph unicode="&#x435;" horiz-adv-x="659" d="M408 401h192v-129q0 -12 -2 -31.5t-16.5 -68.5t-39 -88t-79.5 -69.5t-131 -30.5q-74 0 -129.5 30.5t-80 73.5t-38.5 86t-16 74l-2 31v563q0 12 2 31.5t16 70.5t40 90t81 71t129 32q199 0 252 -197q14 -51 14 -92v-326h-342v-243v-13q0 -8 4 -27.5t11.5 -34t23.5 -26.5 t37 -12q70 10 74 113v122zM258 842v-158h150v158q0 12 -1 31.5t-19.5 51t-53.5 31.5q-33 0 -52.5 -28.5t-21.5 -57.5z" />
<glyph unicode="&#x43e;" horiz-adv-x="657" d="M594 848v-576q0 -12 -1 -31.5t-15.5 -68.5t-40 -88t-80 -69.5t-129.5 -30.5q-74 0 -129.5 30.5t-80 73.5t-38.5 86t-14 74l-3 31v563q0 12 1.5 31.5t15.5 70.5t38.5 90t80 71t129.5 32q199 0 252 -197q14 -51 14 -92zM399 842q-1 1 -0.5 4t1 8.5t0.5 6.5q0 9 -3 21 q-4 17 -10 33.5t-21.5 28.5t-37.5 12q-68 -10 -70 -114v-563q1 -1 1 -4t-1 -8.5t-1 -7.5q0 -9 3 -20q4 -17 10 -34t21.5 -28t36.5 -11q70 10 71 113v563z" />
<glyph unicode="&#x440;" horiz-adv-x="686" d="M82 -385v1505h207v-73q88 90 164 90q78 0 118.5 -69t40.5 -150v-715q0 -82 -41 -150.5t-118 -68.5q-33 0 -74 22.5t-66 44.5l-24 23v-459h-207zM289 874v-628q0 -25 19.5 -46.5t42 -21.5t39 19.5t16.5 48.5v628q0 29 -16.5 48.5t-39 19.5t-42 -19.5t-19.5 -48.5z" />
<glyph unicode="&#x441;" horiz-adv-x="645" d="M272 862v-604q0 -90 58 -90q35 0 47 19.5t12 70.5v156h207v-109q0 -180 -64.5 -250.5t-201.5 -70.5q-264 0 -264 331v490q0 332 264 332q137 0 201.5 -71t64.5 -251v-88h-207v135q0 51 -12 70.5t-47 19.5q-58 0 -58 -90z" />
<glyph unicode="&#x443;" horiz-adv-x="634" d="M33 -397v184q16 -4 49 -4q61 6 97 61.5t36 122.5l-190 1153h202l82 -688l4 -57h9l4 57l82 688h202l-198 -1204q-16 -127 -94 -222t-193 -95z" />
<glyph unicode="&#x445;" horiz-adv-x="618" d="M16 0l193 578l-176 542h194l74 -262l6 -31h4l6 31l74 262h195l-176 -542l192 -578h-201l-84 283l-6 30h-4l-6 -30l-84 -283h-201z" />
<glyph unicode="&#x1e00;" horiz-adv-x="765" d="M231 -266.5q0 61.5 45.5 102.5t108.5 41t107.5 -41t44.5 -102.5t-44.5 -102.5t-107.5 -41t-108.5 41t-45.5 102.5zM309 -266.5q0 -28.5 23.5 -50t52.5 -21.5t52.5 21.5t23.5 50t-23.5 50t-52.5 21.5t-52.5 -21.5t-23.5 -50zM236 0h-216l228 1505h270l227 -1505h-215 l-41 307h-213zM459 541l-64 475l-6 39h-12l-6 -39l-64 -475h152z" />
<glyph unicode="&#x1e01;" horiz-adv-x="681" d="M63 -282.5q0 61.5 45.5 102.5t108.5 41t107.5 -41t44.5 -102.5t-44.5 -102.5t-107.5 -41t-108.5 41t-45.5 102.5zM141 -282.5q0 -28.5 23.5 -50t52.5 -21.5t52.5 21.5t23.5 50t-23.5 50t-52.5 21.5t-52.5 -21.5t-23.5 -50zM252 291q0 -104 57 -105q35 0 60.5 19.5 t25.5 48.5v287q-143 -62 -143 -250zM49 260q0 106 34 187t83 124t98 73t88 50.5t43 36.5v37v86q0 102 -57 102q-20 0 -32.5 -9t-17.5 -32.5t-7 -37t-2 -47.5v-39h-207v47q0 123 80.5 211t197.5 88q102 0 177 -74t75 -180v-351v-337q0 -109 14 -195h-202q-18 20 -19 90h-14 q-20 -37 -65.5 -71.5t-100.5 -34.5q-59 0 -112.5 60t-53.5 216z" />
<glyph unicode="&#x1e02;" horiz-adv-x="745" d="M285 1644v207h206v-207h-206zM354 0h-272v1505h194q205 0 304.5 -91t99.5 -308q0 -106 -29.5 -175t-107.5 -136q6 -2 16 -9.5t37 -35t47.5 -65.5t36.5 -106.5t16 -152.5q0 -414 -342 -426zM467 451q0 82 -16.5 134t-46 70.5t-48 22.5t-45.5 4h-8v-463q74 0 109 31 q55 56 55 201zM467 1085.5q0 59.5 -14.5 100.5t-30.5 60.5t-45 28.5t-40 10t-34 1v-401q23 0 34 1t40 10t45 28.5t30.5 60.5t14.5 100.5z" />
<glyph unicode="&#x1e03;" horiz-adv-x="686" d="M244 1628v207h206v-207h-206zM82 0v1505h207v-458q88 90 164 90q78 0 118.5 -69t40.5 -150v-715q0 -82 -41 -150.5t-118 -68.5q-33 0 -74 22.5t-66 44.5l-24 23v-74h-207zM289 246q0 -29 19.5 -48.5t42 -19.5t39 19.5t16.5 48.5v628q0 29 -16.5 48.5t-39 19.5t-42 -21.5 t-19.5 -46.5v-628z" />
<glyph unicode="&#x1e04;" horiz-adv-x="745" d="M115 -330v207h206v-207h-206zM354 0h-272v1505h194q205 0 304.5 -91t99.5 -308q0 -106 -29.5 -175t-107.5 -136q6 -2 16 -9.5t37 -35t47.5 -65.5t36.5 -106.5t16 -152.5q0 -414 -342 -426zM467 451q0 82 -16.5 134t-46 70.5t-48 22.5t-45.5 4h-8v-463q74 0 109 31 q55 56 55 201zM467 1085.5q0 59.5 -14.5 100.5t-30.5 60.5t-45 28.5t-40 10t-34 1v-401q23 0 34 1t40 10t45 28.5t30.5 60.5t14.5 100.5z" />
<glyph unicode="&#x1e05;" horiz-adv-x="686" d="M351 -347v207h206v-207h-206zM82 0v1505h207v-458q88 90 164 90q78 0 118.5 -69t40.5 -150v-715q0 -82 -41 -150.5t-118 -68.5q-33 0 -74 22.5t-66 44.5l-24 23v-74h-207zM289 246q0 -29 19.5 -48.5t42 -19.5t39 19.5t16.5 48.5v628q0 29 -16.5 48.5t-39 19.5t-42 -21.5 t-19.5 -46.5v-628z" />
<glyph unicode="&#x1e06;" horiz-adv-x="745" d="M18 -284v162h398v-162h-398zM354 0h-272v1505h194q205 0 304.5 -91t99.5 -308q0 -106 -29.5 -175t-107.5 -136q6 -2 16 -9.5t37 -35t47.5 -65.5t36.5 -106.5t16 -152.5q0 -414 -342 -426zM467 451q0 82 -16.5 134t-46 70.5t-48 22.5t-45.5 4h-8v-463q74 0 109 31 q55 56 55 201zM467 1085.5q0 59.5 -14.5 100.5t-30.5 60.5t-45 28.5t-40 10t-34 1v-401q23 0 34 1t40 10t45 28.5t30.5 60.5t14.5 100.5z" />
<glyph unicode="&#x1e07;" horiz-adv-x="686" d="M254 -301v162h398v-162h-398zM82 0v1505h207v-458q88 90 164 90q78 0 118.5 -69t40.5 -150v-715q0 -82 -41 -150.5t-118 -68.5q-33 0 -74 22.5t-66 44.5l-24 23v-74h-207zM289 246q0 -29 19.5 -48.5t42 -19.5t39 19.5t16.5 48.5v628q0 29 -16.5 48.5t-39 19.5t-42 -21.5 t-19.5 -46.5v-628z" />
<glyph unicode="&#x1e08;" horiz-adv-x="708" d="M389 1829h215l-162 -184h-159zM451 516h206v-207q0 -12 -2 -34.5t-17 -79t-43 -99.5t-88.5 -77.5t-144 -34.5t-144 33.5t-88.5 81.5t-43 95.5t-17 79.5l-2 35v887q0 12 2 34.5t17 79t43 99.5t88.5 78t144 35t144 -34t88.5 -81t43 -95t17 -83l2 -33v-207h-206v207 q-2 0 0 11.5t-3.5 27.5t-12.5 32.5t-24.5 28t-43.5 11.5q-70 -10 -78 -111v-887q0 -12 2 -30.5t21.5 -49t54.5 -30.5q41 0 62.5 27.5t21.5 56.5v26v207zM440 -252v141h-172v-141h64l-41 -133h104z" />
<glyph unicode="&#x1e09;" horiz-adv-x="645" d="M356 1444h215l-162 -184h-159zM272 862v-604q0 -90 58 -90q35 0 47 19.5t12 70.5v156h207v-109q0 -180 -64.5 -250.5t-201.5 -70.5q-264 0 -264 331v490q0 332 264 332q137 0 201.5 -71t64.5 -251v-88h-207v135q0 51 -12 70.5t-47 19.5q-58 0 -58 -90zM410 -252v141h-172 v-141h63l-41 -133h105z" />
<glyph unicode="&#x1e0a;" horiz-adv-x="761" d="M285 1644v207h206v-207h-206zM696 751.5q0 -141.5 -3 -228.5t-12 -176t-28.5 -138t-50.5 -95t-80 -67.5t-112.5 -34t-153.5 -12.5h-174v1505h174q90 0 153.5 -12t112.5 -33.5t80 -67.5t50.5 -95.5t28.5 -139.5t12 -177t3 -228.5zM303 1284v-1063q117 0 141 81 q23 75 23 396v55.5v55.5q0 322 -23 395q-24 80 -141 80z" />
<glyph unicode="&#x1e0b;" horiz-adv-x="686" d="M236 1628v207h206v-207h-206zM604 1505v-1505h-207v74q-88 -90 -164 -90q-78 0 -118.5 68.5t-40.5 150.5v715q0 82 41 150.5t118 68.5q33 0 74 -22.5t66 -45.5l24 -22v458h207zM397 246v628q0 25 -19.5 46.5t-42 21.5t-38.5 -19.5t-16 -48.5v-628q0 -29 16 -48.5 t38.5 -19.5t42 19.5t19.5 48.5z" />
<glyph unicode="&#x1e0c;" horiz-adv-x="761" d="M66 -330v207h206v-207h-206zM696 751.5q0 -141.5 -3 -228.5t-12 -176t-28.5 -138t-50.5 -95t-80 -67.5t-112.5 -34t-153.5 -12.5h-174v1505h174q90 0 153.5 -12t112.5 -33.5t80 -67.5t50.5 -95.5t28.5 -139.5t12 -177t3 -228.5zM303 1284v-1063q117 0 141 81 q23 75 23 396v55.5v55.5q0 322 -23 395q-24 80 -141 80z" />
<glyph unicode="&#x1e0d;" horiz-adv-x="686" d="M129 -347v207h206v-207h-206zM604 1505v-1505h-207v74q-88 -90 -164 -90q-78 0 -118.5 68.5t-40.5 150.5v715q0 82 41 150.5t118 68.5q33 0 74 -22.5t66 -45.5l24 -22v458h207zM397 246v628q0 25 -19.5 46.5t-42 21.5t-38.5 -19.5t-16 -48.5v-628q0 -29 16 -48.5 t38.5 -19.5t42 19.5t19.5 48.5z" />
<glyph unicode="&#x1e0e;" horiz-adv-x="761" d="M-31 -284v162h398v-162h-398zM696 751.5q0 -141.5 -3 -228.5t-12 -176t-28.5 -138t-50.5 -95t-80 -67.5t-112.5 -34t-153.5 -12.5h-174v1505h174q90 0 153.5 -12t112.5 -33.5t80 -67.5t50.5 -95.5t28.5 -139.5t12 -177t3 -228.5zM303 1284v-1063q117 0 141 81 q23 75 23 396v55.5v55.5q0 322 -23 395q-24 80 -141 80z" />
<glyph unicode="&#x1e0f;" horiz-adv-x="686" d="M34 -301v162h398v-162h-398zM604 1505v-1505h-207v74q-88 -90 -164 -90q-78 0 -118.5 68.5t-40.5 150.5v715q0 82 41 150.5t118 68.5q33 0 74 -22.5t66 -45.5l24 -22v458h207zM397 246v628q0 25 -19.5 46.5t-42 21.5t-38.5 -19.5t-16 -48.5v-628q0 -29 16 -48.5 t38.5 -19.5t42 19.5t19.5 48.5z" />
<glyph unicode="&#x1e10;" horiz-adv-x="761" d="M254 8v-141l-45 -133h-104l40 133h-63v141h172zM696 751.5q0 -141.5 -3 -228.5t-12 -176t-28.5 -138t-50.5 -95t-80 -67.5t-112.5 -34t-153.5 -12.5h-174v1505h174q90 0 153.5 -12t112.5 -33.5t80 -67.5t50.5 -95.5t28.5 -139.5t12 -177t3 -228.5zM303 1284v-1063 q117 0 141 81q23 75 23 396v55.5v55.5q0 322 -23 395q-24 80 -141 80z" />
<glyph unicode="&#x1e11;" horiz-adv-x="686" d="M319 -9v-141l-45 -133h-104l40 133h-63v141h172zM604 1505v-1505h-207v74q-88 -90 -164 -90q-78 0 -118.5 68.5t-40.5 150.5v715q0 82 41 150.5t118 68.5q33 0 74 -22.5t66 -45.5l24 -22v458h207zM397 246v628q0 25 -19.5 46.5t-42 21.5t-38.5 -19.5t-16 -48.5v-628 q0 -29 16 -48.5t38.5 -19.5t42 19.5t19.5 48.5z" />
<glyph unicode="&#x1e12;" horiz-adv-x="761" d="M59 -123h220l141 -184h-189l-63 71l-61 -71h-189zM696 751.5q0 -141.5 -3 -228.5t-12 -176t-28.5 -138t-50.5 -95t-80 -67.5t-112.5 -34t-153.5 -12.5h-174v1505h174q90 0 153.5 -12t112.5 -33.5t80 -67.5t50.5 -95.5t28.5 -139.5t12 -177t3 -228.5zM303 1284v-1063 q117 0 141 81q23 75 23 396v55.5v55.5q0 322 -23 395q-24 80 -141 80z" />
<glyph unicode="&#x1e13;" horiz-adv-x="686" d="M122 -139h220l141 -184h-189l-63 71l-61 -71h-189zM604 1505v-1505h-207v74q-88 -90 -164 -90q-78 0 -118.5 68.5t-40.5 150.5v715q0 82 41 150.5t118 68.5q33 0 74 -22.5t66 -45.5l24 -22v458h207zM397 246v628q0 25 -19.5 46.5t-42 21.5t-38.5 -19.5t-16 -48.5v-628 q0 -29 16 -48.5t38.5 -19.5t42 19.5t19.5 48.5z" />
<glyph unicode="&#x1e14;" horiz-adv-x="628" d="M92 2114h215l106 -184h-159zM137 1645v162h398v-162h-398zM82 0v1505h506v-227h-285v-395h205v-242h-205v-414h285v-227h-506z" />
<glyph unicode="&#x1e15;" horiz-adv-x="659" d="M92 1729h215l106 -184h-159zM135 1260v162h398v-162h-398zM408 401h192v-129q0 -12 -2 -31.5t-16.5 -68.5t-39 -88t-79.5 -69.5t-131 -30.5q-74 0 -129.5 30.5t-80 73.5t-38.5 86t-16 74l-2 31v563q0 12 2 31.5t16 70.5t40 90t81 71t129 32q199 0 252 -197q14 -51 14 -92 v-326h-342v-243v-13q0 -8 4 -27.5t11.5 -34t23.5 -26.5t37 -12q70 10 74 113v122zM258 842v-158h150v158q0 12 -1 31.5t-19.5 51t-53.5 31.5q-33 0 -52.5 -28.5t-21.5 -57.5z" />
<glyph unicode="&#x1e16;" horiz-adv-x="628" d="M360 2114h215l-162 -184h-159zM137 1645v162h398v-162h-398zM82 0v1505h506v-227h-285v-395h205v-242h-205v-414h285v-227h-506z" />
<glyph unicode="&#x1e17;" horiz-adv-x="659" d="M360 1729h215l-162 -184h-159zM135 1260v162h398v-162h-398zM408 401h192v-129q0 -12 -2 -31.5t-16.5 -68.5t-39 -88t-79.5 -69.5t-131 -30.5q-74 0 -129.5 30.5t-80 73.5t-38.5 86t-16 74l-2 31v563q0 12 2 31.5t16 70.5t40 90t81 71t129 32q199 0 252 -197 q14 -51 14 -92v-326h-342v-243v-13q0 -8 4 -27.5t11.5 -34t23.5 -26.5t37 -12q70 10 74 113v122zM258 842v-158h150v158q0 12 -1 31.5t-19.5 51t-53.5 31.5q-33 0 -52.5 -28.5t-21.5 -57.5z" />
<glyph unicode="&#x1e18;" horiz-adv-x="628" d="M225 -123h220l141 -184h-189l-63 71l-61 -71h-189zM82 0v1505h506v-227h-285v-395h205v-242h-205v-414h285v-227h-506z" />
<glyph unicode="&#x1e19;" horiz-adv-x="659" d="M221 -139h220l141 -184h-189l-63 71l-61 -71h-189zM408 401h192v-129q0 -12 -2 -31.5t-16.5 -68.5t-39 -88t-79.5 -69.5t-131 -30.5q-74 0 -129.5 30.5t-80 73.5t-38.5 86t-16 74l-2 31v563q0 12 2 31.5t16 70.5t40 90t81 71t129 32q199 0 252 -197q14 -51 14 -92v-326 h-342v-243v-13q0 -8 4 -27.5t11.5 -34t23.5 -26.5t37 -12q70 10 74 113v122zM258 842v-158h150v158q0 12 -1 31.5t-19.5 51t-53.5 31.5q-33 0 -52.5 -28.5t-21.5 -57.5z" />
<glyph unicode="&#x1e1a;" horiz-adv-x="628" d="M246 -281q-25 0 -52.5 -8t-41.5 -16l-15 -8v151q49 39 109 39q33 0 91 -18.5t89 -20.5q25 0 52.5 8.5t41.5 16.5l15 8v-152q-51 -39 -109 -39q-31 0 -89 19.5t-91 19.5zM82 0v1505h506v-227h-285v-395h205v-242h-205v-414h285v-227h-506z" />
<glyph unicode="&#x1e1b;" horiz-adv-x="659" d="M242 -297q-25 0 -52.5 -8t-41.5 -16l-15 -8v151q49 39 109 39q33 0 91 -18.5t89 -20.5q25 0 52.5 8.5t41.5 16.5l15 8v-152q-51 -39 -109 -39q-31 0 -89 19.5t-91 19.5zM408 401h192v-129q0 -12 -2 -31.5t-16.5 -68.5t-39 -88t-79.5 -69.5t-131 -30.5q-74 0 -129.5 30.5 t-80 73.5t-38.5 86t-16 74l-2 31v563q0 12 2 31.5t16 70.5t40 90t81 71t129 32q199 0 252 -197q14 -51 14 -92v-326h-342v-243v-13q0 -8 4 -27.5t11.5 -34t23.5 -26.5t37 -12q70 10 74 113v122zM258 842v-158h150v158q0 12 -1 31.5t-19.5 51t-53.5 31.5q-33 0 -52.5 -28.5 t-21.5 -57.5z" />
<glyph unicode="&#x1e1c;" horiz-adv-x="628" d="M455 1835l106 -94l-27 -27q-17 -16 -77 -42.5t-121 -26.5q-63 0 -119.5 24.5t-81.5 48.5l-24 23l110 94q41 -47 115 -47q35 0 64.5 12t41.5 25zM422 8v-141l-45 -133h-104l40 133h-63v141h172zM82 0v1505h506v-227h-285v-395h205v-242h-205v-414h285v-227h-506z" />
<glyph unicode="&#x1e1d;" horiz-adv-x="659" d="M453 1450l106 -94l-27 -27q-17 -16 -77 -42.5t-121 -26.5q-63 0 -119.5 24.5t-81.5 48.5l-24 23l110 94q41 -47 115 -47q35 0 64.5 12t41.5 25zM418 -9v-141l-45 -133h-104l40 133h-63v141h172zM408 401h192v-129q0 -12 -2 -31.5t-16.5 -68.5t-39 -88t-79.5 -69.5 t-131 -30.5q-74 0 -129.5 30.5t-80 73.5t-38.5 86t-16 74l-2 31v563q0 12 2 31.5t16 70.5t40 90t81 71t129 32q199 0 252 -197q14 -51 14 -92v-326h-342v-243v-13q0 -8 4 -27.5t11.5 -34t23.5 -26.5t37 -12q70 10 74 113v122zM258 842v-158h150v158q0 12 -1 31.5t-19.5 51 t-53.5 31.5q-33 0 -52.5 -28.5t-21.5 -57.5z" />
<glyph unicode="&#x1e1e;" horiz-adv-x="616" d="M242 1644v207h206v-207h-206zM608 1505v-227h-305v-395h205v-228h-205v-655h-221v1505h526z" />
<glyph unicode="&#x1e1f;" horiz-adv-x="475" d="M261 1636v207h206v-207h-206zM332 0h-207v934h-105v186h105v17v14q0 51 2 84t14.5 92t35 94t70.5 63.5t115 28.5l97 -14v-178q-27 8 -62 8q-66 0 -65 -180v-16v-13h104v-186h-104v-934z" />
<glyph unicode="&#x1e20;" horiz-adv-x="737" d="M163 1645v162h398v-162h-398zM657 965h-221v231q0 12 -1 30.5t-19.5 49.5t-53 31t-53 -28t-18.5 -54l-2 -29v-905q0 -12 1 -30.5t19.5 -49.5t53 -31t53 28t18.5 54l2 29v272h-88v187h309v-750h-131l-26 72q-70 -88 -172 -88q-203 0 -250 213q-11 48 -11 89q0 12 1 23v887 q0 12 2 34.5t17 79t43 99.5t88.5 78t144 35t144 -34t88.5 -81t43 -95t17 -83l2 -33v-231z" />
<glyph unicode="&#x1e21;" horiz-adv-x="700" d="M311 1260v162h398v-162h-398zM588 858v-317q0 -10 -2 -29.5t-17.5 -67t-40 -84t-79 -66.5t-127.5 -30q-27 0 -39 2q-29 -25 -29 -51q0 -16 11 -28.5t42 -20.5t45.5 -10t59.5 -11q57 -8 101 -21t89 -41t70.5 -78t25.5 -120q0 -152 -103 -219t-251 -67q-164 4 -248 52 t-84 165q0 94 162 170q-125 35 -125 149q0 45 40 93t89 75q-51 35 -80.5 95.5t-34.5 105.5l-4 43v305q0 12 2 30.5t16.5 67.5t39 87t79 69t126.5 31q135 0 206 -103q102 102 170 103v-185q-72 0 -120 -24zM385 844q-2 0 0 10t-2 25.5t-9 31t-18.5 25.5t-33.5 10 q-29 0 -44.5 -25.5t-15.5 -52.5v-24v-307v-28q0 -17 15.5 -45t44.5 -28q63 6 63 101v307zM506 -152q0 33 -20.5 50.5t-90.5 29.5l-106 21q-76 -43 -76 -99q0 -78 135 -77q59 0 108.5 19t49.5 56z" />
<glyph unicode="&#x1e22;" horiz-adv-x="778" d="M285 1644v207h206v-207h-206zM475 0v655h-172v-655h-221v1505h221v-622h172v622h221v-1505h-221z" />
<glyph unicode="&#x1e23;" d="M244 1628v207h206v-207h-206zM356 936q-41 0 -67 -53v-883h-207v1505h207v-479l32 32q30 30 66.5 54.5t69.5 24.5q76 0 115.5 -69t39.5 -150v-918h-206v887q-1 49 -50 49z" />
<glyph unicode="&#x1e24;" horiz-adv-x="778" d="M285 -330v207h206v-207h-206zM475 0v655h-172v-655h-221v1505h221v-622h172v622h221v-1505h-221z" />
<glyph unicode="&#x1e25;" d="M244 -330v207h206v-207h-206zM356 936q-41 0 -67 -53v-883h-207v1505h207v-479l32 32q30 30 66.5 54.5t69.5 24.5q76 0 115.5 -69t39.5 -150v-918h-206v887q-1 49 -50 49z" />
<glyph unicode="&#x1e26;" horiz-adv-x="778" d="M149 1645v200h191v-200h-191zM438 1645v200h191v-200h-191zM475 0v655h-172v-655h-221v1505h221v-622h172v622h221v-1505h-221z" />
<glyph unicode="&#x1e27;" d="M108 1629v200h191v-200h-191zM397 1629v200h191v-200h-191zM356 936q-41 0 -67 -53v-883h-207v1505h207v-479l32 32q30 30 66.5 54.5t69.5 24.5q76 0 115.5 -69t39.5 -150v-918h-206v887q-1 49 -50 49z" />
<glyph unicode="&#x1e28;" horiz-adv-x="778" d="M389 8v-141l-45 -133h-104l40 133h-63v141h172zM475 0v655h-172v-655h-221v1505h221v-622h172v622h221v-1505h-221z" />
<glyph unicode="&#x1e29;" d="M348 8v-141l-45 -133h-104l40 133h-63v141h172zM356 936q-41 0 -67 -53v-883h-207v1505h207v-479l32 32q30 30 66.5 54.5t69.5 24.5q76 0 115.5 -69t39.5 -150v-918h-206v887q-1 49 -50 49z" />
<glyph unicode="&#x1e2a;" horiz-adv-x="778" d="M508 -123l106 -94l-27 -27q-17 -16 -77 -42.5t-121 -26.5q-63 0 -119.5 24.5t-81.5 48.5l-24 23l110 94q41 -47 115 -47q35 0 64.5 12t41.5 25zM475 0v655h-172v-655h-221v1505h221v-622h172v622h221v-1505h-221z" />
<glyph unicode="&#x1e2b;" d="M467 -123l106 -94l-27 -27q-17 -16 -77 -42.5t-121 -26.5q-63 0 -119.5 24.5t-81.5 48.5l-24 23l110 94q41 -47 115 -47q35 0 64.5 12t41.5 25zM356 936q-41 0 -67 -53v-883h-207v1505h207v-479l32 32q30 30 66.5 54.5t69.5 24.5q76 0 115.5 -69t39.5 -150v-918h-206v887 q-1 49 -50 49z" />
<glyph unicode="&#x1e2c;" horiz-adv-x="385" d="M103 -281q-25 0 -52.5 -8t-41.5 -16l-15 -8v151q49 39 109 39q33 0 91 -18.5t89 -20.5q25 0 52.5 8.5t41.5 16.5l15 8v-152q-51 -39 -109 -39q-31 0 -89 19.5t-91 19.5zM82 0v1505h221v-1505h-221z" />
<glyph unicode="&#x1e2d;" horiz-adv-x="370" d="M94 -281q-25 0 -52.5 -8t-41.5 -16l-15 -8v151q49 39 109 39q33 0 91 -18.5t89 -20.5q25 0 52.5 8.5t41.5 16.5l15 8v-152q-51 -39 -109 -39q-31 0 -89 19.5t-91 19.5zM289 0h-207v1120h207v-1120zM82 1298v207h207v-207h-207z" />
<glyph unicode="&#x1e2e;" horiz-adv-x="372" d="M213 2146h215l-162 -184h-159zM76 0v1505h221v-1505h-221zM-53 1638v201h190v-201h-190zM236 1638v201h190v-201h-190z" />
<glyph unicode="&#x1e2f;" horiz-adv-x="372" d="M213 1813h215l-162 -184h-159zM289 0h-207v1120h207v-1120zM-53 1305v200h190v-200h-190zM236 1305v200h190v-200h-190z" />
<glyph unicode="&#x1e30;" horiz-adv-x="768" d="M428 1829h215l-162 -184h-159zM82 1505h221v-501v-25h8l11 25l184 501h215l-203 -495l230 -1010h-216l-153 655l-6 31h-6l-13 -31l-51 -123v-532h-221v1505z" />
<glyph unicode="&#x1e31;" horiz-adv-x="641" d="M213 1813h215l-162 -184h-159zM82 1505h207v-678v-36h10l12 36l101 293h186l-149 -364l188 -756h-199l-102 453l-4 16h-10l-7 -16l-26 -66v-387h-207v1505z" />
<glyph unicode="&#x1e32;" horiz-adv-x="768" d="M312 -330v207h206v-207h-206zM82 1505h221v-501v-25h8l11 25l184 501h215l-203 -495l230 -1010h-216l-153 655l-6 31h-6l-13 -31l-51 -123v-532h-221v1505z" />
<glyph unicode="&#x1e33;" horiz-adv-x="641" d="M256 -330v207h206v-207h-206zM82 1505h207v-678v-36h10l12 36l101 293h186l-149 -364l188 -756h-199l-102 453l-4 16h-10l-7 -16l-26 -66v-387h-207v1505z" />
<glyph unicode="&#x1e34;" horiz-adv-x="768" d="M215 -284v162h398v-162h-398zM82 1505h221v-501v-25h8l11 25l184 501h215l-203 -495l230 -1010h-216l-153 655l-6 31h-6l-13 -31l-51 -123v-532h-221v1505z" />
<glyph unicode="&#x1e35;" horiz-adv-x="641" d="M161 -284v162h398v-162h-398zM82 1505h207v-678v-36h10l12 36l101 293h186l-149 -364l188 -756h-199l-102 453l-4 16h-10l-7 -16l-26 -66v-387h-207v1505z" />
<glyph unicode="&#x1e36;" horiz-adv-x="604" d="M236 -330v207h206v-207h-206zM82 0v1505h221v-1300h293v-205h-514z" />
<glyph unicode="&#x1e37;" horiz-adv-x="370" d="M82 -330v207h206v-207h-206zM289 0h-207v1505h207v-1505z" />
<glyph unicode="&#x1e38;" horiz-adv-x="604" d="M-6 1645v162h398v-162h-398zM236 -330v207h206v-207h-206zM82 0v1505h221v-1300h293v-205h-514z" />
<glyph unicode="&#x1e39;" horiz-adv-x="370" d="M-15 1628v162h398v-162h-398zM82 -330v207h206v-207h-206zM289 0h-207v1505h207v-1505z" />
<glyph unicode="&#x1e3a;" horiz-adv-x="604" d="M141 -284v162h398v-162h-398zM82 0v1505h221v-1300h293v-205h-514z" />
<glyph unicode="&#x1e3b;" horiz-adv-x="370" d="M-15 -284v162h398v-162h-398zM289 0h-207v1505h207v-1505z" />
<glyph unicode="&#x1e3c;" horiz-adv-x="604" d="M229 -123h220l141 -184h-189l-63 71l-61 -71h-189zM82 0v1505h221v-1300h293v-205h-514z" />
<glyph unicode="&#x1e3d;" horiz-adv-x="370" d="M75 -123h220l141 -184h-189l-63 71l-61 -71h-189zM289 0h-207v1505h207v-1505z" />
<glyph unicode="&#x1e3e;" horiz-adv-x="991" d="M522 1829h215l-162 -184h-159zM543 0h-94l-142 946l-8 64h-12v-64v-946h-205v1505h270l131 -688l11 -80h4l10 80l131 688h270v-1505h-204v946v64h-13l-8 -64z" />
<glyph unicode="&#x1e3f;" horiz-adv-x="1021" d="M651 1444h215l-162 -184h-159zM694 936q-41 0 -78 -53v-883h-194v887q0 49 -55 49q-41 0 -78 -53v-883h-207v1120h207v-94q2 0 32.5 30.5t68.5 55.5t71 25q100 0 139 -125l43 41t76 60.5t69 23.5q76 0 116 -69t40 -150v-918h-194v887q-1 49 -56 49z" />
<glyph unicode="&#x1e40;" horiz-adv-x="991" d="M392 1644v207h206v-207h-206zM543 0h-94l-142 946l-8 64h-12v-64v-946h-205v1505h270l131 -688l11 -80h4l10 80l131 688h270v-1505h-204v946v64h-13l-8 -64z" />
<glyph unicode="&#x1e41;" horiz-adv-x="1021" d="M523 1259v207h206v-207h-206zM694 936q-41 0 -78 -53v-883h-194v887q0 49 -55 49q-41 0 -78 -53v-883h-207v1120h207v-94q2 0 32.5 30.5t68.5 55.5t71 25q100 0 139 -125l43 41t76 60.5t69 23.5q76 0 116 -69t40 -150v-918h-194v887q-1 49 -56 49z" />
<glyph unicode="&#x1e42;" horiz-adv-x="991" d="M392 -330v207h206v-207h-206zM543 0h-94l-142 946l-8 64h-12v-64v-946h-205v1505h270l131 -688l11 -80h4l10 80l131 688h270v-1505h-204v946v64h-13l-8 -64z" />
<glyph unicode="&#x1e43;" horiz-adv-x="1021" d="M410 -330v207h206v-207h-206zM694 936q-41 0 -78 -53v-883h-194v887q0 49 -55 49q-41 0 -78 -53v-883h-207v1120h207v-94q2 0 32.5 30.5t68.5 55.5t71 25q100 0 139 -125l43 41t76 60.5t69 23.5q76 0 116 -69t40 -150v-918h-194v887q-1 49 -56 49z" />
<glyph unicode="&#x1e44;" horiz-adv-x="808" d="M302 1644v207h206v-207h-206zM530 0l-215 784l-18 70h-12v-70v-784h-203v1505h197l215 -784l18 -70h12v70v784h203v-1505h-197z" />
<glyph unicode="&#x1e45;" d="M244 1259v207h206v-207h-206zM356 936q-41 0 -67 -53v-883h-207v1120h207v-94l32 32q30 30 66.5 54.5t69.5 24.5q76 0 115.5 -69t39.5 -150v-918h-206v887q-1 49 -50 49z" />
<glyph unicode="&#x1e46;" horiz-adv-x="808" d="M302 -330v207h206v-207h-206zM530 0l-215 784l-18 70h-12v-70v-784h-203v1505h197l215 -784l18 -70h12v70v784h203v-1505h-197z" />
<glyph unicode="&#x1e47;" d="M244 -330v207h206v-207h-206zM356 936q-41 0 -67 -53v-883h-207v1120h207v-94l32 32q30 30 66.5 54.5t69.5 24.5q76 0 115.5 -69t39.5 -150v-918h-206v887q-1 49 -50 49z" />
<glyph unicode="&#x1e48;" horiz-adv-x="808" d="M207 -284v162h398v-162h-398zM530 0l-215 784l-18 70h-12v-70v-784h-203v1505h197l215 -784l18 -70h12v70v784h203v-1505h-197z" />
<glyph unicode="&#x1e49;" d="M149 -284v162h398v-162h-398zM356 936q-41 0 -67 -53v-883h-207v1120h207v-94l32 32q30 30 66.5 54.5t69.5 24.5q76 0 115.5 -69t39.5 -150v-918h-206v887q-1 49 -50 49z" />
<glyph unicode="&#x1e4a;" horiz-adv-x="808" d="M295 -123h220l141 -184h-189l-63 71l-61 -71h-189zM530 0l-215 784l-18 70h-12v-70v-784h-203v1505h197l215 -784l18 -70h12v70v784h203v-1505h-197z" />
<glyph unicode="&#x1e4b;" d="M237 -123h220l141 -184h-189l-63 71l-61 -71h-189zM356 936q-41 0 -67 -53v-883h-207v1120h207v-94l32 32q30 30 66.5 54.5t69.5 24.5q76 0 115.5 -69t39.5 -150v-918h-206v887q-1 49 -50 49z" />
<glyph unicode="&#x1e4c;" horiz-adv-x="724" d="M299 2130h215l-162 -184h-159zM657 309q0 -12 -2 -34.5t-17 -79t-43 -99.5t-88.5 -77.5t-144 -34.5t-144 33.5t-88.5 81.5t-43 95.5t-17 79.5l-2 35v887q0 12 2 34.5t17 79t43 99.5t88.5 78t144 35t144 -34t88.5 -81t43 -95t17 -83l2 -33v-887zM436 1196q0 12 -1 30.5 t-19.5 49.5t-53 31t-53 -28t-18.5 -54l-2 -29v-887q0 -12 1 -30.5t19.5 -49t53 -30.5t53 27.5t18.5 56.5l2 26v887zM272 1665q-25 0 -52 -8t-42 -17l-14 -8v152q49 39 108 39q33 0 91.5 -18.5t89.5 -20.5q25 0 52 8t42 16l14 9v-152q-51 -39 -108 -39q-31 0 -89.5 19.5 t-91.5 19.5z" />
<glyph unicode="&#x1e4d;" horiz-adv-x="657" d="M266 1802h215l-162 -184h-159zM594 848v-576q0 -12 -1 -31.5t-15.5 -68.5t-40 -88t-80 -69.5t-129.5 -30.5q-74 0 -129.5 30.5t-80 73.5t-38.5 86t-14 74l-3 31v563q0 12 1.5 31.5t15.5 70.5t38.5 90t80 71t129.5 32q199 0 252 -197q14 -51 14 -92zM399 842q-2 0 0 11 t-2 28.5t-10 34t-21.5 28.5t-37.5 12q-68 -10 -70 -114v-563q2 0 0 -11.5t2 -29t10 -34t21.5 -27.5t36.5 -11q70 10 71 113v563zM240 1337q-25 0 -52.5 -8t-42.5 -16l-14 -8v151q49 39 109 39q33 0 91 -18.5t89 -20.5q25 0 52.5 8.5t41.5 16.5l14 8v-152q-51 -39 -108 -39 q-31 0 -89 19.5t-91 19.5z" />
<glyph unicode="&#x1e4e;" horiz-adv-x="724" d="M32 1946v200h191v-200h-191zM321 1946v200h191v-200h-191zM657 309q0 -12 -2 -34.5t-17 -79t-43 -99.5t-88.5 -77.5t-144 -34.5t-144 33.5t-88.5 81.5t-43 95.5t-17 79.5l-2 35v887q0 12 2 34.5t17 79t43 99.5t88.5 78t144 35t144 -34t88.5 -81t43 -95t17 -83l2 -33v-887 zM436 1196q0 12 -1 30.5t-19.5 49.5t-53 31t-53 -28t-18.5 -54l-2 -29v-887q0 -12 1 -30.5t19.5 -49t53 -30.5t53 27.5t18.5 56.5l2 26v887zM272 1665q-25 0 -52 -8t-42 -17l-14 -8v152q49 39 108 39q33 0 91.5 -18.5t89.5 -20.5q25 0 52 8t42 16l14 9v-152 q-51 -39 -108 -39q-31 0 -89.5 19.5t-91.5 19.5z" />
<glyph unicode="&#x1e4f;" horiz-adv-x="657" d="M0 1618v200h191v-200h-191zM289 1618v200h191v-200h-191zM594 848v-576q0 -12 -1 -31.5t-15.5 -68.5t-40 -88t-80 -69.5t-129.5 -30.5q-74 0 -129.5 30.5t-80 73.5t-38.5 86t-14 74l-3 31v563q0 12 1.5 31.5t15.5 70.5t38.5 90t80 71t129.5 32q199 0 252 -197 q14 -51 14 -92zM399 842q-2 0 0 11t-2 28.5t-10 34t-21.5 28.5t-37.5 12q-68 -10 -70 -114v-563q2 0 0 -11.5t2 -29t10 -34t21.5 -27.5t36.5 -11q70 10 71 113v563zM240 1337q-25 0 -52.5 -8t-42.5 -16l-14 -8v151q49 39 109 39q33 0 91 -18.5t89 -20.5q25 0 52.5 8.5 t41.5 16.5l14 8v-152q-51 -39 -108 -39q-31 0 -89 19.5t-91 19.5z" />
<glyph unicode="&#x1e50;" horiz-adv-x="724" d="M121 2114h215l106 -184h-159zM163 1645v162h398v-162h-398zM657 309q0 -12 -2 -34.5t-17 -79t-43 -99.5t-88.5 -77.5t-144 -34.5t-144 33.5t-88.5 81.5t-43 95.5t-17 79.5l-2 35v887q0 12 2 34.5t17 79t43 99.5t88.5 78t144 35t144 -34t88.5 -81t43 -95t17 -83l2 -33 v-887zM436 1196q0 12 -1 30.5t-19.5 49.5t-53 31t-53 -28t-18.5 -54l-2 -29v-887q0 -12 1 -30.5t19.5 -49t53 -30.5t53 27.5t18.5 56.5l2 26v887z" />
<glyph unicode="&#x1e51;" horiz-adv-x="657" d="M86 1729h215l106 -184h-159zM129 1260v162h398v-162h-398zM594 848v-576q0 -12 -1 -31.5t-15.5 -68.5t-40 -88t-80 -69.5t-129.5 -30.5q-74 0 -129.5 30.5t-80 73.5t-38.5 86t-14 74l-3 31v563q0 12 1.5 31.5t15.5 70.5t38.5 90t80 71t129.5 32q199 0 252 -197 q14 -51 14 -92zM399 842q-1 1 -0.5 4t1 8.5t0.5 6.5q0 9 -3 21q-4 17 -10 33.5t-21.5 28.5t-37.5 12q-68 -10 -70 -114v-563q1 -1 1 -4t-1 -8.5t-1 -7.5q0 -9 3 -20q4 -17 10 -34t21.5 -28t36.5 -11q70 10 71 113v563z" />
<glyph unicode="&#x1e52;" horiz-adv-x="724" d="M389 2114h215l-162 -184h-159zM163 1645v162h398v-162h-398zM657 309q0 -12 -2 -34.5t-17 -79t-43 -99.5t-88.5 -77.5t-144 -34.5t-144 33.5t-88.5 81.5t-43 95.5t-17 79.5l-2 35v887q0 12 2 34.5t17 79t43 99.5t88.5 78t144 35t144 -34t88.5 -81t43 -95t17 -83l2 -33 v-887zM436 1196q0 12 -1 30.5t-19.5 49.5t-53 31t-53 -28t-18.5 -54l-2 -29v-887q0 -12 1 -30.5t19.5 -49t53 -30.5t53 27.5t18.5 56.5l2 26v887z" />
<glyph unicode="&#x1e53;" horiz-adv-x="657" d="M354 1729h215l-162 -184h-159zM129 1260v162h398v-162h-398zM594 848v-576q0 -12 -1 -31.5t-15.5 -68.5t-40 -88t-80 -69.5t-129.5 -30.5q-74 0 -129.5 30.5t-80 73.5t-38.5 86t-14 74l-3 31v563q0 12 1.5 31.5t15.5 70.5t38.5 90t80 71t129.5 32q199 0 252 -197 q14 -51 14 -92zM399 842q-1 1 -0.5 4t1 8.5t0.5 6.5q0 9 -3 21q-4 17 -10 33.5t-21.5 28.5t-37.5 12q-68 -10 -70 -114v-563q1 -1 1 -4t-1 -8.5t-1 -7.5q0 -9 3 -20q4 -17 10 -34t21.5 -28t36.5 -11q70 10 71 113v563z" />
<glyph unicode="&#x1e54;" horiz-adv-x="720" d="M219 1829h215l-162 -184h-159zM82 0v1505h221q166 0 277.5 -105.5t111.5 -345t-111.5 -346t-277.5 -106.5v-602h-221zM303 1280v-453q102 0 134 45.5t32 174.5q0 131 -33 182t-133 51z" />
<glyph unicode="&#x1e55;" horiz-adv-x="686" d="M479 1444h215l-162 -184h-159zM82 -385v1505h207v-73q88 90 164 90q78 0 118.5 -69t40.5 -150v-715q0 -82 -41 -150.5t-118 -68.5q-33 0 -74 22.5t-66 44.5l-24 23v-459h-207zM289 874v-628q0 -25 19.5 -46.5t42 -21.5t39 19.5t16.5 48.5v628q0 29 -16.5 48.5t-39 19.5 t-42 -19.5t-19.5 -48.5z" />
<glyph unicode="&#x1e56;" horiz-adv-x="720" d="M89 1644v207h206v-207h-206zM82 0v1505h221q166 0 277.5 -105.5t111.5 -345t-111.5 -346t-277.5 -106.5v-602h-221zM303 1280v-453q102 0 134 45.5t32 174.5q0 131 -33 182t-133 51z" />
<glyph unicode="&#x1e57;" horiz-adv-x="686" d="M351 1259v207h206v-207h-206zM82 -385v1505h207v-73q88 90 164 90q78 0 118.5 -69t40.5 -150v-715q0 -82 -41 -150.5t-118 -68.5q-33 0 -74 22.5t-66 44.5l-24 23v-459h-207zM289 874v-628q0 -25 19.5 -46.5t42 -21.5t39 19.5t16.5 48.5v628q0 29 -16.5 48.5t-39 19.5 t-42 -19.5t-19.5 -48.5z" />
<glyph unicode="&#x1e58;" horiz-adv-x="739" d="M89 1644v207h206v-207h-206zM698 0h-221l-115 635h-59v-635h-221v1505h221q377 0 377 -434q0 -258 -123 -342zM467 1063q0 76 -15.5 125t-45 68.5t-51 24.5t-52.5 5v-446q31 0 52.5 5t51 24.5t45 68.5t15.5 125z" />
<glyph unicode="&#x1e59;" horiz-adv-x="503" d="M187 1259v207h206v-207h-206zM496 1137v-230q-34 11 -64 11q-56 0 -98 -37q-45 -41 -45 -103v-778h-207v1120h207v-125q8 41 58.5 91.5t148.5 50.5z" />
<glyph unicode="&#x1e5a;" horiz-adv-x="739" d="M287 -330v207h206v-207h-206zM698 0h-221l-115 635h-59v-635h-221v1505h221q377 0 377 -434q0 -258 -123 -342zM467 1063q0 76 -15.5 125t-45 68.5t-51 24.5t-52.5 5v-446q31 0 52.5 5t51 24.5t45 68.5t15.5 125z" />
<glyph unicode="&#x1e5b;" horiz-adv-x="503" d="M82 -330v207h206v-207h-206zM496 1137v-230q-34 11 -64 11q-56 0 -98 -37q-45 -41 -45 -103v-778h-207v1120h207v-125q8 41 58.5 91.5t148.5 50.5z" />
<glyph unicode="&#x1e5c;" horiz-adv-x="739" d="M-6 1645v162h398v-162h-398zM287 -330v207h206v-207h-206zM698 0h-221l-115 635h-59v-635h-221v1505h221q377 0 377 -434q0 -258 -123 -342zM467 1063q0 76 -15.5 125t-45 68.5t-51 24.5t-52.5 5v-446q31 0 52.5 5t51 24.5t45 68.5t15.5 125z" />
<glyph unicode="&#x1e5d;" horiz-adv-x="503" d="M297 1260v162h398v-162h-398zM82 -330v207h206v-207h-206zM496 1137v-230q-34 11 -64 11q-56 0 -98 -37q-45 -41 -45 -103v-778h-207v1120h207v-125q8 41 58.5 91.5t148.5 50.5z" />
<glyph unicode="&#x1e5e;" horiz-adv-x="739" d="M190 -284v162h398v-162h-398zM698 0h-221l-115 635h-59v-635h-221v1505h221q377 0 377 -434q0 -258 -123 -342zM467 1063q0 76 -15.5 125t-45 68.5t-51 24.5t-52.5 5v-446q31 0 52.5 5t51 24.5t45 68.5t15.5 125z" />
<glyph unicode="&#x1e5f;" horiz-adv-x="503" d="M-15 -284v162h398v-162h-398zM496 1137v-230q-34 11 -64 11q-56 0 -98 -37q-45 -41 -45 -103v-778h-207v1120h207v-125q8 41 58.5 91.5t148.5 50.5z" />
<glyph unicode="&#x1e60;" horiz-adv-x="702" d="M258 1644v207h206v-207h-206zM68 1169q0 139 71.5 245t216.5 108h10q88 0 150 -35q66 -37 95.5 -101.5t42 -127t12.5 -136.5l-217 -20q0 217 -89 217q-76 -2 -75 -150q0 -18 4 -39.5t10 -39t18.5 -43t20.5 -40t28 -43.5l28 -43l33 -48l32 -46l104 -159q31 -49 67 -139.5 t36 -166.5q0 -379 -308 -378q-82 0 -142 25.5t-94 63.5t-53.5 99t-25.5 117.5t-6 132.5l217 20q0 -256 104 -256q90 0 91 166q0 29 -8.5 59.5t-32 73.5t-36.5 64l-54 79q-40 58 -48 72q-66 96 -102.5 158t-68 148.5t-31.5 162.5z" />
<glyph unicode="&#x1e61;" horiz-adv-x="630" d="M226 1259v207h206v-207h-206zM72 834q0 55 12 104t39 95t78 74t123 30h11q78 0 131 -26q56 -28 80.5 -79t33 -95t8.5 -103h-193q0 131 -67 131q-63 -2 -64 -131q0 -33 23.5 -73t45 -62.5t66.5 -65.5q190 -182 191 -342q0 -123 -64.5 -215t-199.5 -92q-72 0 -126.5 24.5 t-85 60t-49 85t-23.5 89.5t-5 83h192q0 -170 97 -170q72 0 71 135q0 74 -129 198q-68 66 -98.5 99t-64 101.5t-33.5 144.5z" />
<glyph unicode="&#x1e62;" horiz-adv-x="702" d="M256 -347v207h206v-207h-206zM68 1169q0 139 71.5 245t216.5 108h10q88 0 150 -35q66 -37 95.5 -101.5t42 -127t12.5 -136.5l-217 -20q0 217 -89 217q-76 -2 -75 -150q0 -18 4 -39.5t10 -39t18.5 -43t20.5 -40t28 -43.5l28 -43l33 -48l32 -46l104 -159q31 -49 67 -139.5 t36 -166.5q0 -379 -308 -378q-82 0 -142 25.5t-94 63.5t-53.5 99t-25.5 117.5t-6 132.5l217 20q0 -256 104 -256q90 0 91 166q0 29 -8.5 59.5t-32 73.5t-36.5 64l-54 79q-40 58 -48 72q-66 96 -102.5 158t-68 148.5t-31.5 162.5z" />
<glyph unicode="&#x1e63;" horiz-adv-x="630" d="M224 -347v207h206v-207h-206zM72 834q0 55 12 104t39 95t78 74t123 30h11q78 0 131 -26q56 -28 80.5 -79t33 -95t8.5 -103h-193q0 131 -67 131q-63 -2 -64 -131q0 -33 23.5 -73t45 -62.5t66.5 -65.5q190 -182 191 -342q0 -123 -64.5 -215t-199.5 -92q-72 0 -126.5 24.5 t-85 60t-49 85t-23.5 89.5t-5 83h192q0 -170 97 -170q72 0 71 135q0 74 -129 198q-68 66 -98.5 99t-64 101.5t-33.5 144.5z" />
<glyph unicode="&#x1e64;" horiz-adv-x="702" d="M392 1951v207h206v-207h-206zM387 1829h215l-162 -184h-159zM68 1169q0 139 71.5 245t216.5 108h10q88 0 150 -35q66 -37 95.5 -101.5t42 -127t12.5 -136.5l-217 -20q0 217 -89 217q-76 -2 -75 -150q0 -18 4 -39.5t10 -39t18.5 -43t20.5 -40t28 -43.5l28 -43l33 -48 l32 -46l104 -159q31 -49 67 -139.5t36 -166.5q0 -379 -308 -378q-82 0 -142 25.5t-94 63.5t-53.5 99t-25.5 117.5t-6 132.5l217 20q0 -256 104 -256q90 0 91 166q0 29 -8.5 59.5t-32 73.5t-36.5 64l-54 79q-40 58 -48 72q-66 96 -102.5 158t-68 148.5t-31.5 162.5z" />
<glyph unicode="&#x1e65;" horiz-adv-x="630" d="M361 1566v207h206v-207h-206zM356 1444h215l-162 -184h-159zM72 834q0 55 12 104t39 95t78 74t123 30h11q78 0 131 -26q56 -28 80.5 -79t33 -95t8.5 -103h-193q0 131 -67 131q-63 -2 -64 -131q0 -33 23.5 -73t45 -62.5t66.5 -65.5q190 -182 191 -342q0 -123 -64.5 -215 t-199.5 -92q-72 0 -126.5 24.5t-85 60t-49 85t-23.5 89.5t-5 83h192q0 -170 97 -170q72 0 71 135q0 74 -129 198q-68 66 -98.5 99t-64 101.5t-33.5 144.5z" />
<glyph unicode="&#x1e66;" horiz-adv-x="702" d="M248 1945v207h206v-207h-206zM68 1169q0 139 71.5 245t216.5 108q94 2 160 -35t95.5 -101.5t42 -127t12.5 -136.5l-217 -20q0 217 -89 217q-76 -2 -75 -150q0 -18 4 -39.5t10 -39t18.5 -43t20.5 -40t28 -43.5l28 -43l33 -48l32 -46l104 -159q31 -49 67 -139.5t36 -166.5 q0 -379 -308 -378q-82 0 -142 25.5t-94 63.5t-53.5 99t-25.5 117.5t-6 132.5l217 20q0 -256 104 -256q90 0 91 166q0 29 -8.5 59.5t-32 73.5t-36.5 64l-54 79q-40 58 -48 72q-66 96 -102.5 158t-68 148.5t-31.5 162.5zM461 1638h-219l-142 185h189l61 -72l64 72h188z" />
<glyph unicode="&#x1e67;" horiz-adv-x="630" d="M213 1611v207h206v-207h-206zM72 834q0 55 12 104t39 95t78 74t123 30q86 2 142 -26t80.5 -79t33 -95t8.5 -103h-193q0 131 -67 131q-63 -2 -64 -131q0 -33 23.5 -73t45 -62.5t66.5 -65.5q190 -182 191 -342q0 -123 -64.5 -215t-199.5 -92q-72 0 -126.5 24.5t-85 60 t-49 85t-23.5 89.5t-5 83h192q0 -170 97 -170q72 0 71 135q0 74 -129 198q-68 66 -98.5 99t-64 101.5t-33.5 144.5zM426 1305h-219l-141 184h188l61 -72l64 72h188z" />
<glyph unicode="&#x1e68;" horiz-adv-x="702" d="M258 1644v207h206v-207h-206zM256 -347v207h206v-207h-206zM68 1169q0 139 71.5 245t216.5 108h10q88 0 150 -35q66 -37 95.5 -101.5t42 -127t12.5 -136.5l-217 -20q0 217 -89 217q-76 -2 -75 -150q0 -18 4 -39.5t10 -39t18.5 -43t20.5 -40t28 -43.5l28 -43l33 -48 l32 -46l104 -159q31 -49 67 -139.5t36 -166.5q0 -379 -308 -378q-82 0 -142 25.5t-94 63.5t-53.5 99t-25.5 117.5t-6 132.5l217 20q0 -256 104 -256q90 0 91 166q0 29 -8.5 59.5t-32 73.5t-36.5 64l-54 79q-40 58 -48 72q-66 96 -102.5 158t-68 148.5t-31.5 162.5z" />
<glyph unicode="&#x1e69;" horiz-adv-x="630" d="M226 1259v207h206v-207h-206zM224 -347v207h206v-207h-206zM72 834q0 55 12 104t39 95t78 74t123 30h11q78 0 131 -26q56 -28 80.5 -79t33 -95t8.5 -103h-193q0 131 -67 131q-63 -2 -64 -131q0 -33 23.5 -73t45 -62.5t66.5 -65.5q190 -182 191 -342q0 -123 -64.5 -215 t-199.5 -92q-72 0 -126.5 24.5t-85 60t-49 85t-23.5 89.5t-5 83h192q0 -170 97 -170q72 0 71 135q0 74 -129 198q-68 66 -98.5 99t-64 101.5t-33.5 144.5z" />
<glyph unicode="&#x1e6a;" horiz-adv-x="647" d="M220 1644v207h206v-207h-206zM213 1278h-209v227h639v-227h-209v-1278h-221v1278z" />
<glyph unicode="&#x1e6b;" horiz-adv-x="501" d="M125 1519v207h206v-207h-206zM125 1397h207v-277h141v-186h-141v-557q0 -184 65 -184l76 8v-203q-45 -14 -111 -14q-68 0 -115.5 28.5t-70 64.5t-35 96t-14.5 95t-2 92v574h-105v186h105v277z" />
<glyph unicode="&#x1e6c;" horiz-adv-x="647" d="M220 -330v207h206v-207h-206zM213 1278h-209v227h639v-227h-209v-1278h-221v1278z" />
<glyph unicode="&#x1e6d;" horiz-adv-x="501" d="M261 -347v207h206v-207h-206zM125 1397h207v-277h141v-186h-141v-557q0 -184 65 -184l76 8v-203q-45 -14 -111 -14q-68 0 -115.5 28.5t-70 64.5t-35 96t-14.5 95t-2 92v574h-105v186h105v277z" />
<glyph unicode="&#x1e6e;" horiz-adv-x="647" d="M125 -284v162h398v-162h-398zM213 1278h-209v227h639v-227h-209v-1278h-221v1278z" />
<glyph unicode="&#x1e6f;" horiz-adv-x="501" d="M163 -301v162h398v-162h-398zM125 1397h207v-277h141v-186h-141v-557q0 -184 65 -184l76 8v-203q-45 -14 -111 -14q-68 0 -115.5 28.5t-70 64.5t-35 96t-14.5 95t-2 92v574h-105v186h105v277z" />
<glyph unicode="&#x1e70;" horiz-adv-x="647" d="M213 -123h220l141 -184h-189l-63 71l-61 -71h-189zM213 1278h-209v227h639v-227h-209v-1278h-221v1278z" />
<glyph unicode="&#x1e71;" horiz-adv-x="501" d="M254 -139h220l141 -184h-189l-63 71l-61 -71h-189zM125 1397h207v-277h141v-186h-141v-557q0 -184 65 -184l76 8v-203q-45 -14 -111 -14q-68 0 -115.5 28.5t-70 64.5t-35 96t-14.5 95t-2 92v574h-105v186h105v277z" />
<glyph unicode="&#x1e72;" horiz-adv-x="749" d="M135 -340v200h191v-200h-191zM424 -340v200h191v-200h-191zM449 1505h221v-1196q0 -12 -2 -34.5t-17.5 -79t-43 -99.5t-88 -77.5t-144.5 -34.5t-144.5 33.5t-88 81.5t-43 95.5t-17.5 79.5l-2 35v1196h221v-1196q0 -12 1 -30.5t19.5 -49t53.5 -30.5t53 27.5t18 56.5l3 26 v1196z" />
<glyph unicode="&#x1e73;" d="M-7 -340v200h191v-200h-191zM282 -340v200h191v-200h-191zM334 184q41 0 67 54v882h207v-1120h-207v94l-31 -32q-30 -30 -67 -54t-70 -24q-76 0 -115.5 68.5t-39.5 150.5v917h207v-887q0 -49 49 -49z" />
<glyph unicode="&#x1e74;" horiz-adv-x="749" d="M285 -297q-25 0 -52.5 -8t-41.5 -16l-15 -8v151q49 39 109 39q33 0 91 -18.5t89 -20.5q25 0 52.5 8.5t41.5 16.5l15 8v-152q-51 -39 -109 -39q-31 0 -89 19.5t-91 19.5zM449 1505h221v-1196q0 -12 -2 -34.5t-17.5 -79t-43 -99.5t-88 -77.5t-144.5 -34.5t-144.5 33.5 t-88 81.5t-43 95.5t-17.5 79.5l-2 35v1196h221v-1196q0 -12 1 -30.5t19.5 -49t53.5 -30.5t53 27.5t18 56.5l3 26v1196z" />
<glyph unicode="&#x1e75;" d="M143 -297q-25 0 -52.5 -8t-41.5 -16l-15 -8v151q49 39 109 39q33 0 91 -18.5t89 -20.5q25 0 52.5 8.5t41.5 16.5l15 8v-152q-51 -39 -109 -39q-31 0 -89 19.5t-91 19.5zM334 184q41 0 67 54v882h207v-1120h-207v94l-31 -32q-30 -30 -67 -54t-70 -24q-76 0 -115.5 68.5 t-39.5 150.5v917h207v-887q0 -49 49 -49z" />
<glyph unicode="&#x1e76;" horiz-adv-x="749" d="M266 -139h220l141 -184h-189l-63 71l-61 -71h-189zM449 1505h221v-1196q0 -12 -2 -34.5t-17.5 -79t-43 -99.5t-88 -77.5t-144.5 -34.5t-144.5 33.5t-88 81.5t-43 95.5t-17.5 79.5l-2 35v1196h221v-1196q0 -12 1 -30.5t19.5 -49t53.5 -30.5t53 27.5t18 56.5l3 26v1196z " />
<glyph unicode="&#x1e77;" d="M122 -139h220l141 -184h-189l-63 71l-61 -71h-189zM334 184q41 0 67 54v882h207v-1120h-207v94l-31 -32q-30 -30 -67 -54t-70 -24q-76 0 -115.5 68.5t-39.5 150.5v917h207v-887q0 -49 49 -49z" />
<glyph unicode="&#x1e78;" horiz-adv-x="749" d="M311 2148h215l-162 -184h-159zM285 1683q-25 0 -52.5 -8t-41.5 -16l-15 -8v151q49 39 109 39q33 0 91 -18.5t89 -20.5q25 0 52.5 8.5t41.5 16.5l15 8v-152q-51 -39 -109 -39q-31 0 -89 19.5t-91 19.5zM449 1505h221v-1196q0 -12 -2 -34.5t-17.5 -79t-43 -99.5t-88 -77.5 t-144.5 -34.5t-144.5 33.5t-88 81.5t-43 95.5t-17.5 79.5l-2 35v1196h221v-1196q0 -12 1 -30.5t19.5 -49t53.5 -30.5t53 27.5t18 56.5l3 26v1196z" />
<glyph unicode="&#x1e79;" d="M278 1763h215l-162 -184h-159zM254 1298q-25 0 -52.5 -8t-41.5 -16l-15 -8v151q49 39 109 39q33 0 91 -18.5t89 -20.5q25 0 52.5 8.5t41.5 16.5l15 8v-152q-51 -39 -109 -39q-31 0 -89 19.5t-91 19.5zM334 184q41 0 67 54v882h207v-1120h-207v94l-31 -32q-30 -30 -67 -54 t-70 -24q-76 0 -115.5 68.5t-39.5 150.5v917h207v-887q0 -49 49 -49z" />
<glyph unicode="&#x1e7a;" horiz-adv-x="749" d="M135 1930v200h191v-200h-191zM424 1930v200h191v-200h-191zM176 1645v162h398v-162h-398zM449 1505h221v-1196q0 -12 -2 -34.5t-17.5 -79t-43 -99.5t-88 -77.5t-144.5 -34.5t-144.5 33.5t-88 81.5t-43 95.5t-17.5 79.5l-2 35v1196h221v-1196q0 -12 1 -30.5t19.5 -49 t53.5 -30.5t53 27.5t18 56.5l3 26v1196z" />
<glyph unicode="&#x1e7b;" d="M104 1545v200h191v-200h-191zM393 1545v200h191v-200h-191zM145 1260v162h398v-162h-398zM334 184q41 0 67 54v882h207v-1120h-207v94l-31 -32q-30 -30 -67 -54t-70 -24q-76 0 -115.5 68.5t-39.5 150.5v917h207v-887q0 -49 49 -49z" />
<glyph unicode="&#x1e7c;" horiz-adv-x="716" d="M268 1683q-25 0 -52.5 -8t-41.5 -16l-15 -8v151q49 39 109 39q33 0 91 -18.5t89 -20.5q25 0 52.5 8.5t41.5 16.5l15 8v-152q-51 -39 -109 -39q-31 0 -89 19.5t-91 19.5zM373 678l110 827h215l-229 -1505h-221l-230 1505h215l111 -827l8 -64h13z" />
<glyph unicode="&#x1e7d;" horiz-adv-x="602" d="M211 1298q-25 0 -52.5 -8t-41.5 -16l-15 -8v151q49 39 109 39q33 0 91 -18.5t89 -20.5q25 0 52.5 8.5t41.5 16.5l15 8v-152q-51 -39 -109 -39q-31 0 -89 19.5t-91 19.5zM403 0h-204l-183 1120h201l68 -649l8 -72h16l8 72l68 649h201z" />
<glyph unicode="&#x1e7e;" horiz-adv-x="716" d="M256 -330v207h206v-207h-206zM373 678l110 827h215l-229 -1505h-221l-230 1505h215l111 -827l8 -64h13z" />
<glyph unicode="&#x1e7f;" horiz-adv-x="602" d="M199 -330v207h206v-207h-206zM403 0h-204l-183 1120h201l68 -649l8 -72h16l8 72l68 649h201z" />
<glyph unicode="&#x1e80;" horiz-adv-x="1036" d="M277 1829h215l106 -184h-159zM502 713l-103 -713h-172l-202 1505h204l88 -782l5 -49h16l6 49l94 782h160l94 -782l6 -49h17l4 49l88 782h205l-203 -1505h-172l-102 713l-13 88h-8z" />
<glyph unicode="&#x1e81;" horiz-adv-x="905" d="M211 1444h215l106 -184h-159zM719 0h-172l-80 535l-10 63h-8l-11 -63l-80 -535h-172l-166 1120h189l65 -585l9 -64h12l10 64l86 585h123l86 -585l10 -64h13l8 64l65 585h189z" />
<glyph unicode="&#x1e82;" horiz-adv-x="1036" d="M545 1829h215l-162 -184h-159zM502 713l-103 -713h-172l-202 1505h204l88 -782l5 -49h16l6 49l94 782h160l94 -782l6 -49h17l4 49l88 782h205l-203 -1505h-172l-102 713l-13 88h-8z" />
<glyph unicode="&#x1e83;" horiz-adv-x="905" d="M479 1444h215l-162 -184h-159zM719 0h-172l-80 535l-10 63h-8l-11 -63l-80 -535h-172l-166 1120h189l65 -585l9 -64h12l10 64l86 585h123l86 -585l10 -64h13l8 64l65 585h189z" />
<glyph unicode="&#x1e84;" horiz-adv-x="1036" d="M278 1645v200h191v-200h-191zM567 1645v200h191v-200h-191zM502 713l-103 -713h-172l-202 1505h204l88 -782l5 -49h16l6 49l94 782h160l94 -782l6 -49h17l4 49l88 782h205l-203 -1505h-172l-102 713l-13 88h-8z" />
<glyph unicode="&#x1e85;" horiz-adv-x="905" d="M213 1260v200h191v-200h-191zM502 1260v200h191v-200h-191zM719 0h-172l-80 535l-10 63h-8l-11 -63l-80 -535h-172l-166 1120h189l65 -585l9 -64h12l10 64l86 585h123l86 -585l10 -64h13l8 64l65 585h189z" />
<glyph unicode="&#x1e86;" horiz-adv-x="1036" d="M416 1644v207h206v-207h-206zM502 713l-103 -713h-172l-202 1505h204l88 -782l5 -49h16l6 49l94 782h160l94 -782l6 -49h17l4 49l88 782h205l-203 -1505h-172l-102 713l-13 88h-8z" />
<glyph unicode="&#x1e87;" horiz-adv-x="905" d="M351 1259v207h206v-207h-206zM719 0h-172l-80 535l-10 63h-8l-11 -63l-80 -535h-172l-166 1120h189l65 -585l9 -64h12l10 64l86 585h123l86 -585l10 -64h13l8 64l65 585h189z" />
<glyph unicode="&#x1e88;" horiz-adv-x="1036" d="M416 -330v207h206v-207h-206zM502 713l-103 -713h-172l-202 1505h204l88 -782l5 -49h16l6 49l94 782h160l94 -782l6 -49h17l4 49l88 782h205l-203 -1505h-172l-102 713l-13 88h-8z" />
<glyph unicode="&#x1e89;" horiz-adv-x="905" d="M351 -330v207h206v-207h-206zM719 0h-172l-80 535l-10 63h-8l-11 -63l-80 -535h-172l-166 1120h189l65 -585l9 -64h12l10 64l86 585h123l86 -585l10 -64h13l8 64l65 585h189z" />
<glyph unicode="&#x1e8a;" horiz-adv-x="737" d="M265 1644v207h206v-207h-206zM360 449l-127 -449h-217l244 791l-240 714h218l120 -381l7 -18h8l6 18l121 381h217l-240 -714l244 -791h-217l-127 449l-4 18h-8z" />
<glyph unicode="&#x1e8b;" horiz-adv-x="618" d="M207 1259v207h206v-207h-206zM16 0l193 578l-176 542h194l74 -262l6 -31h4l6 31l74 262h195l-176 -542l192 -578h-201l-84 283l-6 30h-4l-6 -30l-84 -283h-201z" />
<glyph unicode="&#x1e8c;" horiz-adv-x="737" d="M129 1645v200h191v-200h-191zM418 1645v200h191v-200h-191zM360 449l-127 -449h-217l244 791l-240 714h218l120 -381l7 -18h8l6 18l121 381h217l-240 -714l244 -791h-217l-127 449l-4 18h-8z" />
<glyph unicode="&#x1e8d;" horiz-adv-x="618" d="M69 1260v200h191v-200h-191zM358 1260v200h191v-200h-191zM16 0l193 578l-176 542h194l74 -262l6 -31h4l6 31l74 262h195l-176 -542l192 -578h-201l-84 283l-6 30h-4l-6 -30l-84 -283h-201z" />
<glyph unicode="&#x1e8e;" horiz-adv-x="700" d="M248 1644v207h206v-207h-206zM231 1505l111 -481l6 -14h4l6 14l111 481h217l-225 -864v-641h-221v641l-226 864h217z" />
<glyph unicode="&#x1e8f;" horiz-adv-x="634" d="M215 1259v207h206v-207h-206zM33 -397v184q16 -4 49 -4q61 6 97 61.5t36 122.5l-190 1153h202l82 -688l4 -57h9l4 57l82 688h202l-198 -1204q-16 -127 -94 -222t-193 -95z" />
<glyph unicode="&#x1e90;" horiz-adv-x="626" d="M229 1829h220l141 -184h-189l-63 71l-61 -71h-189zM20 0v238l347 1048h-297v219h536v-219l-352 -1067h352v-219h-586z" />
<glyph unicode="&#x1e91;" horiz-adv-x="532" d="M176 1444h220l141 -184h-189l-63 71l-61 -71h-189zM12 0v168l285 764h-240v188h459v-168l-285 -764h285v-188h-504z" />
<glyph unicode="&#x1e92;" horiz-adv-x="626" d="M211 -330v207h206v-207h-206zM20 0v238l347 1048h-297v219h536v-219l-352 -1067h352v-219h-586z" />
<glyph unicode="&#x1e93;" horiz-adv-x="532" d="M162 -330v207h206v-207h-206zM12 0v168l285 764h-240v188h459v-168l-285 -764h285v-188h-504z" />
<glyph unicode="&#x1e94;" horiz-adv-x="626" d="M114 -284v162h398v-162h-398zM20 0v238l347 1048h-297v219h536v-219l-352 -1067h352v-219h-586z" />
<glyph unicode="&#x1e95;" horiz-adv-x="532" d="M65 -284v162h398v-162h-398zM12 0v168l285 764h-240v188h459v-168l-285 -764h285v-188h-504z" />
<glyph unicode="&#x1e96;" d="M149 -284v162h398v-162h-398zM356 936q-41 0 -67 -53v-883h-207v1505h207v-479l32 32q30 30 66.5 54.5t69.5 24.5q76 0 115.5 -69t39.5 -150v-918h-206v887q-1 49 -50 49z" />
<glyph unicode="&#x1e97;" horiz-adv-x="501" d="M-11 1520v200h191v-200h-191zM278 1520v200h191v-200h-191zM125 1397h207v-277h141v-186h-141v-557q0 -184 65 -184l76 8v-203q-45 -14 -111 -14q-68 0 -115.5 28.5t-70 64.5t-35 96t-14.5 95t-2 92v574h-105v186h105v277z" />
<glyph unicode="&#x1e98;" horiz-adv-x="905" d="M301 1403.5q0 61.5 45.5 102.5t108.5 41t107.5 -41t44.5 -102.5t-44.5 -102.5t-107.5 -41t-108.5 41t-45.5 102.5zM379 1403.5q0 -28.5 23.5 -50t52.5 -21.5t52.5 21.5t23.5 50t-23.5 50t-52.5 21.5t-52.5 -21.5t-23.5 -50zM719 0h-172l-80 535l-10 63h-8l-11 -63 l-80 -535h-172l-166 1120h189l65 -585l9 -64h12l10 64l86 585h123l86 -585l10 -64h13l8 64l65 585h189z" />
<glyph unicode="&#x1e99;" horiz-adv-x="634" d="M165 1403.5q0 61.5 45.5 102.5t108.5 41t107.5 -41t44.5 -102.5t-44.5 -102.5t-107.5 -41t-108.5 41t-45.5 102.5zM243 1403.5q0 -28.5 23.5 -50t52.5 -21.5t52.5 21.5t23.5 50t-23.5 50t-52.5 21.5t-52.5 -21.5t-23.5 -50zM33 -397v184q16 -4 49 -4q61 6 97 61.5 t36 122.5l-190 1153h202l82 -688l4 -57h9l4 57l82 688h202l-198 -1204q-16 -127 -94 -222t-193 -95z" />
<glyph unicode="&#x1e9b;" horiz-adv-x="630" d="M226 1259v207h206v-207h-206zM72 834q0 55 12 104t39 95t78 74t123 30h11q78 0 131 -26q56 -28 80.5 -79t33 -95t8.5 -103h-193q0 131 -67 131q-63 -2 -64 -131q0 -33 23.5 -73t45 -62.5t66.5 -65.5q190 -182 191 -342q0 -123 -64.5 -215t-199.5 -92q-72 0 -126.5 24.5 t-85 60t-49 85t-23.5 89.5t-5 83h192q0 -170 97 -170q72 0 71 135q0 74 -129 198q-68 66 -98.5 99t-64 101.5t-33.5 144.5z" />
<glyph unicode="&#x1ea0;" horiz-adv-x="765" d="M281 -330v207h206v-207h-206zM236 0h-216l228 1505h270l227 -1505h-215l-41 307h-213zM459 541l-64 475l-6 39h-12l-6 -39l-64 -475h152z" />
<glyph unicode="&#x1ea1;" horiz-adv-x="681" d="M113 -347v207h206v-207h-206zM252 291q0 -104 57 -105q35 0 60.5 19.5t25.5 48.5v287q-143 -62 -143 -250zM49 260q0 106 34 187t83 124t98 73t88 50.5t43 36.5v37v86q0 102 -57 102q-20 0 -32.5 -9t-17.5 -32.5t-7 -37t-2 -47.5v-39h-207v47q0 123 80.5 211t197.5 88 q102 0 177 -74t75 -180v-351v-337q0 -109 14 -195h-202q-18 20 -19 90h-14q-20 -37 -65.5 -71.5t-100.5 -34.5q-59 0 -112.5 60t-53.5 216z" />
<glyph unicode="&#x1ea4;" horiz-adv-x="765" d="M410 2130h215l-162 -184h-159zM236 0h-216l228 1505h270l227 -1505h-215l-41 307h-213zM459 541l-64 475l-6 39h-12l-6 -39l-64 -475h152zM274 1823h220l141 -185h-189l-63 72l-61 -72h-189z" />
<glyph unicode="&#x1ea5;" horiz-adv-x="681" d="M369 1796h215l-162 -184h-159zM252 291q0 -104 57 -105q35 0 60.5 19.5t25.5 48.5v287q-143 -62 -143 -250zM49 260q0 106 34 187t83 124t98 73t88 50.5t43 36.5v37v86q0 102 -57 102q-20 0 -32.5 -9t-17.5 -32.5t-7 -37t-2 -47.5v-39h-207v47q0 123 80.5 211t197.5 88 q102 0 177 -74t75 -180v-351v-337q0 -109 14 -195h-202q-18 20 -19 90h-14q-20 -37 -65.5 -71.5t-100.5 -34.5q-59 0 -112.5 60t-53.5 216zM231 1489h220l141 -184h-189l-63 71l-61 -71h-189z" />
<glyph unicode="&#x1ea6;" horiz-adv-x="765" d="M141 2130h215l106 -184h-159zM236 0h-216l228 1505h270l227 -1505h-215l-41 307h-213zM459 541l-64 475l-6 39h-12l-6 -39l-64 -475h152zM274 1823h220l141 -185h-189l-63 72l-61 -72h-189z" />
<glyph unicode="&#x1ea7;" horiz-adv-x="681" d="M100 1796h215l106 -184h-159zM252 291q0 -104 57 -105q35 0 60.5 19.5t25.5 48.5v287q-143 -62 -143 -250zM49 260q0 106 34 187t83 124t98 73t88 50.5t43 36.5v37v86q0 102 -57 102q-20 0 -32.5 -9t-17.5 -32.5t-7 -37t-2 -47.5v-39h-207v47q0 123 80.5 211t197.5 88 q102 0 177 -74t75 -180v-351v-337q0 -109 14 -195h-202q-18 20 -19 90h-14q-20 -37 -65.5 -71.5t-100.5 -34.5q-59 0 -112.5 60t-53.5 216zM231 1489h220l141 -184h-189l-63 71l-61 -71h-189z" />
<glyph unicode="&#x1eaa;" horiz-adv-x="765" d="M295 1984q-25 0 -52.5 -8t-41.5 -16l-15 -8v151q49 39 109 39q33 0 91 -18.5t89 -20.5q25 0 52.5 8.5t41.5 16.5l15 8v-152q-51 -39 -109 -39q-31 0 -89 19.5t-91 19.5zM236 0h-216l228 1505h270l227 -1505h-215l-41 307h-213zM459 541l-64 475l-6 39h-12l-6 -39 l-64 -475h152zM274 1823h220l141 -185h-189l-63 72l-61 -72h-189z" />
<glyph unicode="&#x1eab;" horiz-adv-x="681" d="M250 1650q-25 0 -52.5 -8t-41.5 -16l-15 -8v151q49 39 109 39q33 0 91 -18.5t89 -20.5q25 0 52.5 8.5t41.5 16.5l15 8v-152q-51 -39 -109 -39q-31 0 -89 19.5t-91 19.5zM252 291q0 -104 57 -105q35 0 60.5 19.5t25.5 48.5v287q-143 -62 -143 -250zM49 260q0 106 34 187 t83 124t98 73t88 50.5t43 36.5v37v86q0 102 -57 102q-20 0 -32.5 -9t-17.5 -32.5t-7 -37t-2 -47.5v-39h-207v47q0 123 80.5 211t197.5 88q102 0 177 -74t75 -180v-351v-337q0 -109 14 -195h-202q-18 20 -19 90h-14q-20 -37 -65.5 -71.5t-100.5 -34.5q-59 0 -112.5 60 t-53.5 216zM231 1489h220l141 -184h-189l-63 71l-61 -71h-189z" />
<glyph unicode="&#x1eac;" horiz-adv-x="765" d="M274 1829h220l141 -184h-189l-63 71l-61 -71h-189zM281 -330v207h206v-207h-206zM236 0h-216l228 1505h270l227 -1505h-215l-41 307h-213zM459 541l-64 475l-6 39h-12l-6 -39l-64 -475h152z" />
<glyph unicode="&#x1ead;" horiz-adv-x="681" d="M241 1444h220l141 -184h-189l-63 71l-61 -71h-189zM113 -347v207h206v-207h-206zM252 291q0 -104 57 -105q35 0 60.5 19.5t25.5 48.5v287q-143 -62 -143 -250zM49 260q0 106 34 187t83 124t98 73t88 50.5t43 36.5v37v86q0 102 -57 102q-20 0 -32.5 -9t-17.5 -32.5t-7 -37 t-2 -47.5v-39h-207v47q0 123 80.5 211t197.5 88q102 0 177 -74t75 -180v-351v-337q0 -109 14 -195h-202q-18 20 -19 90h-14q-20 -37 -65.5 -71.5t-100.5 -34.5q-59 0 -112.5 60t-53.5 216z" />
<glyph unicode="&#x1eae;" horiz-adv-x="765" d="M412 2142h215l-162 -184h-159zM502 1835l106 -94l-27 -27q-17 -16 -77 -42.5t-121 -26.5q-63 0 -119.5 24.5t-81.5 48.5l-24 23l110 94q41 -47 115 -47q35 0 64.5 12t41.5 25zM236 0h-216l228 1505h270l227 -1505h-215l-41 307h-213zM459 541l-64 475l-6 39h-12l-6 -39 l-64 -475h152z" />
<glyph unicode="&#x1eaf;" horiz-adv-x="681" d="M379 1757h215l-162 -184h-159zM469 1450l106 -94l-27 -27q-17 -16 -77 -42.5t-121 -26.5q-63 0 -119.5 24.5t-81.5 48.5l-24 23l110 94q41 -47 115 -47q35 0 64.5 12t41.5 25zM252 291q0 -104 57 -105q35 0 60.5 19.5t25.5 48.5v287q-143 -62 -143 -250zM49 260 q0 106 34 187t83 124t98 73t88 50.5t43 36.5v37v86q0 102 -57 102q-20 0 -32.5 -9t-17.5 -32.5t-7 -37t-2 -47.5v-39h-207v47q0 123 80.5 211t197.5 88q102 0 177 -74t75 -180v-351v-337q0 -109 14 -195h-202q-18 20 -19 90h-14q-20 -37 -65.5 -71.5t-100.5 -34.5 q-59 0 -112.5 60t-53.5 216z" />
<glyph unicode="&#x1eb0;" horiz-adv-x="765" d="M143 2142h215l106 -184h-159zM502 1835l106 -94l-27 -27q-17 -16 -77 -42.5t-121 -26.5q-63 0 -119.5 24.5t-81.5 48.5l-24 23l110 94q41 -47 115 -47q35 0 64.5 12t41.5 25zM236 0h-216l228 1505h270l227 -1505h-215l-41 307h-213zM459 541l-64 475l-6 39h-12l-6 -39 l-64 -475h152z" />
<glyph unicode="&#x1eb1;" horiz-adv-x="681" d="M111 1757h215l106 -184h-159zM469 1450l106 -94l-27 -27q-17 -16 -77 -42.5t-121 -26.5q-63 0 -119.5 24.5t-81.5 48.5l-24 23l110 94q41 -47 115 -47q35 0 64.5 12t41.5 25zM252 291q0 -104 57 -105q35 0 60.5 19.5t25.5 48.5v287q-143 -62 -143 -250zM49 260 q0 106 34 187t83 124t98 73t88 50.5t43 36.5v37v86q0 102 -57 102q-20 0 -32.5 -9t-17.5 -32.5t-7 -37t-2 -47.5v-39h-207v47q0 123 80.5 211t197.5 88q102 0 177 -74t75 -180v-351v-337q0 -109 14 -195h-202q-18 20 -19 90h-14q-20 -37 -65.5 -71.5t-100.5 -34.5 q-59 0 -112.5 60t-53.5 216z" />
<glyph unicode="&#x1eb4;" horiz-adv-x="765" d="M295 1996q-25 0 -52.5 -8t-41.5 -16l-15 -8v151q49 39 109 39q33 0 91 -18.5t89 -20.5q25 0 52.5 8.5t41.5 16.5l15 8v-152q-51 -39 -109 -39q-31 0 -89 19.5t-91 19.5zM502 1835l106 -94l-27 -27q-17 -16 -77 -42.5t-121 -26.5q-63 0 -119.5 24.5t-81.5 48.5l-24 23 l110 94q41 -47 115 -47q35 0 64.5 12t41.5 25zM236 0h-216l228 1505h270l227 -1505h-215l-41 307h-213zM459 541l-64 475l-6 39h-12l-6 -39l-64 -475h152z" />
<glyph unicode="&#x1eb5;" horiz-adv-x="681" d="M262 1611q-25 0 -52.5 -8t-41.5 -16l-15 -8v151q49 39 109 39q33 0 91 -18.5t89 -20.5q25 0 52.5 8.5t41.5 16.5l15 8v-152q-51 -39 -109 -39q-31 0 -89 19.5t-91 19.5zM469 1450l106 -94l-27 -27q-17 -16 -77 -42.5t-121 -26.5q-63 0 -119.5 24.5t-81.5 48.5l-24 23 l110 94q41 -47 115 -47q35 0 64.5 12t41.5 25zM252 291q0 -104 57 -105q35 0 60.5 19.5t25.5 48.5v287q-143 -62 -143 -250zM49 260q0 106 34 187t83 124t98 73t88 50.5t43 36.5v37v86q0 102 -57 102q-20 0 -32.5 -9t-17.5 -32.5t-7 -37t-2 -47.5v-39h-207v47 q0 123 80.5 211t197.5 88q102 0 177 -74t75 -180v-351v-337q0 -109 14 -195h-202q-18 20 -19 90h-14q-20 -37 -65.5 -71.5t-100.5 -34.5q-59 0 -112.5 60t-53.5 216z" />
<glyph unicode="&#x1eb6;" horiz-adv-x="765" d="M502 1835l106 -94l-27 -27q-17 -16 -77 -42.5t-121 -26.5q-63 0 -119.5 24.5t-81.5 48.5l-24 23l110 94q41 -47 115 -47q35 0 64.5 12t41.5 25zM281 -330v207h206v-207h-206zM236 0h-216l228 1505h270l227 -1505h-215l-41 307h-213zM459 541l-64 475l-6 39h-12l-6 -39 l-64 -475h152z" />
<glyph unicode="&#x1eb7;" horiz-adv-x="681" d="M469 1450l106 -94l-27 -27q-17 -16 -77 -42.5t-121 -26.5q-63 0 -119.5 24.5t-81.5 48.5l-24 23l110 94q41 -47 115 -47q35 0 64.5 12t41.5 25zM113 -347v207h206v-207h-206zM252 291q0 -104 57 -105q35 0 60.5 19.5t25.5 48.5v287q-143 -62 -143 -250zM49 260 q0 106 34 187t83 124t98 73t88 50.5t43 36.5v37v86q0 102 -57 102q-20 0 -32.5 -9t-17.5 -32.5t-7 -37t-2 -47.5v-39h-207v47q0 123 80.5 211t197.5 88q102 0 177 -74t75 -180v-351v-337q0 -109 14 -195h-202q-18 20 -19 90h-14q-20 -37 -65.5 -71.5t-100.5 -34.5 q-59 0 -112.5 60t-53.5 216z" />
<glyph unicode="&#x1eb8;" horiz-adv-x="628" d="M232 -330v207h206v-207h-206zM82 0v1505h506v-227h-285v-395h205v-242h-205v-414h285v-227h-506z" />
<glyph unicode="&#x1eb9;" horiz-adv-x="659" d="M228 -347v207h206v-207h-206zM408 401h192v-129q0 -12 -2 -31.5t-16.5 -68.5t-39 -88t-79.5 -69.5t-131 -30.5q-74 0 -129.5 30.5t-80 73.5t-38.5 86t-16 74l-2 31v563q0 12 2 31.5t16 70.5t40 90t81 71t129 32q199 0 252 -197q14 -51 14 -92v-326h-342v-243v-13 q0 -8 4 -27.5t11.5 -34t23.5 -26.5t37 -12q70 10 74 113v122zM258 842v-158h150v158q0 12 -1 31.5t-19.5 51t-53.5 31.5q-33 0 -52.5 -28.5t-21.5 -57.5z" />
<glyph unicode="&#x1ebc;" horiz-adv-x="628" d="M246 1683q-25 0 -52.5 -8t-41.5 -16l-15 -8v151q49 39 109 39q33 0 91 -18.5t89 -20.5q25 0 52.5 8.5t41.5 16.5l15 8v-152q-51 -39 -109 -39q-31 0 -89 19.5t-91 19.5zM82 0v1505h506v-227h-285v-395h205v-242h-205v-414h285v-227h-506z" />
<glyph unicode="&#x1ebd;" horiz-adv-x="659" d="M244 1298q-25 0 -52.5 -8t-41.5 -16l-15 -8v151q49 39 109 39q33 0 91 -18.5t89 -20.5q25 0 52.5 8.5t41.5 16.5l15 8v-152q-51 -39 -109 -39q-31 0 -89 19.5t-91 19.5zM408 401h192v-129q0 -12 -2 -31.5t-16.5 -68.5t-39 -88t-79.5 -69.5t-131 -30.5q-74 0 -129.5 30.5 t-80 73.5t-38.5 86t-16 74l-2 31v563q0 12 2 31.5t16 70.5t40 90t81 71t129 32q199 0 252 -197q14 -51 14 -92v-326h-342v-243v-13q0 -8 4 -27.5t11.5 -34t23.5 -26.5t37 -12q70 10 74 113v122zM258 842v-158h150v158q0 12 -1 31.5t-19.5 51t-53.5 31.5q-33 0 -52.5 -28.5 t-21.5 -57.5z" />
<glyph unicode="&#x1ebe;" horiz-adv-x="628" d="M360 2130h215l-162 -184h-159zM82 0v1505h506v-227h-285v-395h205v-242h-205v-414h285v-227h-506zM225 1823h219l142 -185h-189l-63 72l-62 -72h-188z" />
<glyph unicode="&#x1ebf;" horiz-adv-x="659" d="M356 1796h215l-162 -184h-159zM408 401h192v-129q0 -12 -2 -31.5t-16.5 -68.5t-39 -88t-79.5 -69.5t-131 -30.5q-74 0 -129.5 30.5t-80 73.5t-38.5 86t-16 74l-2 31v563q0 12 2 31.5t16 70.5t40 90t81 71t129 32q199 0 252 -197q14 -51 14 -92v-326h-342v-243v-13 q0 -8 4 -27.5t11.5 -34t23.5 -26.5t37 -12q70 10 74 113v122zM258 842v-158h150v158q0 12 -1 31.5t-19.5 51t-53.5 31.5q-33 0 -52.5 -28.5t-21.5 -57.5zM221 1489h219l142 -184h-189l-63 71l-62 -71h-188z" />
<glyph unicode="&#x1ec0;" horiz-adv-x="628" d="M92 2130h215l106 -184h-159zM82 0v1505h506v-227h-285v-395h205v-242h-205v-414h285v-227h-506zM225 1823h219l142 -185h-189l-63 72l-62 -72h-188z" />
<glyph unicode="&#x1ec1;" horiz-adv-x="659" d="M88 1796h215l106 -184h-159zM408 401h192v-129q0 -12 -2 -31.5t-16.5 -68.5t-39 -88t-79.5 -69.5t-131 -30.5q-74 0 -129.5 30.5t-80 73.5t-38.5 86t-16 74l-2 31v563q0 12 2 31.5t16 70.5t40 90t81 71t129 32q199 0 252 -197q14 -51 14 -92v-326h-342v-243v-13 q0 -8 4 -27.5t11.5 -34t23.5 -26.5t37 -12q70 10 74 113v122zM258 842v-158h150v158q0 12 -1 31.5t-19.5 51t-53.5 31.5q-33 0 -52.5 -28.5t-21.5 -57.5zM221 1489h219l142 -184h-189l-63 71l-62 -71h-188z" />
<glyph unicode="&#x1ec4;" horiz-adv-x="628" d="M246 1984q-25 0 -52.5 -8t-41.5 -16l-15 -8v151q49 39 109 39q33 0 91 -18.5t89 -20.5q25 0 52.5 8.5t41.5 16.5l15 8v-152q-51 -39 -109 -39q-31 0 -89 19.5t-91 19.5zM82 0v1505h506v-227h-285v-395h205v-242h-205v-414h285v-227h-506zM225 1823h219l142 -185h-189 l-63 72l-62 -72h-188z" />
<glyph unicode="&#x1ec5;" horiz-adv-x="659" d="M242 1650q-25 0 -52.5 -8t-41.5 -16l-15 -8v151q49 39 109 39q33 0 91 -18.5t89 -20.5q25 0 52.5 8.5t41.5 16.5l15 8v-152q-51 -39 -109 -39q-31 0 -89 19.5t-91 19.5zM408 401h192v-129q0 -12 -2 -31.5t-16.5 -68.5t-39 -88t-79.5 -69.5t-131 -30.5q-74 0 -129.5 30.5 t-80 73.5t-38.5 86t-16 74l-2 31v563q0 12 2 31.5t16 70.5t40 90t81 71t129 32q199 0 252 -197q14 -51 14 -92v-326h-342v-243v-13q0 -8 4 -27.5t11.5 -34t23.5 -26.5t37 -12q70 10 74 113v122zM258 842v-158h150v158q0 12 -1 31.5t-19.5 51t-53.5 31.5q-33 0 -52.5 -28.5 t-21.5 -57.5zM221 1489h219l142 -184h-189l-63 71l-62 -71h-188z" />
<glyph unicode="&#x1ec6;" horiz-adv-x="628" d="M225 1829h220l141 -184h-189l-63 71l-61 -71h-189zM232 -330v207h206v-207h-206zM82 0v1505h506v-227h-285v-395h205v-242h-205v-414h285v-227h-506z" />
<glyph unicode="&#x1ec7;" horiz-adv-x="659" d="M225 1444h220l141 -184h-189l-63 71l-61 -71h-189zM228 -347v207h206v-207h-206zM408 401h192v-129q0 -12 -2 -31.5t-16.5 -68.5t-39 -88t-79.5 -69.5t-131 -30.5q-74 0 -129.5 30.5t-80 73.5t-38.5 86t-16 74l-2 31v563q0 12 2 31.5t16 70.5t40 90t81 71t129 32 q199 0 252 -197q14 -51 14 -92v-326h-342v-243v-13q0 -8 4 -27.5t11.5 -34t23.5 -26.5t37 -12q70 10 74 113v122zM258 842v-158h150v158q0 12 -1 31.5t-19.5 51t-53.5 31.5q-33 0 -52.5 -28.5t-21.5 -57.5z" />
<glyph unicode="&#x1eca;" horiz-adv-x="385" d="M89 -330v207h206v-207h-206zM82 0v1505h221v-1505h-221z" />
<glyph unicode="&#x1ecb;" horiz-adv-x="370" d="M82 -330v207h206v-207h-206zM289 0h-207v1120h207v-1120zM82 1298v207h207v-207h-207z" />
<glyph unicode="&#x1ecc;" horiz-adv-x="724" d="M261 -347v207h206v-207h-206zM657 309q0 -12 -2 -34.5t-17 -79t-43 -99.5t-88.5 -77.5t-144 -34.5t-144 33.5t-88.5 81.5t-43 95.5t-17 79.5l-2 35v887q0 12 2 34.5t17 79t43 99.5t88.5 78t144 35t144 -34t88.5 -81t43 -95t17 -83l2 -33v-887zM436 1196q0 12 -1 30.5 t-19.5 49.5t-53 31t-53 -28t-18.5 -54l-2 -29v-887q0 -12 1 -30.5t19.5 -49t53 -30.5t53 27.5t18.5 56.5l2 26v887z" />
<glyph unicode="&#x1ecd;" horiz-adv-x="657" d="M224 -347v207h206v-207h-206zM594 848v-576q0 -12 -1 -31.5t-15.5 -68.5t-40 -88t-80 -69.5t-129.5 -30.5q-74 0 -129.5 30.5t-80 73.5t-38.5 86t-14 74l-3 31v563q0 12 1.5 31.5t15.5 70.5t38.5 90t80 71t129.5 32q199 0 252 -197q14 -51 14 -92zM399 842q-1 1 -0.5 4 t1 8.5t0.5 6.5q0 9 -3 21q-4 17 -10 33.5t-21.5 28.5t-37.5 12q-68 -10 -70 -114v-563q1 -1 1 -4t-1 -8.5t-1 -7.5q0 -9 3 -20q4 -17 10 -34t21.5 -28t36.5 -11q70 10 71 113v563z" />
<glyph unicode="&#x1ed0;" horiz-adv-x="724" d="M389 2130h215l-162 -184h-159zM657 309q0 -12 -2 -34.5t-17 -79t-43 -99.5t-88.5 -77.5t-144 -34.5t-144 33.5t-88.5 81.5t-43 95.5t-17 79.5l-2 35v887q0 12 2 34.5t17 79t43 99.5t88.5 78t144 35t144 -34t88.5 -81t43 -95t17 -83l2 -33v-887zM436 1196q0 12 -1 30.5 t-19.5 49.5t-53 31t-53 -28t-18.5 -54l-2 -29v-887q0 -12 1 -30.5t19.5 -49t53 -30.5t53 27.5t18.5 56.5l2 26v887zM254 1823h219l141 -185h-188l-64 72l-61 -72h-188z" />
<glyph unicode="&#x1ed1;" horiz-adv-x="657" d="M356 1796h215l-162 -184h-159zM594 848v-576q0 -12 -1 -31.5t-15.5 -68.5t-40 -88t-80 -69.5t-129.5 -30.5q-74 0 -129.5 30.5t-80 73.5t-38.5 86t-14 74l-3 31v563q0 12 1.5 31.5t15.5 70.5t38.5 90t80 71t129.5 32q199 0 252 -197q14 -51 14 -92zM399 842q-2 0 0 11 t-2 28.5t-10 34t-21.5 28.5t-37.5 12q-68 -10 -70 -114v-563q2 0 0 -11.5t2 -29t10 -34t21.5 -27.5t36.5 -11q70 10 71 113v563zM219 1489h219l142 -184h-189l-63 71l-62 -71h-188z" />
<glyph unicode="&#x1ed2;" horiz-adv-x="724" d="M121 2130h215l106 -184h-159zM657 309q0 -12 -2 -34.5t-17 -79t-43 -99.5t-88.5 -77.5t-144 -34.5t-144 33.5t-88.5 81.5t-43 95.5t-17 79.5l-2 35v887q0 12 2 34.5t17 79t43 99.5t88.5 78t144 35t144 -34t88.5 -81t43 -95t17 -83l2 -33v-887zM436 1196q0 12 -1 30.5 t-19.5 49.5t-53 31t-53 -28t-18.5 -54l-2 -29v-887q0 -12 1 -30.5t19.5 -49t53 -30.5t53 27.5t18.5 56.5l2 26v887zM254 1823h219l141 -185h-188l-64 72l-61 -72h-188z" />
<glyph unicode="&#x1ed3;" horiz-adv-x="657" d="M88 1796h215l106 -184h-159zM594 848v-576q0 -12 -1 -31.5t-15.5 -68.5t-40 -88t-80 -69.5t-129.5 -30.5q-74 0 -129.5 30.5t-80 73.5t-38.5 86t-14 74l-3 31v563q0 12 1.5 31.5t15.5 70.5t38.5 90t80 71t129.5 32q199 0 252 -197q14 -51 14 -92zM399 842q-2 0 0 11 t-2 28.5t-10 34t-21.5 28.5t-37.5 12q-68 -10 -70 -114v-563q2 0 0 -11.5t2 -29t10 -34t21.5 -27.5t36.5 -11q70 10 71 113v563zM219 1489h219l142 -184h-189l-63 71l-62 -71h-188z" />
<glyph unicode="&#x1ed6;" horiz-adv-x="724" d="M275 1984q-25 0 -52.5 -8t-41.5 -16l-15 -8v151q49 39 109 39q33 0 91 -18.5t89 -20.5q25 0 52.5 8.5t41.5 16.5l15 8v-152q-51 -39 -109 -39q-31 0 -89 19.5t-91 19.5zM657 309q0 -12 -2 -34.5t-17 -79t-43 -99.5t-88.5 -77.5t-144 -34.5t-144 33.5t-88.5 81.5t-43 95.5 t-17 79.5l-2 35v887q0 12 2 34.5t17 79t43 99.5t88.5 78t144 35t144 -34t88.5 -81t43 -95t17 -83l2 -33v-887zM436 1196q0 12 -1 30.5t-19.5 49.5t-53 31t-53 -28t-18.5 -54l-2 -29v-887q0 -12 1 -30.5t19.5 -49t53 -30.5t53 27.5t18.5 56.5l2 26v887zM254 1823h219 l141 -185h-188l-64 72l-61 -72h-188z" />
<glyph unicode="&#x1ed7;" horiz-adv-x="657" d="M238 1650q-25 0 -52.5 -8t-41.5 -16l-15 -8v151q49 39 109 39q33 0 91 -18.5t89 -20.5q25 0 52.5 8.5t41.5 16.5l15 8v-152q-51 -39 -109 -39q-31 0 -89 19.5t-91 19.5zM594 848v-576q0 -12 -1 -31.5t-15.5 -68.5t-40 -88t-80 -69.5t-129.5 -30.5q-74 0 -129.5 30.5 t-80 73.5t-38.5 86t-14 74l-3 31v563q0 12 1.5 31.5t15.5 70.5t38.5 90t80 71t129.5 32q199 0 252 -197q14 -51 14 -92zM399 842q-2 0 0 11t-2 28.5t-10 34t-21.5 28.5t-37.5 12q-68 -10 -70 -114v-563q2 0 0 -11.5t2 -29t10 -34t21.5 -27.5t36.5 -11q70 10 71 113v563z M219 1489h219l142 -184h-189l-63 71l-62 -71h-188z" />
<glyph unicode="&#x1ed8;" horiz-adv-x="724" d="M254 1829h220l141 -184h-189l-63 71l-61 -71h-189zM261 -347v207h206v-207h-206zM657 309q0 -12 -2 -34.5t-17 -79t-43 -99.5t-88.5 -77.5t-144 -34.5t-144 33.5t-88.5 81.5t-43 95.5t-17 79.5l-2 35v887q0 12 2 34.5t17 79t43 99.5t88.5 78t144 35t144 -34t88.5 -81 t43 -95t17 -83l2 -33v-887zM436 1196q0 12 -1 30.5t-19.5 49.5t-53 31t-53 -28t-18.5 -54l-2 -29v-887q0 -12 1 -30.5t19.5 -49t53 -30.5t53 27.5t18.5 56.5l2 26v887z" />
<glyph unicode="&#x1ed9;" horiz-adv-x="657" d="M217 1444h220l141 -184h-189l-63 71l-61 -71h-189zM224 -347v207h206v-207h-206zM594 848v-576q0 -12 -1 -31.5t-15.5 -68.5t-40 -88t-80 -69.5t-129.5 -30.5q-74 0 -129.5 30.5t-80 73.5t-38.5 86t-14 74l-3 31v563q0 12 1.5 31.5t15.5 70.5t38.5 90t80 71t129.5 32 q199 0 252 -197q14 -51 14 -92zM399 842q-1 1 -0.5 4t1 8.5t0.5 6.5q0 9 -3 21q-4 17 -10 33.5t-21.5 28.5t-37.5 12q-68 -10 -70 -114v-563q1 -1 1 -4t-1 -8.5t-1 -7.5q0 -9 3 -20q4 -17 10 -34t21.5 -28t36.5 -11q70 10 71 113v563z" />
<glyph unicode="&#x1eda;" horiz-adv-x="724" d="M528 1829h215l-162 -184h-159zM639 1521v-227l-113 -266h-102l72 266h-72v227h215zM657 309q0 -12 -2 -34.5t-17 -79t-43 -99.5t-88.5 -77.5t-144 -34.5t-144 33.5t-88.5 81.5t-43 95.5t-17 79.5l-2 35v887q0 12 2 34.5t17 79t43 99.5t88.5 78t144 35t144 -34t88.5 -81 t43 -95t17 -83l2 -33v-887zM436 1196q0 12 -1 30.5t-19.5 49.5t-53 31t-53 -28t-18.5 -54l-2 -29v-887q0 -12 1 -30.5t19.5 -49t53 -30.5t53 27.5t18.5 56.5l2 26v887z" />
<glyph unicode="&#x1edb;" horiz-adv-x="657" d="M491 1444h215l-162 -184h-159zM604 1136v-227l-113 -266h-102l72 266h-72v227h215zM594 848v-576q0 -12 -1 -31.5t-15.5 -68.5t-40 -88t-80 -69.5t-129.5 -30.5q-74 0 -129.5 30.5t-80 73.5t-38.5 86t-14 74l-3 31v563q0 12 1.5 31.5t15.5 70.5t38.5 90t80 71t129.5 32 q199 0 252 -197q14 -51 14 -92zM399 842q-1 1 -0.5 4t1 8.5t0.5 6.5q0 9 -3 21q-4 17 -10 33.5t-21.5 28.5t-37.5 12q-68 -10 -70 -114v-563q1 -1 1 -4t-1 -8.5t-1 -7.5q0 -9 3 -20q4 -17 10 -34t21.5 -28t36.5 -11q70 10 71 113v563z" />
<glyph unicode="&#x1edc;" horiz-adv-x="724" d="M260 1829h215l106 -184h-159zM639 1521v-227l-113 -266h-102l72 266h-72v227h215zM657 309q0 -12 -2 -34.5t-17 -79t-43 -99.5t-88.5 -77.5t-144 -34.5t-144 33.5t-88.5 81.5t-43 95.5t-17 79.5l-2 35v887q0 12 2 34.5t17 79t43 99.5t88.5 78t144 35t144 -34t88.5 -81 t43 -95t17 -83l2 -33v-887zM436 1196q0 12 -1 30.5t-19.5 49.5t-53 31t-53 -28t-18.5 -54l-2 -29v-887q0 -12 1 -30.5t19.5 -49t53 -30.5t53 27.5t18.5 56.5l2 26v887z" />
<glyph unicode="&#x1edd;" horiz-adv-x="657" d="M223 1444h215l106 -184h-159zM604 1136v-227l-113 -266h-102l72 266h-72v227h215zM594 848v-576q0 -12 -1 -31.5t-15.5 -68.5t-40 -88t-80 -69.5t-129.5 -30.5q-74 0 -129.5 30.5t-80 73.5t-38.5 86t-14 74l-3 31v563q0 12 1.5 31.5t15.5 70.5t38.5 90t80 71t129.5 32 q199 0 252 -197q14 -51 14 -92zM399 842q-1 1 -0.5 4t1 8.5t0.5 6.5q0 9 -3 21q-4 17 -10 33.5t-21.5 28.5t-37.5 12q-68 -10 -70 -114v-563q1 -1 1 -4t-1 -8.5t-1 -7.5q0 -9 3 -20q4 -17 10 -34t21.5 -28t36.5 -11q70 10 71 113v563z" />
<glyph unicode="&#x1ee0;" horiz-adv-x="724" d="M410 1683q-25 0 -52.5 -8t-41.5 -16l-15 -8v151q49 39 109 39q33 0 91 -18.5t89 -20.5q25 0 52.5 8.5t41.5 16.5l15 8v-152q-51 -39 -109 -39q-31 0 -89 19.5t-91 19.5zM639 1521v-227l-113 -266h-102l72 266h-72v227h215zM657 309q0 -12 -2 -34.5t-17 -79t-43 -99.5 t-88.5 -77.5t-144 -34.5t-144 33.5t-88.5 81.5t-43 95.5t-17 79.5l-2 35v887q0 12 2 34.5t17 79t43 99.5t88.5 78t144 35t144 -34t88.5 -81t43 -95t17 -83l2 -33v-887zM436 1196q0 12 -1 30.5t-19.5 49.5t-53 31t-53 -28t-18.5 -54l-2 -29v-887q0 -12 1 -30.5t19.5 -49 t53 -30.5t53 27.5t18.5 56.5l2 26v887z" />
<glyph unicode="&#x1ee1;" horiz-adv-x="657" d="M377 1298q-25 0 -52.5 -8t-41.5 -16l-15 -8v151q49 39 109 39q33 0 91 -18.5t89 -20.5q25 0 52.5 8.5t41.5 16.5l15 8v-152q-51 -39 -109 -39q-31 0 -89 19.5t-91 19.5zM604 1136v-227l-113 -266h-102l72 266h-72v227h215zM594 848v-576q0 -12 -1 -31.5t-15.5 -68.5 t-40 -88t-80 -69.5t-129.5 -30.5q-74 0 -129.5 30.5t-80 73.5t-38.5 86t-14 74l-3 31v563q0 12 1.5 31.5t15.5 70.5t38.5 90t80 71t129.5 32q199 0 252 -197q14 -51 14 -92zM399 842q-1 1 -0.5 4t1 8.5t0.5 6.5q0 9 -3 21q-4 17 -10 33.5t-21.5 28.5t-37.5 12 q-68 -10 -70 -114v-563q1 -1 1 -4t-1 -8.5t-1 -7.5q0 -9 3 -20q4 -17 10 -34t21.5 -28t36.5 -11q70 10 71 113v563z" />
<glyph unicode="&#x1ee2;" horiz-adv-x="724" d="M261 -347v207h206v-207h-206zM639 1521v-227l-113 -266h-102l72 266h-72v227h215zM657 309q0 -12 -2 -34.5t-17 -79t-43 -99.5t-88.5 -77.5t-144 -34.5t-144 33.5t-88.5 81.5t-43 95.5t-17 79.5l-2 35v887q0 12 2 34.5t17 79t43 99.5t88.5 78t144 35t144 -34t88.5 -81 t43 -95t17 -83l2 -33v-887zM436 1196q0 12 -1 30.5t-19.5 49.5t-53 31t-53 -28t-18.5 -54l-2 -29v-887q0 -12 1 -30.5t19.5 -49t53 -30.5t53 27.5t18.5 56.5l2 26v887z" />
<glyph unicode="&#x1ee3;" horiz-adv-x="657" d="M224 -347v207h206v-207h-206zM604 1136v-227l-113 -266h-102l72 266h-72v227h215zM594 848v-576q0 -12 -1 -31.5t-15.5 -68.5t-40 -88t-80 -69.5t-129.5 -30.5q-74 0 -129.5 30.5t-80 73.5t-38.5 86t-14 74l-3 31v563q0 12 1.5 31.5t15.5 70.5t38.5 90t80 71t129.5 32 q199 0 252 -197q14 -51 14 -92zM399 842q-1 1 -0.5 4t1 8.5t0.5 6.5q0 9 -3 21q-4 17 -10 33.5t-21.5 28.5t-37.5 12q-68 -10 -70 -114v-563q1 -1 1 -4t-1 -8.5t-1 -7.5q0 -9 3 -20q4 -17 10 -34t21.5 -28t36.5 -11q70 10 71 113v563z" />
<glyph unicode="&#x1ee4;" horiz-adv-x="749" d="M273 -347v207h206v-207h-206zM449 1505h221v-1196q0 -12 -2 -34.5t-17.5 -79t-43 -99.5t-88 -77.5t-144.5 -34.5t-144.5 33.5t-88 81.5t-43 95.5t-17.5 79.5l-2 35v1196h221v-1196q0 -12 1 -30.5t19.5 -49t53.5 -30.5t53 27.5t18 56.5l3 26v1196z" />
<glyph unicode="&#x1ee5;" d="M129 -347v207h206v-207h-206zM334 184q41 0 67 54v882h207v-1120h-207v94l-31 -32q-30 -30 -67 -54t-70 -24q-76 0 -115.5 68.5t-39.5 150.5v917h207v-887q0 -49 49 -49z" />
<glyph unicode="&#x1ee8;" horiz-adv-x="749" d="M864 1829h215l-162 -184h-159zM946 1521v-227l-113 -266h-102l72 266h-72v227h215zM449 1505h221v-1196q0 -12 -2 -34.5t-17.5 -79t-43 -99.5t-88 -77.5t-144.5 -34.5t-144.5 33.5t-88 81.5t-43 95.5t-17.5 79.5l-2 35v1196h221v-1196q0 -12 1 -30.5t19.5 -49t53.5 -30.5 t53 27.5t18 56.5l3 26v1196z" />
<glyph unicode="&#x1ee9;" d="M803 1444h215l-162 -184h-159zM885 1136v-227l-113 -266h-102l72 266h-72v227h215zM334 184q41 0 67 54v882h207v-1120h-207v94l-31 -32q-30 -30 -67 -54t-70 -24q-76 0 -115.5 68.5t-39.5 150.5v917h207v-887q0 -49 49 -49z" />
<glyph unicode="&#x1eea;" horiz-adv-x="749" d="M596 1829h215l106 -184h-159zM946 1521v-227l-113 -266h-102l72 266h-72v227h215zM449 1505h221v-1196q0 -12 -2 -34.5t-17.5 -79t-43 -99.5t-88 -77.5t-144.5 -34.5t-144.5 33.5t-88 81.5t-43 95.5t-17.5 79.5l-2 35v1196h221v-1196q0 -12 1 -30.5t19.5 -49t53.5 -30.5 t53 27.5t18 56.5l3 26v1196z" />
<glyph unicode="&#x1eeb;" d="M535 1444h215l106 -184h-159zM885 1136v-227l-113 -266h-102l72 266h-72v227h215zM334 184q41 0 67 54v882h207v-1120h-207v94l-31 -32q-30 -30 -67 -54t-70 -24q-76 0 -115.5 68.5t-39.5 150.5v917h207v-887q0 -49 49 -49z" />
<glyph unicode="&#x1eee;" horiz-adv-x="749" d="M750 1683q-25 0 -52.5 -8t-41.5 -16l-15 -8v151q49 39 109 39q33 0 91 -18.5t89 -20.5q25 0 52.5 8.5t41.5 16.5l15 8v-152q-51 -39 -109 -39q-31 0 -89 19.5t-91 19.5zM946 1521v-227l-113 -266h-102l72 266h-72v227h215zM449 1505h221v-1196q0 -12 -2 -34.5t-17.5 -79 t-43 -99.5t-88 -77.5t-144.5 -34.5t-144.5 33.5t-88 81.5t-43 95.5t-17.5 79.5l-2 35v1196h221v-1196q0 -12 1 -30.5t19.5 -49t53.5 -30.5t53 27.5t18 56.5l3 26v1196z" />
<glyph unicode="&#x1eef;" d="M688 1298q-25 0 -52.5 -8t-41.5 -16l-15 -8v151q49 39 109 39q33 0 91 -18.5t89 -20.5q25 0 52.5 8.5t41.5 16.5l15 8v-152q-51 -39 -109 -39q-31 0 -89 19.5t-91 19.5zM885 1136v-227l-113 -266h-102l72 266h-72v227h215zM334 184q41 0 67 54v882h207v-1120h-207v94 l-31 -32q-30 -30 -67 -54t-70 -24q-76 0 -115.5 68.5t-39.5 150.5v917h207v-887q0 -49 49 -49z" />
<glyph unicode="&#x1ef0;" horiz-adv-x="749" d="M273 -347v207h206v-207h-206zM946 1521v-227l-113 -266h-102l72 266h-72v227h215zM449 1505h221v-1196q0 -12 -2 -34.5t-17.5 -79t-43 -99.5t-88 -77.5t-144.5 -34.5t-144.5 33.5t-88 81.5t-43 95.5t-17.5 79.5l-2 35v1196h221v-1196q0 -12 1 -30.5t19.5 -49t53.5 -30.5 t53 27.5t18 56.5l3 26v1196z" />
<glyph unicode="&#x1ef1;" d="M129 -347v207h206v-207h-206zM885 1136v-227l-113 -266h-102l72 266h-72v227h215zM334 184q41 0 67 54v882h207v-1120h-207v94l-31 -32q-30 -30 -67 -54t-70 -24q-76 0 -115.5 68.5t-39.5 150.5v917h207v-887q0 -49 49 -49z" />
<glyph unicode="&#x1ef2;" horiz-adv-x="700" d="M109 1829h215l106 -184h-159zM231 1505l111 -481l6 -14h4l6 14l111 481h217l-225 -864v-641h-221v641l-226 864h217z" />
<glyph unicode="&#x1ef3;" horiz-adv-x="634" d="M76 1444h215l106 -184h-159zM33 -397v184q16 -4 49 -4q61 6 97 61.5t36 122.5l-190 1153h202l82 -688l4 -57h9l4 57l82 688h202l-198 -1204q-16 -127 -94 -222t-193 -95z" />
<glyph unicode="&#x1ef4;" horiz-adv-x="700" d="M248 -330v207h206v-207h-206zM231 1505l111 -481l6 -14h4l6 14l111 481h217l-225 -864v-641h-221v641l-226 864h217z" />
<glyph unicode="&#x1ef5;" horiz-adv-x="634" d="M23 -732v207h206v-207h-206zM33 -397v184q16 -4 49 -4q61 6 97 61.5t36 122.5l-190 1153h202l82 -688l4 -57h9l4 57l82 688h202l-198 -1204q-16 -127 -94 -222t-193 -95z" />
<glyph unicode="&#x1ef8;" horiz-adv-x="700" d="M260 1683q-25 0 -52.5 -8t-41.5 -16l-15 -8v151q49 39 109 39q33 0 91 -18.5t89 -20.5q25 0 52.5 8.5t41.5 16.5l15 8v-152q-51 -39 -109 -39q-31 0 -89 19.5t-91 19.5zM231 1505l111 -481l6 -14h4l6 14l111 481h217l-225 -864v-641h-221v641l-226 864h217z" />
<glyph unicode="&#x1ef9;" horiz-adv-x="634" d="M227 1298q-25 0 -52.5 -8t-41.5 -16l-15 -8v151q49 39 109 39q33 0 91 -18.5t89 -20.5q25 0 52.5 8.5t41.5 16.5l15 8v-152q-51 -39 -109 -39q-31 0 -89 19.5t-91 19.5zM33 -397v184q16 -4 49 -4q61 6 97 61.5t36 122.5l-190 1153h202l82 -688l4 -57h9l4 57l82 688h202 l-198 -1204q-16 -127 -94 -222t-193 -95z" />
<glyph unicode="&#x2000;" horiz-adv-x="1024" />
<glyph unicode="&#x2001;" horiz-adv-x="2048" />
<glyph unicode="&#x2002;" horiz-adv-x="1024" />
<glyph unicode="&#x2003;" horiz-adv-x="2048" />
<glyph unicode="&#x2004;" horiz-adv-x="681" />
<glyph unicode="&#x2005;" horiz-adv-x="512" />
<glyph unicode="&#x2006;" horiz-adv-x="339" />
<glyph unicode="&#x2007;" horiz-adv-x="724" />
<glyph unicode="&#x2008;" horiz-adv-x="321" />
<glyph unicode="&#x2009;" horiz-adv-x="204" />
<glyph unicode="&#x200a;" horiz-adv-x="20" />
<glyph unicode="&#x200b;" horiz-adv-x="0" />
<glyph unicode="&#x200c;" horiz-adv-x="0" />
<glyph unicode="&#x200d;" horiz-adv-x="0" />
<glyph unicode="&#x200e;" horiz-adv-x="681" />
<glyph unicode="&#x200f;" horiz-adv-x="681" />
<glyph unicode="&#x2010;" horiz-adv-x="444" d="M74 455v194h297v-194h-297z" />
<glyph unicode="&#x2011;" horiz-adv-x="444" d="M74 455v194h297v-194h-297z" />
<glyph unicode="&#x2012;" horiz-adv-x="724" d="M74 455v194h577v-194h-577z" />
<glyph unicode="&#x2013;" horiz-adv-x="806" d="M74 649v195h659v-195h-659z" />
<glyph unicode="&#x2014;" horiz-adv-x="972" d="M74 649v195h825v-195h-825z" />
<glyph unicode="&#x2015;" horiz-adv-x="4096" d="M74 455v194h3948v-194h-3948z" />
<glyph unicode="&#x2016;" horiz-adv-x="712" d="M630 -512h-192v2204h192v-2204zM274 -512h-192v2204h192v-2204z" />
<glyph unicode="&#x2018;" horiz-adv-x="309" d="M49 1012v227l113 266h102l-71 -266h71v-227h-215z" />
<glyph unicode="&#x2019;" horiz-adv-x="309" d="M260 1505v-227l-113 -266h-102l72 266h-72v227h215z" />
<glyph unicode="&#x201a;" horiz-adv-x="309" d="M260 227v-227l-113 -266h-102l72 266h-72v227h215z" />
<glyph unicode="&#x201c;" horiz-adv-x="624" d="M356 1012v227l113 266h102l-71 -266h71v-227h-215zM53 1012v227l113 266h102l-71 -266h71v-227h-215z" />
<glyph unicode="&#x201d;" horiz-adv-x="624" d="M268 1505v-227l-112 -266h-103l72 266h-72v227h215zM571 1505v-227l-112 -266h-103l72 266h-72v227h215z" />
<glyph unicode="&#x201e;" horiz-adv-x="624" d="M268 227v-227l-112 -266h-103l72 266h-72v227h215zM571 227v-227l-112 -266h-103l72 266h-72v227h215z" />
<glyph unicode="&#x2022;" horiz-adv-x="663" d="M82 817q0 102 72.5 175t179.5 73q102 0 175 -72.5t73 -175.5q0 -106 -73 -179t-175 -73q-106 0 -179 73t-73 179z" />
<glyph unicode="&#x2024;" horiz-adv-x="321" d="M53 0v227h215v-227h-215z" />
<glyph unicode="&#x2025;" horiz-adv-x="643" d="M375 0v227h215v-227h-215zM53 0v227h215v-227h-215z" />
<glyph unicode="&#x2026;" horiz-adv-x="964" d="M53 0v227h215v-227h-215zM375 0v227h215v-227h-215zM696 0v227h215v-227h-215z" />
<glyph unicode="&#x202a;" horiz-adv-x="0" />
<glyph unicode="&#x202f;" horiz-adv-x="442" />
<glyph unicode="&#x2032;" horiz-adv-x="309" d="M260 1505v-227l-113 -266h-102l72 266h-72v227h215z" />
<glyph unicode="&#x2033;" horiz-adv-x="618" d="M569 1505v-227l-113 -266h-102l72 266h-72v227h215zM260 1505v-227l-113 -266h-102l72 266h-72v227h215z" />
<glyph unicode="&#x2034;" horiz-adv-x="927" d="M878 1505v-227l-113 -266h-102l72 266h-72v227h215zM569 1505v-227l-113 -266h-102l72 266h-72v227h215zM260 1505v-227l-113 -266h-102l72 266h-72v227h215z" />
<glyph unicode="&#x2035;" horiz-adv-x="1024" d="M293 1489h215l106 -184h-159z" />
<glyph unicode="&#x2036;" horiz-adv-x="2048" d="M1317 1489h215l106 -184h-159zM293 1489h215l106 -184h-159z" />
<glyph unicode="&#x2037;" horiz-adv-x="3072" d="M2341 1489h215l106 -184h-159zM1317 1489h215l106 -184h-159zM293 1489h215l106 -184h-159z" />
<glyph unicode="&#x2039;" horiz-adv-x="1058" d="M74 649v160l911 475v-199l-698 -356l698 -356v-199z" />
<glyph unicode="&#x203a;" horiz-adv-x="1058" d="M985 809v-160l-911 -475v199l698 356l-698 356v199z" />
<glyph unicode="&#x203c;" horiz-adv-x="774" d="M473 0v227h215v-227h-215zM516 406l-55 1099h239l-55 -1099h-129zM86 0v227h215v-227h-215zM129 406l-55 1099h239l-55 -1099h-129z" />
<glyph unicode="&#x203e;" horiz-adv-x="315" d="M-199 123v162h398v-162h-398z" />
<glyph unicode="&#x2047;" horiz-adv-x="1290" d="M844 227v-227h215v227h-215zM1046 406h-190v256q0 102 24.5 195t48 140t64.5 117q43 72 53 113q6 27 -11 60.5t-56 33.5q-47 2 -82 -47t-49 -98l-178 84q12 33 33.5 68.5t59.5 81.5t96 76t124 27q82 -2 138 -33.5t82 -81.5t36 -91t10 -80q0 -82 -80 -219l-57 -96 q-18 -32 -42 -106.5t-24 -143.5v-256zM199 227v-227h215v227h-215zM401 406h-190v256q0 102 24.5 195t48 140t64.5 117q43 72 53 113q6 27 -11 60.5t-56 33.5q-47 2 -82 -47t-49 -98l-178 84q12 33 33.5 68.5t59.5 81.5t96 76t124 27q82 -2 138 -33.5t82 -81.5t36 -91 t10 -80q0 -82 -80 -219l-57 -96q-18 -32 -42 -106.5t-24 -143.5v-256z" />
<glyph unicode="&#x2048;" horiz-adv-x="1032" d="M731 0v227h215v-227h-215zM774 406l-55 1099h239l-55 -1099h-129zM199 227v-227h215v227h-215zM401 406h-190v256q0 102 24.5 195t48 140t64.5 117q43 72 53 113q6 27 -11 60.5t-56 33.5q-47 2 -82 -47t-49 -98l-178 84q12 33 33.5 68.5t59.5 81.5t96 76t124 27 q82 -2 138 -33.5t82 -81.5t36 -91t10 -80q0 -82 -80 -219l-57 -96q-18 -32 -42 -106.5t-24 -143.5v-256z" />
<glyph unicode="&#x2049;" horiz-adv-x="1032" d="M586 227v-227h215v227h-215zM788 406h-190v256q0 102 24.5 195t48 140t64.5 117q43 72 53 113q6 27 -11 60.5t-56 33.5q-47 2 -82 -47t-49 -98l-178 84q12 33 33.5 68.5t59.5 81.5t96 76t124 27q82 -2 138 -33.5t82 -81.5t36 -91t10 -80q0 -82 -80 -219l-57 -96 q-18 -32 -42 -106.5t-24 -143.5v-256zM86 0v227h215v-227h-215zM129 406l-55 1099h239l-55 -1099h-129z" />
<glyph unicode="&#x2057;" horiz-adv-x="1236" d="M1188 1505v-227l-113 -266h-102l72 266h-72v227h215zM878 1505v-227l-113 -266h-102l72 266h-72v227h215zM569 1505v-227l-113 -266h-102l72 266h-72v227h215zM260 1505v-227l-113 -266h-102l72 266h-72v227h215z" />
<glyph unicode="&#x205f;" horiz-adv-x="552" />
<glyph unicode="&#x2060;" horiz-adv-x="0" />
<glyph unicode="&#x20a8;" horiz-adv-x="1370" d="M811 834q0 55 12 104t39 95t78 74t123 30h11q78 0 131 -26q56 -28 80.5 -79t33 -95t8.5 -103h-193q0 131 -67 131q-63 -2 -64 -131q0 -33 23.5 -73t45 -62.5t66.5 -65.5q190 -182 191 -342q0 -123 -64.5 -215t-199.5 -92q-72 0 -126.5 24.5t-85 60t-49 85t-23.5 89.5 t-5 83h192q0 -170 97 -170q72 0 71 135q0 74 -129 198q-68 66 -98.5 99t-64 101.5t-33.5 144.5zM698 0h-221l-115 635h-59v-635h-221v1505h221q377 0 377 -434q0 -258 -123 -342zM467 1063q0 76 -15.5 125t-45 68.5t-51 24.5t-52.5 5v-446q31 0 52.5 5t51 24.5t45 68.5 t15.5 125z" />
<glyph unicode="&#x20ac;" horiz-adv-x="813" d="M53 821v137h107v238q0 12 2 34.5t17.5 79t43 99.5t88 78t144.5 35t144 -34t88 -81t43 -95t18 -83l2 -33v-84h-207v84q-2 0 0 11.5t-3 27.5t-12.5 32.5t-25 28t-43.5 11.5q-70 -10 -78 -111v-238h233v-137h-233v-137h233v-137h-233v-238q0 -12 2 -30.5t21.5 -49 t54.5 -30.5q41 0 61.5 27.5t20.5 56.5l2 26v84h207v-84q0 -12 -2.5 -34.5t-17.5 -79t-43 -99.5t-88 -77.5t-144 -34.5t-144.5 33.5t-88 81.5t-43 95.5t-17.5 79.5l-2 35v238h-107v137h107v137h-107z" />
<glyph unicode="&#x2122;" horiz-adv-x="937" d="M178 1401h-104v104h321v-104h-104v-580h-113v580zM674 821h-51l-80 449v-449h-103v684h138l67 -319h6l68 319h137v-684h-104v449z" />
<glyph unicode="&#x2260;" horiz-adv-x="1058" d="M176 -69l543 1652h162l-537 -1652h-168zM74 477v172h911v-172h-911zM74 864v172h911v-172h-911z" />
<glyph unicode="&#xe000;" horiz-adv-x="1120" d="M0 1120h1120v-1120h-1120v1120z" />
<glyph unicode="&#xfb00;" horiz-adv-x="950" d="M807 0h-207v934h-105v186h105v17v14q0 51 2 84t14.5 92t35 94t70.5 63.5t115 28.5l97 -14v-178q-27 8 -62 8q-66 0 -65 -180v-16v-13h104v-186h-104v-934zM332 0h-207v934h-105v186h105v17v14q0 51 2 84t14.5 92t35 94t70.5 63.5t115 28.5l97 -14v-178q-27 8 -62 8 q-66 0 -65 -180v-16v-13h104v-186h-104v-934z" />
<glyph unicode="&#xfb01;" horiz-adv-x="772" d="M690 0h-207v934h-151v-934h-207v934h-105v186h105v31q0 45 1 69.5t7 77t22.5 84t43 67.5t72.5 53.5t108 17.5q33 0 69.5 -4.5t57.5 -8.5l20 -2v-184q-41 12 -110 12q-31 0 -50.5 -18.5t-25.5 -58t-7 -54t-1 -53.5v-29h358v-1120z" />
<glyph unicode="&#xfb02;" horiz-adv-x="772" d="M690 0h-207v1329q-37 4 -67.5 4t-50 -18.5t-25.5 -58t-7 -54t-1 -53.5v-29h104v-186h-104v-934h-207v934h-105v186h105v31q0 45 1 69.5t7 77t22.5 84t43 67.5t72.5 53.5t108 17.5q33 0 69.5 -4.5t57.5 -8.5l20 -2h164v-1505z" />
<glyph unicode="&#xfb03;" horiz-adv-x="1320" d="M1239 0h-207v1120h207v-1120zM1032 1298v207h207v-207h-207zM807 0h-207v934h-105v186h105v17v14q0 51 2 84t14.5 92t35 94t70.5 63.5t115 28.5l97 -14v-178q-27 8 -62 8q-66 0 -65 -180v-16v-13h104v-186h-104v-934zM332 0h-207v934h-105v186h105v17v14q0 51 2 84 t14.5 92t35 94t70.5 63.5t115 28.5l97 -14v-178q-27 8 -62 8q-66 0 -65 -180v-16v-13h104v-186h-104v-934z" />
</font>
</defs>
</svg>
